<svg width="31" height="31" viewBox="0 0 31 31" fill="none" xmlns="http://www.w3.org/2000/svg">
<g id="solar:map-outline">
<path id="Vector" fill-rule="evenodd" clip-rule="evenodd" d="M23.0705 4.08564L23.2771 4.15539L24.8297 4.67205C25.4277 4.87226 25.9535 5.04664 26.3681 5.24039C26.8176 5.44964 27.2296 5.7183 27.5448 6.15618C27.86 6.59405 27.9852 7.06939 28.0421 7.56151C28.0937 8.01747 28.0938 8.5703 28.0938 9.20193V19.8091C28.0938 20.7107 28.0937 21.4715 28.024 22.0734C27.9517 22.6986 27.7889 23.316 27.333 23.8146C27.063 24.1101 26.735 24.3466 26.3694 24.5095C25.752 24.7833 25.1152 24.742 24.499 24.6141C23.9049 24.4901 23.1841 24.2498 22.329 23.9644L22.2735 23.9463C20.8268 23.4632 20.3295 23.3134 19.849 23.3302C19.6571 23.3371 19.4664 23.3626 19.2794 23.4064C18.8105 23.5162 18.3714 23.7926 17.1017 24.6386L15.3166 25.8295L15.1357 25.9497C13.764 26.8655 12.8108 27.501 11.6947 27.6508C10.58 27.8006 9.49246 27.4377 7.92954 26.9146L7.72288 26.8461L6.17029 26.3294C5.57225 26.1292 5.04654 25.9548 4.63192 25.7611C4.18242 25.5518 3.77037 25.2832 3.45521 24.844C3.14004 24.4074 3.01475 23.9321 2.95792 23.4387C2.90625 22.9827 2.90625 22.4312 2.90625 21.7996V11.1924C2.90625 10.2895 2.90625 9.52872 2.976 8.92809C3.04833 8.30293 3.21108 7.68551 3.66704 7.18693C3.93696 6.89141 4.26501 6.65483 4.63063 6.49201C5.24804 6.21689 5.88612 6.25822 6.50096 6.38739C7.09512 6.51009 7.81587 6.75164 8.67096 7.03709L8.7265 7.05518C10.1732 7.53697 10.6705 7.68809 11.1522 7.6713C11.3437 7.66428 11.534 7.63876 11.7206 7.59509C12.1895 7.48401 12.6286 7.20759 13.8983 6.36284L15.6834 5.17193L15.8642 5.05051C17.236 4.13601 18.1892 3.50051 19.304 3.35068C20.42 3.20084 21.5075 3.56251 23.0705 4.08564ZM20.3438 5.30497V21.4159C21.0361 21.4908 21.7646 21.7337 22.7243 22.054L22.8857 22.1083C23.8119 22.417 24.4254 22.6198 24.8943 22.7179C25.3541 22.8135 25.5104 22.7696 25.5815 22.7386C25.7034 22.6845 25.8129 22.6058 25.9031 22.5074C25.9548 22.4506 26.0452 22.3149 26.0994 21.8486C26.155 21.3733 26.1562 20.7262 26.1562 19.751V9.2523C26.1562 8.5548 26.155 8.11564 26.1175 7.78239C26.0813 7.47368 26.0245 7.35872 25.9728 7.28897C25.9225 7.21922 25.832 7.12751 25.5517 6.99705C25.2469 6.85497 24.8284 6.71547 24.1697 6.49459L22.6649 5.99343C21.5192 5.61109 20.8398 5.39539 20.3438 5.30497ZM18.4062 21.6484V5.72734C18.0045 5.95984 17.4892 6.29697 16.7581 6.78393L14.973 7.97484L14.8309 8.06914C13.9423 8.6633 13.2796 9.10505 12.5938 9.35305V25.2741C12.9955 25.0416 13.5108 24.7032 14.2419 24.2163L16.027 23.0266L16.1691 22.9323C17.0577 22.3382 17.7204 21.8964 18.4062 21.6484ZM10.6562 25.6978V9.58426C9.96392 9.50934 9.23542 9.26651 8.27571 8.94618L8.11425 8.89193C7.18813 8.58322 6.57458 8.38043 6.10442 8.28226C5.64587 8.18668 5.48958 8.2293 5.41983 8.2603C5.29727 8.31462 5.18731 8.39379 5.09692 8.4928C5.04525 8.54834 4.95483 8.68397 4.90058 9.15026C4.84504 9.62559 4.84375 10.274 4.84375 11.2492V21.7479C4.84375 22.4454 4.84504 22.8846 4.8825 23.2178C4.91867 23.5265 4.9755 23.6402 5.02717 23.7112C5.07754 23.781 5.16796 23.8727 5.44825 24.0031C5.75308 24.1452 6.17158 24.2847 6.83033 24.5056L8.33512 25.0068C9.48083 25.3878 10.159 25.6048 10.6562 25.6965" fill="black"/>
</g>
</svg>
