<svg width="37" height="37" viewBox="0 0 37 37" fill="none" xmlns="http://www.w3.org/2000/svg">
<g id="mdi:map-marker-radius">
<path id="Vector" d="M15.3333 0C20.4362 0 24.5833 4.10083 24.5833 9.17292C24.5833 16.0487 15.3333 26.2083 15.3333 26.2083C15.3333 26.2083 6.08333 16.0487 6.08333 9.17292C6.08333 4.10083 10.2304 0 15.3333 0ZM15.3333 6.16667C14.5156 6.16667 13.7313 6.49152 13.1531 7.06975C12.5749 7.64799 12.25 8.43225 12.25 9.25C12.25 10.0678 12.5749 10.852 13.1531 11.4302C13.7313 12.0085 14.5156 12.3333 15.3333 12.3333C16.1511 12.3333 16.9353 12.0085 17.5136 11.4302C18.0918 10.852 18.4167 10.0678 18.4167 9.25C18.4167 8.43225 18.0918 7.64799 17.5136 7.06975C16.9353 6.49152 16.1511 6.16667 15.3333 6.16667ZM27.6667 26.2083C27.6667 29.6154 22.1475 32.375 15.3333 32.375C8.51917 32.375 3 29.6154 3 26.2083C3 24.2196 4.88083 22.4467 7.79458 21.3212L8.78125 22.7242C7.11625 23.4179 6.08333 24.3737 6.08333 25.4375C6.08333 27.565 10.2304 29.2917 15.3333 29.2917C20.4362 29.2917 24.5833 27.565 24.5833 25.4375C24.5833 24.3737 23.5504 23.4179 21.8854 22.7242L22.8721 21.3212C25.7858 22.4467 27.6667 24.2196 27.6667 26.2083Z" fill="#DD0000"/>
</g>
</svg>
