<svg width="49" height="54" viewBox="0 0 49 54" fill="none" xmlns="http://www.w3.org/2000/svg">
<g id="FAQ icon" filter="url(#filter0_d_420_983)">
<path id="Vector" d="M23.8344 47.8305L23.8096 47.835L23.6499 47.9137L23.6049 47.9227L23.5734 47.9137L23.4136 47.835C23.3896 47.8275 23.3716 47.8312 23.3596 47.8462L23.3506 47.8687L23.3124 48.8317L23.3236 48.8767L23.3461 48.906L23.5801 49.0725L23.6139 49.0815L23.6409 49.0725L23.8749 48.906L23.9019 48.87L23.9109 48.8317L23.8726 47.871C23.8666 47.847 23.8539 47.8335 23.8344 47.8305ZM24.4306 47.5762L24.4014 47.5807L23.9851 47.79L23.9626 47.8125L23.9559 47.8372L23.9964 48.8047L24.0076 48.8317L24.0256 48.8475L24.4779 49.0567C24.5064 49.0642 24.5281 49.0582 24.5431 49.0387L24.5521 49.0072L24.4756 47.6257C24.4681 47.5987 24.4531 47.5822 24.4306 47.5762ZM22.8219 47.5807C22.812 47.5747 22.8001 47.5728 22.7888 47.5753C22.7775 47.5778 22.7676 47.5846 22.7611 47.5942L22.7476 47.6257L22.6711 49.0072C22.6726 49.0342 22.6854 49.0522 22.7094 49.0612L22.7431 49.0567L23.1954 48.8475L23.2179 48.8295L23.2269 48.8047L23.2651 47.8372L23.2584 47.8102L23.2359 47.7877L22.8219 47.5807Z" fill="#0F1035"/>
<path id="Vector_2" d="M22.5 0C34.9267 0 45 10.0733 45 22.5C45 34.9268 34.9267 45 22.5 45C10.0733 45 0 34.9268 0 22.5C0 10.0733 10.0733 0 22.5 0ZM22.5 31.5C21.9033 31.5 21.331 31.7371 20.909 32.159C20.4871 32.581 20.25 33.1533 20.25 33.75C20.25 34.3468 20.4871 34.9191 20.909 35.341C21.331 35.763 21.9033 36 22.5 36C23.0967 36 23.669 35.763 24.091 35.341C24.5129 34.9191 24.75 34.3468 24.75 33.75C24.75 33.1533 24.5129 32.581 24.091 32.159C23.669 31.7371 23.0967 31.5 22.5 31.5ZM22.5 10.125C20.3368 10.125 18.2623 10.9843 16.7327 12.5139C15.2031 14.0435 14.3438 16.1181 14.3438 18.2813C14.3438 18.878 14.5808 19.4503 15.0028 19.8723C15.4247 20.2942 15.997 20.5313 16.5938 20.5313C17.1905 20.5313 17.7628 20.2942 18.1847 19.8723C18.6067 19.4503 18.8438 18.878 18.8438 18.2813C18.8445 17.6176 19.0259 16.9666 19.3684 16.3982C19.711 15.8298 20.2018 15.3653 20.7882 15.0546C21.3746 14.7439 22.0346 14.5986 22.6973 14.6344C23.36 14.6702 24.0005 14.8858 24.55 15.2579C25.0995 15.63 25.5374 16.1447 25.8167 16.7467C26.096 17.3487 26.2062 18.0154 26.1354 18.6753C26.0646 19.3352 25.8155 19.9634 25.4149 20.4925C25.0143 21.0216 24.4772 21.4317 23.8612 21.6788C22.3402 22.2863 20.25 23.8433 20.25 26.4375V27C20.25 27.5968 20.4871 28.1691 20.909 28.591C21.331 29.013 21.9033 29.25 22.5 29.25C23.0967 29.25 23.669 29.013 24.091 28.591C24.5129 28.1691 24.75 27.5968 24.75 27C24.75 26.451 24.8625 26.1765 25.3372 25.9425L25.533 25.8525C27.2898 25.1458 28.7461 23.8499 29.6522 22.1871C30.5582 20.5242 30.8576 18.598 30.499 16.7386C30.1404 14.8792 29.1462 13.2025 27.6868 11.9958C26.2274 10.7892 24.3937 10.1278 22.5 10.125Z" fill="#DCF2F1"/>
</g>
<defs>
<filter id="filter0_d_420_983" x="0" y="0" width="49" height="53.0815" filterUnits="userSpaceOnUse" color-interpolation-filters="sRGB">
<feFlood flood-opacity="0" result="BackgroundImageFix"/>
<feColorMatrix in="SourceAlpha" type="matrix" values="0 0 0 0 0 0 0 0 0 0 0 0 0 0 0 0 0 0 127 0" result="hardAlpha"/>
<feOffset dx="2" dy="2"/>
<feGaussianBlur stdDeviation="1"/>
<feComposite in2="hardAlpha" operator="out"/>
<feColorMatrix type="matrix" values="0 0 0 0 0 0 0 0 0 0 0 0 0 0 0 0 0 0 0.25 0"/>
<feBlend mode="normal" in2="BackgroundImageFix" result="effect1_dropShadow_420_983"/>
<feBlend mode="normal" in="SourceGraphic" in2="effect1_dropShadow_420_983" result="shape"/>
</filter>
</defs>
</svg>
