<svg width="37" height="37" viewBox="0 0 37 37" fill="none" xmlns="http://www.w3.org/2000/svg">
<g id="mdi:map-marker-radius">
<path id="Vector" d="M18.5001 3.08325C23.603 3.08325 27.7501 7.18408 27.7501 12.2562C27.7501 19.132 18.5001 29.2916 18.5001 29.2916C18.5001 29.2916 9.25008 19.132 9.25008 12.2562C9.25008 7.18408 13.3972 3.08325 18.5001 3.08325ZM18.5001 9.24992C17.6823 9.24992 16.8981 9.57477 16.3198 10.153C15.7416 10.7312 15.4167 11.5155 15.4167 12.3333C15.4167 13.151 15.7416 13.9353 16.3198 14.5135C16.8981 15.0917 17.6823 15.4166 18.5001 15.4166C19.3178 15.4166 20.1021 15.0917 20.6803 14.5135C21.2586 13.9353 21.5834 13.151 21.5834 12.3333C21.5834 11.5155 21.2586 10.7312 20.6803 10.153C20.1021 9.57477 19.3178 9.24992 18.5001 9.24992ZM30.8334 29.2916C30.8334 32.6987 25.3142 35.4583 18.5001 35.4583C11.6859 35.4583 6.16675 32.6987 6.16675 29.2916C6.16675 27.3028 8.04758 25.5299 10.9613 24.4045L11.948 25.8074C10.283 26.5012 9.25008 27.457 9.25008 28.5208C9.25008 30.6483 13.3972 32.3749 18.5001 32.3749C23.603 32.3749 27.7501 30.6483 27.7501 28.5208C27.7501 27.457 26.7172 26.5012 25.0522 25.8074L26.0388 24.4045C28.9526 25.5299 30.8334 27.3028 30.8334 29.2916Z" fill="#013895"/>
</g>
</svg>
