<svg width="20" height="23" viewBox="0 0 20 23" fill="none" xmlns="http://www.w3.org/2000/svg">
<path id="arrow" d="M6.53289 11.5L0.320384 20.4125C-0.0537021 20.9601 -0.100196 21.528 0.180903 22.1161C0.462002 22.7043 0.936023 22.9989 1.60297 23C1.87017 23 2.12401 22.9381 2.3645 22.8144C2.60498 22.6906 2.79203 22.5197 2.92563 22.3018L10.4608 11.5L2.92563 0.698229C2.79203 0.479181 2.60498 0.307777 2.3645 0.184015C2.12401 0.0602531 1.87017 -0.00108147 1.60297 1.52588e-05C0.961675 1.52588e-05 0.494067 0.294088 0.200142 0.882231C-0.0937832 1.47037 -0.0537021 2.0388 0.320384 2.58751L6.53289 11.5ZM16.0721 11.5L9.85959 20.4125C9.4855 20.9601 9.43847 21.528 9.7185 22.1161C9.99853 22.7043 10.4736 22.9989 11.1438 23C11.411 23 11.6648 22.9381 11.9053 22.8144C12.1458 22.6906 12.3328 22.5197 12.4664 22.3018L20 11.5L12.4648 0.698229C12.3312 0.479181 12.1442 0.307777 11.9037 0.184015C11.6632 0.0602531 11.4094 -0.00108147 11.1422 1.52588e-05C10.5009 1.52588e-05 10.0333 0.294088 9.73935 0.882231C9.44542 1.47037 9.4855 2.0388 9.85959 2.58751L16.0721 11.5Z" fill="#524F4F"/>
</svg>
