<svg width="48" height="106" viewBox="0 0 48 106" fill="none" xmlns="http://www.w3.org/2000/svg">
<g id="button">
<path d="M0 0H28C39.0457 0 48 8.95431 48 20V86C48 97.0457 39.0457 106 28 106H0V0Z" fill="#D9D9D9"/>
<path id="arrow" d="M28.5054 53.0001L36.5783 41.698C37.0644 41.0036 37.1248 40.2834 36.7596 39.5376C36.3943 38.7917 35.7783 38.4181 34.9116 38.4167C34.5644 38.4167 34.2346 38.4952 33.9221 38.6522C33.6096 38.8091 33.3665 39.0258 33.1929 39.3022L23.4012 53.0001L33.1929 66.698C33.3665 66.9758 33.6096 67.1931 33.9221 67.3501C34.2346 67.507 34.5644 67.5848 34.9116 67.5834C35.745 67.5834 36.3526 67.2105 36.7346 66.4647C37.1165 65.7188 37.0644 64.998 36.5783 64.3022L28.5054 53.0001ZM16.1096 53.0001L24.1825 41.698C24.6686 41.0036 24.7297 40.2834 24.3658 39.5376C24.0019 38.7917 23.3846 38.4181 22.5137 38.4167C22.1665 38.4167 21.8366 38.4952 21.5241 38.6522C21.2116 38.8091 20.9686 39.0258 20.795 39.3022L11.0054 53.0001L20.7971 66.698C20.9707 66.9758 21.2137 67.1931 21.5262 67.3501C21.8387 67.507 22.1686 67.5848 22.5158 67.5834C23.3491 67.5834 23.9568 67.2105 24.3387 66.4647C24.7207 65.7188 24.6686 64.998 24.1825 64.3022L16.1096 53.0001Z" fill="#2A2A2A"/>
</g>
</svg>
