<svg width="20" height="22" viewBox="0 0 20 22" fill="none" xmlns="http://www.w3.org/2000/svg">
<g id="Group">
<path id="Vector" fill-rule="evenodd" clip-rule="evenodd" d="M10.5641 21.4392L10.553 21.4412L10.4814 21.4765L10.4612 21.4806L10.4471 21.4765L10.3755 21.4412C10.3647 21.4379 10.3567 21.4396 10.3513 21.4463L10.3473 21.4564L10.3301 21.888L10.3352 21.9082L10.3452 21.9213L10.4501 21.9959L10.4653 22L10.4774 21.9959L10.5822 21.9213L10.5944 21.9052L10.5984 21.888L10.5812 21.4574C10.5786 21.4466 10.5728 21.4406 10.5641 21.4392ZM10.8314 21.3253L10.8182 21.3273L10.6317 21.4211L10.6216 21.4312L10.6186 21.4423L10.6367 21.8759L10.6418 21.888L10.6498 21.8951L10.8525 21.9889C10.8653 21.9922 10.8751 21.9896 10.8818 21.9808L10.8858 21.9667L10.8515 21.3475C10.8482 21.3354 10.8414 21.328 10.8314 21.3253ZM10.1103 21.3273C10.1058 21.3246 10.1005 21.3237 10.0954 21.3248C10.0904 21.326 10.0859 21.329 10.083 21.3333L10.077 21.3475L10.0427 21.9667C10.0434 21.9788 10.0491 21.9869 10.0598 21.9909L10.075 21.9889L10.2777 21.8951L10.2878 21.887L10.2918 21.8759L10.3089 21.4423L10.3059 21.4302L10.2958 21.4201L10.1103 21.3273Z" fill="black"/>
<path id="Vector_2" fill-rule="evenodd" clip-rule="evenodd" d="M12.1958 15.9105C12.7201 15.6484 13.2952 15.5037 13.8811 15.4864C14.4671 15.4692 15.0497 15.5799 15.5885 15.8107L15.8043 15.9116L18.485 17.2509C18.7153 17.3658 18.8929 17.5645 18.9814 17.8062C19.07 18.0478 19.0628 18.3142 18.9614 18.5507C18.8599 18.7872 18.6719 18.976 18.4358 19.0784C18.1996 19.1809 17.9333 19.1891 17.6913 19.1015L17.5834 19.0551L14.9017 17.7148C14.6502 17.5891 14.3752 17.5173 14.0944 17.5041C13.8136 17.4909 13.5331 17.5366 13.2709 17.6382L13.0974 17.7148L11.7702 18.3794C11.2457 18.6415 10.6704 18.7862 10.0843 18.8032C9.49817 18.8203 8.91539 18.7094 8.37652 18.4783L8.1617 18.3794L6.83347 17.7148C6.582 17.5891 6.30702 17.5173 6.02618 17.5041C5.74534 17.4909 5.46484 17.5366 5.20268 17.6382L5.02921 17.7148L2.34855 19.0561C2.11825 19.1726 1.85207 19.1963 1.6048 19.1225C1.35753 19.0486 1.14797 18.8828 1.01927 18.6591C0.890563 18.4354 0.852502 18.1709 0.912919 17.92C0.973335 17.6691 1.12763 17.451 1.34405 17.3104L1.44692 17.2509L4.12759 15.9105C4.65188 15.6484 5.22701 15.5037 5.81292 15.4864C6.39884 15.4692 6.98148 15.5799 7.52028 15.8107L7.7361 15.9116L9.06333 16.5752C9.31494 16.701 9.59009 16.7729 9.87112 16.7861C10.1521 16.7993 10.4328 16.7535 10.6951 16.6518L10.8676 16.5752L12.1958 15.9105ZM10.9745 0C11.242 0 11.4985 0.106255 11.6876 0.295391C11.8768 0.484527 11.983 0.74105 11.983 1.00853V2.33979L15.3404 2.89851C15.8112 2.97727 16.2388 3.22044 16.5472 3.58477C16.8556 3.94911 17.0247 4.41101 17.0246 4.88834V8.34961L19.1022 9.04146C19.2677 9.09666 19.4199 9.18559 19.5492 9.30264C19.6785 9.41968 19.7822 9.56229 19.8535 9.72145C19.9249 9.88061 19.9625 10.0528 19.9639 10.2273C19.9653 10.4017 19.9305 10.5745 19.8616 10.7348L17.6741 15.8379L15.8043 14.902C15.2441 14.6219 14.6264 14.476 14.0001 14.476C13.3737 14.476 12.756 14.6219 12.1958 14.902L10.8676 15.5666C10.5875 15.7067 10.2786 15.7796 9.96546 15.7796C9.65229 15.7796 9.34343 15.7067 9.06333 15.5666L7.7361 14.902C7.17591 14.6219 6.55818 14.476 5.93185 14.476C5.30551 14.476 4.68779 14.6219 4.12759 14.902L2.84676 15.5434L0.16609 10.8528C0.0735567 10.6908 0.0181089 10.5104 0.00374448 10.3244C-0.0106199 10.1385 0.0164569 9.95163 0.0830231 9.7774C0.149589 9.60317 0.253986 9.44588 0.388687 9.31687C0.523387 9.18787 0.685035 9.09036 0.861975 9.03137L2.90626 8.34961V4.88834C2.90616 4.41101 3.07535 3.94911 3.38373 3.58477C3.69212 3.22044 4.11972 2.97727 4.5905 2.89851L7.9489 2.33979V1.00853C7.9489 0.74105 8.05516 0.484527 8.24429 0.295391C8.43343 0.106255 8.68995 0 8.95743 0H10.9745ZM9.96596 4.04823L4.92332 4.88834V7.67793L9.32756 6.20951C9.74162 6.07148 10.1893 6.07148 10.6033 6.20951L15.0086 7.67793V4.88834L9.96596 4.04823Z" fill="black"/>
</g>
</svg>
