<svg width="24" height="24" viewBox="0 0 24 24" fill="none" xmlns="http://www.w3.org/2000/svg">
<g id="cbi:weather-page-alt">
<path id="Vector" d="M9.54809 10.582C10.4325 10.6078 11.2892 10.8961 12.0094 11.4102C12.7295 11.9243 13.2804 12.6409 13.5921 13.469L13.7021 13.761L14.0091 13.703C14.1834 13.6721 14.3601 13.6567 14.5371 13.657C15.0671 13.6575 15.5872 13.8012 16.0422 14.073C16.4973 14.3448 16.8704 14.7345 17.1221 15.201L17.3521 15.624L17.5431 15.444L17.7031 15.294C18.2863 14.7501 18.7357 14.0785 19.0162 13.332C19.2967 12.5854 19.4007 11.784 19.3199 10.9906C19.2392 10.1972 18.9759 9.43323 18.5508 8.75848C18.1256 8.08373 17.5501 7.5165 16.8693 7.10119C16.1884 6.68587 15.4207 6.43373 14.6262 6.36449C13.8317 6.29526 13.032 6.41081 12.2895 6.7021C11.5471 6.99338 10.8822 7.45251 10.3467 8.04356C9.81128 8.6346 9.41986 9.34153 9.20309 10.109L9.16009 10.259L9.07309 10.567L9.54809 10.582ZM15.3211 7.24102C16.0463 7.43656 16.7099 7.81327 17.2495 8.33577C17.7891 8.85826 18.1869 9.50937 18.4057 10.2279C18.6245 10.9464 18.657 11.7088 18.5002 12.4434C18.3433 13.1779 18.0023 13.8605 17.5091 14.427C17.1676 13.9587 16.7204 13.5776 16.2037 13.3149C15.6871 13.0521 15.1157 12.9151 14.5361 12.915C14.4094 12.915 14.2881 12.92 14.1721 12.93C13.8086 12.1103 13.2393 11.3984 12.5195 10.8637C11.7997 10.3289 10.9539 9.98936 10.0641 9.87802C10.4687 8.87354 11.2262 8.05133 12.1941 7.56579C13.1621 7.08024 14.274 6.96475 15.3211 7.24102ZM20.0681 8.64702L20.7101 8.27502C20.8097 8.21084 20.8808 8.11085 20.9088 7.99571C20.9368 7.88056 20.9194 7.75907 20.8604 7.65635C20.8013 7.55363 20.705 7.47753 20.5915 7.44378C20.4779 7.41003 20.3557 7.42122 20.2501 7.47502L19.6071 7.84502C19.5107 7.91081 19.4427 8.01057 19.4167 8.12434C19.3907 8.23811 19.4087 8.3575 19.4669 8.45862C19.5252 8.55973 19.6195 8.63511 19.731 8.66968C19.8424 8.70424 19.9628 8.69543 20.0681 8.64502V8.64702ZM17.2111 6.26002C17.3184 6.32053 17.4451 6.33652 17.564 6.30454C17.683 6.27256 17.7846 6.19517 17.8471 6.08902L18.2181 5.44602C18.2724 5.34042 18.2841 5.21798 18.2507 5.10402C18.2173 4.99006 18.1414 4.89329 18.0387 4.8337C17.9359 4.77412 17.8143 4.75629 17.6988 4.7839C17.5833 4.8115 17.4828 4.88243 17.4181 4.98202L17.0461 5.62402C16.9851 5.73057 16.9682 5.85678 16.999 5.97564C17.0298 6.0945 17.106 6.19657 17.2111 6.26002ZM20.7101 14.753L20.0681 14.382C20.0154 14.3461 19.9559 14.3214 19.8932 14.3095C19.8306 14.2977 19.7662 14.2989 19.704 14.3131C19.6418 14.3273 19.5833 14.3542 19.532 14.3921C19.4807 14.4299 19.4378 14.478 19.4059 14.5333C19.3741 14.5885 19.354 14.6498 19.3469 14.7131C19.3399 14.7765 19.346 14.8407 19.3649 14.9016C19.3838 14.9625 19.415 15.0188 19.4567 15.0671C19.4984 15.1153 19.5496 15.1545 19.6071 15.182L20.2501 15.552C20.3557 15.6058 20.4779 15.617 20.5915 15.5833C20.705 15.5495 20.8013 15.4734 20.8604 15.3707C20.9194 15.268 20.9368 15.1465 20.9088 15.0313C20.8808 14.9162 20.8097 14.8172 20.7101 14.753ZM21.4571 11.049H20.7141C20.591 11.049 20.473 11.0979 20.386 11.1849C20.299 11.2719 20.2501 11.39 20.2501 11.513C20.2501 11.6361 20.299 11.7541 20.386 11.8411C20.473 11.9281 20.591 11.977 20.7141 11.977H21.4571C21.5802 11.977 21.6982 11.9281 21.7852 11.8411C21.8722 11.7541 21.9211 11.6361 21.9211 11.513C21.9211 11.39 21.8722 11.2719 21.7852 11.1849C21.6982 11.0979 21.5802 11.049 21.4571 11.049ZM7.64309 8.27502L8.28609 8.64702C8.39134 8.69743 8.51175 8.70624 8.62322 8.67168C8.73468 8.63711 8.82899 8.56173 8.88726 8.46062C8.94552 8.3595 8.96346 8.24011 8.93747 8.12634C8.91148 8.01257 8.84348 7.91281 8.74709 7.84702L8.10009 7.47302C7.99354 7.41262 7.8675 7.39659 7.74922 7.4284C7.63095 7.46022 7.52996 7.53732 7.46809 7.64302C7.43758 7.69588 7.41791 7.75429 7.4102 7.81484C7.40249 7.87538 7.40691 7.93686 7.4232 7.99568C7.43948 8.0545 7.46732 8.10949 7.50507 8.15745C7.54282 8.20541 7.58974 8.24537 7.64309 8.27502ZM10.5071 6.08402C10.5346 6.14153 10.5738 6.19273 10.622 6.23441C10.6703 6.27609 10.7266 6.30736 10.7875 6.32624C10.8484 6.34513 10.9126 6.35123 10.976 6.34416C11.0393 6.3371 11.1006 6.31701 11.1558 6.28518C11.2111 6.25334 11.2592 6.21043 11.2971 6.15914C11.3349 6.10785 11.3618 6.04929 11.376 5.98712C11.3902 5.92496 11.3914 5.86053 11.3796 5.79787C11.3677 5.73522 11.343 5.67569 11.3071 5.62302L10.9361 4.98102C10.9076 4.92521 10.8682 4.87577 10.82 4.83571C10.7719 4.79564 10.7161 4.76577 10.656 4.74794C10.596 4.7301 10.533 4.72465 10.4708 4.73193C10.4085 4.73921 10.3485 4.75907 10.2942 4.79029C10.2399 4.82151 10.1925 4.86345 10.1549 4.91355C10.1173 4.96365 10.0903 5.02087 10.0755 5.08174C10.0607 5.1426 10.0585 5.20584 10.0689 5.2676C10.0793 5.32937 10.1022 5.38837 10.1361 5.44102L10.5071 6.08402ZM14.1771 5.44102C14.238 5.44102 14.2984 5.42902 14.3547 5.4057C14.4109 5.38238 14.4621 5.3482 14.5052 5.30512C14.5483 5.26203 14.5825 5.21088 14.6058 5.15458C14.6291 5.09829 14.6411 5.03795 14.6411 4.97702V4.23402C14.6411 4.11096 14.5922 3.99294 14.5052 3.90592C14.4182 3.81891 14.3001 3.77002 14.1771 3.77002C14.054 3.77002 13.936 3.81891 13.849 3.90592C13.762 3.99294 13.7131 4.11096 13.7131 4.23402V4.97702C13.7131 5.10008 13.762 5.2181 13.849 5.30512C13.936 5.39213 14.054 5.44102 14.1771 5.44102ZM14.2171 14.078C14.9295 14.0786 15.6175 14.3379 16.1531 14.8077C16.6887 15.2775 17.0356 15.9257 17.1291 16.632L17.1701 16.956H17.5001C17.8815 16.9739 18.2418 17.1366 18.5074 17.4109C18.7731 17.6852 18.9241 18.0505 18.9297 18.4323C18.9353 18.8141 18.7951 19.1837 18.5376 19.4657C18.2802 19.7477 17.9248 19.9209 17.5441 19.95H4.30009C3.71986 19.9437 3.16525 19.7101 2.75542 19.2993C2.34558 18.8885 2.11321 18.3334 2.10824 17.7532C2.10326 17.1729 2.32607 16.6139 2.7288 16.1961C3.13154 15.7784 3.68206 15.5353 4.26209 15.519L4.60409 15.513L4.62609 15.172C4.69505 14.1531 5.11042 13.1885 5.80323 12.4382C6.49605 11.688 7.42463 11.1973 8.43481 11.0475C9.44499 10.8978 10.476 11.0981 11.3566 11.6152C12.2373 12.1322 12.9146 12.9349 13.2761 13.89L13.3861 14.183L13.6941 14.123C13.8668 14.0928 14.0418 14.0777 14.2171 14.078Z" fill="black"/>
</g>
</svg>
