<svg width="22" height="22" viewBox="0 0 22 22" fill="none" xmlns="http://www.w3.org/2000/svg">
<path id="tooltip/default" d="M3.35817 18.9122C2.30756 17.8975 1.46955 16.6837 0.893055 15.3416C0.316556 13.9996 0.0131073 12.5562 0.000415324 11.0956C-0.0122767 9.63501 0.266042 8.18654 0.819132 6.83468C1.37222 5.48282 2.18901 4.25465 3.22183 3.22183C4.25465 2.18901 5.48282 1.37222 6.83468 0.819132C8.18654 0.266042 9.63501 -0.0122767 11.0956 0.000415324C12.5562 0.0131073 13.9996 0.316556 15.3416 0.893055C16.6837 1.46955 17.8975 2.30756 18.9122 3.35817C20.9159 5.43279 22.0246 8.21142 21.9996 11.0956C21.9745 13.9797 20.8177 16.7387 18.7782 18.7782C16.7387 20.8177 13.9797 21.9745 11.0956 21.9996C8.21142 22.0246 5.43279 20.9159 3.35817 18.9122ZM17.3612 17.3612C19.0124 15.7099 19.9401 13.4704 19.9401 11.1352C19.9401 8.79997 19.0124 6.56041 17.3612 4.90917C15.7099 3.25793 13.4704 2.33028 11.1352 2.33028C8.79997 2.33028 6.56041 3.25793 4.90917 4.90917C3.25793 6.56041 2.33028 8.79997 2.33028 11.1352C2.33028 13.4704 3.25793 15.7099 4.90917 17.3612C6.56041 19.0124 8.79997 19.9401 11.1352 19.9401C13.4704 19.9401 15.7099 19.0124 17.3612 17.3612ZM10.0352 5.63517H12.2352V12.2352H10.0352V5.63517ZM10.0352 14.4352H12.2352V16.6352H10.0352V14.4352Z" fill="#524F4F"/>
</svg>
