<svg width="48" height="31" viewBox="0 0 48 31" fill="none" xmlns="http://www.w3.org/2000/svg">
<g id="language_btn">
<path id="language/default" d="M28.5 15.5C28.5 18.2848 27.3938 20.9555 25.4246 22.9246C23.4555 24.8938 20.7848 26 18 26M28.5 15.5C28.5 12.7152 27.3938 10.0445 25.4246 8.07538C23.4555 6.10625 20.7848 5 18 5M28.5 15.5C28.5 18.1767 23.7992 20.3462 18 20.3462C12.2008 20.3462 7.5 18.1767 7.5 15.5M28.5 15.5C28.5 12.8233 23.7992 10.6538 18 10.6538C12.2008 10.6538 7.5 12.8233 7.5 15.5M18 26C15.2152 26 12.5445 24.8938 10.5754 22.9246C8.60625 20.9555 7.5 18.2848 7.5 15.5M18 26C20.6767 26 22.8462 21.2992 22.8462 15.5C22.8462 9.70077 20.6767 5 18 5M18 26C15.3233 26 13.1538 21.2992 13.1538 15.5C13.1538 9.70077 15.3233 5 18 5M18 5C15.2152 5 12.5445 6.10625 10.5754 8.07538C8.60625 10.0445 7.5 12.7152 7.5 15.5" stroke="#0F1035"/>
<path id="arrow_down" fill-rule="evenodd" clip-rule="evenodd" d="M36.6112 17.8012L33.5 13.9601L34.2777 13L37 16.361L39.7223 13L40.5 13.9601L37.3888 17.8012C37.2857 17.9285 37.1458 18 37 18C36.8542 18 36.7143 17.9285 36.6112 17.8012Z" fill="#0F1035"/>
</g>
</svg>
