<svg width="18" height="25" viewBox="0 0 18 25" fill="none" xmlns="http://www.w3.org/2000/svg">
<path id="down" d="M2.45106 14.8469C2.32147 14.7052 2.1652 14.5915 1.99157 14.5127C1.81794 14.4339 1.6305 14.3915 1.44045 14.3881C1.25039 14.3846 1.06161 14.4203 0.885354 14.4928C0.709102 14.5654 0.548995 14.6733 0.414583 14.8103C0.280172 14.9473 0.17421 15.1104 0.103019 15.29C0.0318281 15.4696 -0.00313304 15.662 0.000220291 15.8557C0.00357362 16.0493 0.0451727 16.2403 0.122537 16.4173C0.199901 16.5942 0.311445 16.7534 0.450514 16.8855L7.99973 24.5782C8.26513 24.8483 8.6249 25 9 25C9.3751 25 9.73487 24.8483 10.0003 24.5782L17.5495 16.8855C17.6886 16.7534 17.8001 16.5942 17.8775 16.4173C17.9548 16.2403 17.9964 16.0493 17.9998 15.8557C18.0031 15.662 17.9682 15.4696 17.897 15.29C17.8258 15.1104 17.7198 14.9473 17.5854 14.8103C17.451 14.6733 17.2909 14.5654 17.1146 14.4928C16.9384 14.4203 16.7496 14.3846 16.5596 14.3881C16.3695 14.3915 16.1821 14.4339 16.0084 14.5127C15.8348 14.5915 15.6785 14.7052 15.5489 14.8469L10.4155 20.0779V1.44238C10.4155 1.05984 10.2663 0.692963 10.0009 0.422462C9.73544 0.151964 9.37541 0 9 0C8.62459 0 8.26456 0.151964 7.99911 0.422462C7.73365 0.692963 7.58452 1.05984 7.58452 1.44238V20.0779L2.45106 14.8469Z" fill="#0F1035"/>
</svg>
