<svg width="17" height="26" viewBox="0 0 17 26" fill="none" xmlns="http://www.w3.org/2000/svg">
<path id="current_location" d="M8.4547 0C3.78348 0 5.68274e-06 4.14587 5.68274e-06 9.26076C-0.00210799 11.2604 0.585457 13.2032 1.68034 14.8034L7.10191 25.0923C7.13362 25.1585 7.1654 25.2246 7.20344 25.2861L7.21609 25.3097L7.22034 25.3073C7.35985 25.5224 7.54576 25.6973 7.76347 25.8178C7.97906 25.9384 8.21799 26.0023 8.45895 25.9999C8.92608 25.9999 9.33186 25.7683 9.61087 25.409L9.6257 25.4185L9.68066 25.3168C9.75887 25.1986 9.82861 25.0733 9.87933 24.9362L15.1931 14.8553C16.3091 13.2481 16.9115 11.2817 16.9094 9.26076C16.9094 4.14587 13.1259 0 8.4547 0ZM8.37019 13.9573C6.07052 13.9573 4.20619 11.915 4.20619 9.39305C4.20619 6.87342 6.07052 4.83127 8.37019 4.83127C10.672 4.83127 12.5363 6.87342 12.5363 9.39305C12.5363 11.9127 10.672 13.9573 8.37019 13.9573Z" fill="#F00E0E"/>
</svg>
