<svg width="16" height="23" viewBox="0 0 16 23" fill="none" xmlns="http://www.w3.org/2000/svg">
<path id="Vector" d="M7.99998 0C3.57999 0 5.37711e-06 3.56587 5.37711e-06 7.9652C-0.00199462 9.68508 0.553969 11.3561 1.58997 12.7324L6.71995 21.582C6.74995 21.6389 6.78002 21.6958 6.81602 21.7486L6.82799 21.769L6.83201 21.7668C6.96401 21.9518 7.13993 22.1023 7.34593 22.206C7.54993 22.3097 7.77601 22.3646 8.00401 22.3626C8.44601 22.3626 8.82997 22.1633 9.09397 21.8543L9.10801 21.8625L9.16001 21.775C9.23401 21.6734 9.3 21.5656 9.348 21.4477L14.3759 12.7771C15.4319 11.3947 16.002 9.70338 16 7.9652C16 3.56587 12.42 0 7.99998 0ZM7.92002 12.0047C5.74403 12.0047 3.97997 10.2482 3.97997 8.07898C3.97997 5.91185 5.74403 4.15538 7.92002 4.15538C10.098 4.15538 11.862 5.91185 11.862 8.07898C11.862 10.2461 10.098 12.0047 7.92002 12.0047Z" fill="#670B85"/>
</svg>
