<svg width="118" height="106" viewBox="0 0 118 106" fill="none" xmlns="http://www.w3.org/2000/svg">
<path d="M0.5354 52.6479C0.5354 81.6184 26.6203 105.104 58.7972 105.104C90.9744 105.104 117.059 81.6184 117.059 52.6479C117.059 23.6774 90.9744 0.192017 58.7972 0.192017C26.6203 0.192017 0.5354 23.6774 0.5354 52.6479Z" fill="#788795"/>
<path d="M20.5017 13.3693C20.5017 13.3693 27.2566 17.044 25.8493 19.3248C24.442 21.6053 19.9389 25.5331 19.9389 25.5331C19.9389 25.5331 17.7573 24.6777 17.7573 23.6798C17.7573 22.682 17.5465 21.1618 16.4382 21.3519C15.3299 21.542 16.8075 24.2027 16.9131 24.5829C17.0187 24.9631 15.541 25.2482 14.7495 25.3906C13.9579 25.5331 13.0607 24.6779 12.1106 25.0581C11.1609 25.438 8.15272 29.3343 9.1025 29.6194C10.0526 29.9046 11.9524 30.3795 10.6857 31.2823C9.4192 32.1851 12.7967 31.5672 13.2189 31.9473C13.6412 32.3275 16.8602 33.1353 16.5438 33.3727C16.2271 33.6102 16.4382 35.9863 17.2298 35.8439C18.0214 35.7012 17.1242 33.373 17.9684 33.1355C18.8129 32.8978 20.0794 32.7077 19.9212 31.5674C19.7627 30.4272 18.3381 28.4315 19.9212 28.099C21.5044 27.7665 28.0482 30.9974 28.3649 32.1377C28.6816 33.278 30.3174 35.2734 30.7926 35.9861C31.2675 36.6988 33.8007 38.3619 30.8981 39.6925C27.9956 41.0229 23.1931 42.4957 22.8764 42.2108C22.5597 41.9257 20.5543 43.9687 19.0241 46.9146C17.4935 49.8604 16.8602 50.4307 14.4854 50.4307C12.1106 50.4307 9.47213 49.9081 8.36385 52.0462C7.25557 54.1842 7.25557 56.5601 8.41648 56.6551C9.57769 56.7502 10.8968 55.4672 12.058 55.5146C13.2189 55.5623 13.7467 57.5579 13.7467 58.0329C13.7467 58.5081 18.4963 62.1664 18.2851 62.6416C18.074 63.1168 13.1663 60.1233 11.794 59.363C10.4219 58.6029 4.08923 57.8428 3.87811 57.5103C3.66698 57.1777 0.606201 55.2771 0.606201 54.6118C0.606201 53.9468 0.953996 45.9243 1.76711 41.7356C2.71689 36.8415 7.99423 26.1033 12.2691 20.9244C16.5438 15.7451 20.5017 13.3693 20.5017 13.3693Z" fill="white"/>
<path d="M23.4569 94.302C23.4569 94.302 23.7736 90.3424 24.5123 90.2474C25.2512 90.1526 26.4118 89.0126 27.1508 88.252C27.8897 87.4919 29.5788 84.9262 31.2675 84.2609C32.9562 83.5956 33.3779 79.8894 34.4335 79.1291C35.4889 78.369 40.1334 77.4185 40.239 76.6584C40.3446 75.8981 42.5605 67.8209 40.7662 67.6308C38.9719 67.4407 36.2281 66.4906 34.9617 66.0154C33.6949 65.5404 24.7234 61.5491 22.5071 61.5491C20.2906 61.5491 18.1796 62.2144 17.8629 64.59C17.5462 66.9658 18.4963 71.4318 19.6572 72.5721C20.8181 73.7126 23.8792 73.5228 23.7736 75.5182C23.668 77.5138 21.5571 82.36 21.3459 83.8805C21.1348 85.4009 19.9739 91.5783 19.9739 91.5783L23.4569 94.302Z" fill="white"/>
<path d="M70.9527 84.451C70.9527 84.451 71.0149 84.5668 71.1211 84.7547C71.6002 85.6042 72.9671 87.9326 73.4854 87.777C74.1188 87.5867 76.8634 84.0708 77.391 82.1702C77.9188 80.2699 75.8078 77.7039 78.4466 76.7538C81.0851 75.8033 82.6683 76.4686 83.0906 75.1383C83.5128 73.8079 83.9351 72.0023 83.0906 70.9569C82.2463 69.9116 82.6683 67.916 83.5128 67.2509C84.357 66.5856 86.6788 65.0652 87.7342 64.115C88.7898 63.1646 90.2677 60.9788 89.6344 60.3138C89.0013 59.6485 85.2015 60.2187 85.5182 59.6485C85.8349 59.0785 83.6184 54.707 83.6184 54.707C83.6184 54.707 86.2569 58.128 87.4181 58.128C88.579 58.128 94.0675 56.6076 93.6452 55.7524C93.223 54.897 93.4341 54.802 91.9565 53.3766C90.4789 51.9512 87.4181 51.001 86.5736 49.9555C85.7294 48.9103 85.7294 47.3899 85.7294 47.3899L94.4897 52.9964L98.2895 52.9014C98.2895 52.9014 97.6561 54.327 99.1337 54.9921C100.611 55.6574 100.611 54.707 101.034 56.6076C101.456 58.5082 102.933 63.3546 104.2 63.1646C105.466 62.9745 105.466 61.5491 105.466 59.9336C105.466 58.3181 107.05 56.1323 108.316 55.9425C109.582 55.7524 113.277 57.0828 113.594 58.5082C113.91 59.9336 114.649 61.8342 114.649 62.1193C114.649 62.4045 113.91 64.3048 113.91 64.3048L114.86 65.9203C114.86 65.9203 116.865 61.1215 116.654 57.9379C116.443 54.7546 113.699 53.5667 113.752 51.9989C113.804 50.4308 115.229 47.58 116.654 46.7246C116.654 46.7246 115.155 38.729 113.699 35.2261C111.93 30.9701 106.032 20.4167 103.092 18.7387L98.5529 16.1254C98.5529 16.1254 96.6534 17.6458 95.9144 17.5984C95.1757 17.5508 91.6398 13.6548 92.062 12.3718C92.4843 11.0888 90.7956 10.2337 90.1622 11.0888C89.5288 11.9442 91.0067 15.983 91.0067 15.983L94.2257 18.0737L84.7793 19.0238L84.9904 20.6867C84.9904 20.6867 77.391 15.8403 75.6496 15.8403C73.9079 15.8403 69.8971 18.4062 69.6333 19.7839C69.3695 21.1619 69.5277 24.3455 69.5277 24.3455L63.5112 26.626L62.245 28.1941L63.5112 30.3322L65.728 30.6648L62.1394 35.8914L58.2868 29.0019L55.1734 34.6084C55.1734 34.6084 61.242 38.4571 60.8197 39.4075C60.3978 40.3577 60.2396 42.9236 59.1313 42.7335C58.0233 42.5434 55.7538 42.6859 55.7538 42.6859L57.2311 46.3447C57.2311 46.3447 59.5009 47.8174 60.2396 46.202C60.9785 44.5865 60.0284 43.8738 63.1951 42.7335C66.3614 41.593 68.1025 42.4958 68.1025 42.4958L69.7389 46.392L71.744 44.254C71.744 44.254 72.3777 46.7722 73.1163 46.7246C73.8553 46.6772 74.1191 45.0617 75.4385 45.5369C76.7579 46.0119 77.9714 46.0119 79.0797 46.392C80.188 46.7722 80.9796 47.7701 80.9796 47.7701C80.9796 47.7701 80.9266 51.476 77.9711 50.6682C75.0159 49.8605 71.8496 47.5323 71.5855 48.4828C71.3217 49.4329 69.9497 49.5756 69.9497 49.5756C69.9497 49.5756 66.9419 48.6728 66.7307 47.9601C66.5196 47.2472 66.1503 46.3447 66.1503 46.3447C66.1503 46.3447 63.4585 46.2496 61.8754 47.0574C60.2922 47.8651 57.9701 47.9125 58.1283 47.6274C58.2868 47.3422 57.4422 47.1047 56.3869 48.9103C55.3316 50.7159 55.1207 50.8583 54.3291 51.9038C53.5376 52.949 52.693 52.3314 52.4293 54.137C52.1652 55.9425 53.4846 60.8364 54.4347 61.9766C55.3845 63.1172 58.8675 63.1172 60.7674 63.1172C62.6672 63.1172 65.042 62.1667 66.0447 63.6398C67.0474 65.1126 67.0474 66.2531 67.0474 67.6308C67.0474 69.0088 68.1557 68.5813 68.4195 70.1491C68.6835 71.7172 67.4697 73.0476 67.4168 74.2355C67.3641 75.4234 70.9527 84.451 70.9527 84.451Z" fill="white"/>
</svg>
