<svg width="83" height="60" viewBox="0 0 83 60" fill="none" xmlns="http://www.w3.org/2000/svg">
<path d="M50.5649 16.8874L62.9989 23.3513V16.8874L50.5649 10.4236V16.8874Z" fill="#5F6871"/>
<path d="M69.216 13.6552V20.1195L62.9988 23.3513V16.8875L69.216 13.6552Z" fill="#4C535B"/>
<path d="M62.9994 16.8872L69.216 13.6551L56.7824 7.19153L50.5654 10.4236L62.9994 16.8872Z" fill="#788795"/>
<path d="M50.5649 10.4236V11.0329L62.9989 17.465V16.8874L50.5649 10.4236Z" fill="#788795"/>
<path d="M50.5649 16.3097V16.919L62.9989 23.3511V22.7735L50.5649 16.3097Z" fill="#788795"/>
<path d="M50.5654 10.4236V16.9189L51.1737 17.234V10.74L50.5654 10.4236Z" fill="#788795"/>
<path d="M62.3889 16.8875V22.942L62.9978 23.2358V17.1825L62.3889 16.8875Z" fill="#788795"/>
<path d="M62.999 16.8873V17.4651L69.2157 14.2334V13.6553L62.999 16.8873Z" fill="#646D76"/>
<path d="M62.999 22.7734V23.3515L69.2157 20.1194V19.5416L62.999 22.7734Z" fill="#656D75"/>
<path d="M62.999 17.465L63.6103 17.147V23.0333L62.999 23.351V17.465Z" fill="#646D76"/>
<path d="M68.604 14.4496L69.2159 14.1316V20.0176L68.604 20.3356V14.4496Z" fill="#646D76"/>
<path d="M51.9778 10.5245L57.0042 7.92922L56.7868 7.81641L51.793 10.4235L51.9778 10.5245Z" fill="#5F6871"/>
<path d="M67.8347 13.7697L68.0366 13.6645L56.7872 7.81665L56.562 7.93404L67.8347 13.7697Z" fill="#5F6871"/>
<path d="M51.1738 11.7916L62.3826 17.6015L62.3888 17.1494L51.1738 11.3479V11.6478V16.6263L51.3045 16.6938V11.7001L51.1738 11.7916Z" fill="#4B5157"/>
<path d="M63.6104 17.6017L68.6039 15.0081V14.5511L63.6104 17.1472V17.6017Z" fill="#20262B"/>
<path d="M68.3582 14.7329V19.9875L68.604 19.8597V14.5511L68.3582 14.7329Z" fill="#17263A"/>
<path d="M51.4202 11.8691V16.7541L51.1738 16.6262V11.7919L51.4202 11.8691Z" fill="#494E54"/>
<path d="M51.1719 10.1078L50.5654 10.4236L62.9994 16.8875L63.6106 16.5695L51.1719 10.1078Z" fill="#93A1AD"/>
<path d="M56.7772 7.18018L56.1704 7.496L68.6044 13.9599L69.2162 13.6551L56.7772 7.18018Z" fill="#93A1AD"/>
<path d="M62.3828 16.5789L62.9992 16.8874L69.2161 13.6556L68.6046 13.3376L62.3828 16.5789Z" fill="#93A1AD"/>
<path d="M50.5649 10.434L51.1816 10.7429L57.3983 7.49681L56.7888 7.18018L50.5649 10.434Z" fill="#93A1AD"/>
<path d="M63.6609 24.0023L76.0948 30.4662V24.0023L63.6609 17.5385V24.0023Z" fill="#5F6871"/>
<path d="M82.3122 20.7708V27.2346L76.095 30.4664V24.0025L82.3122 20.7708Z" fill="#4C535B"/>
<path d="M76.0951 24.0023L82.3117 20.7708L69.8781 14.3066L63.6611 17.5387L76.0951 24.0023Z" fill="#788795"/>
<path d="M63.6609 17.5387V18.148L76.0948 24.5801V24.0025L63.6609 17.5387Z" fill="#788795"/>
<path d="M63.6609 23.4248V24.0341L76.0948 30.4662V29.8887L63.6609 23.4248Z" fill="#788795"/>
<path d="M63.6609 17.5387V24.034L64.2698 24.3491V17.8553L63.6609 17.5387Z" fill="#788795"/>
<path d="M75.4849 24.0023V30.0569L76.0931 30.3507V24.2974L75.4849 24.0023Z" fill="#788795"/>
<path d="M76.0952 24.0023V24.5804L82.3119 21.3483V20.7705L76.0952 24.0023Z" fill="#646D76"/>
<path d="M76.0952 29.8884V30.4665L82.3119 27.2344V26.6566L76.0952 29.8884Z" fill="#656D75"/>
<path d="M76.095 24.5801L76.7068 24.2621V30.1484L76.095 30.4661V24.5801Z" fill="#646D76"/>
<path d="M81.7004 21.5648L82.3117 21.2468V27.1329L81.7004 27.4509V21.5648Z" fill="#646D76"/>
<path d="M65.0734 17.6396L70.1002 15.0443L69.8828 14.9315L64.8889 17.5387L65.0734 17.6396Z" fill="#5F6871"/>
<path d="M80.9302 20.8846L81.1321 20.7793L69.8827 14.9315L69.6575 15.0489L80.9302 20.8846Z" fill="#5F6871"/>
<path d="M64.2695 18.9067L75.4783 24.7166L75.4845 24.2645L64.2695 18.463V18.763V23.7414L64.3999 23.8089V18.8152L64.2695 18.9067Z" fill="#4B5157"/>
<path d="M76.7065 24.717L81.7001 22.1233V21.6664L76.7065 24.2625V24.717Z" fill="#20262B"/>
<path d="M81.4543 21.8478V27.1027L81.7005 26.9745V21.666L81.4543 21.8478Z" fill="#17263A"/>
<path d="M64.5154 18.9844V23.8694L64.2695 23.7415V18.9071L64.5154 18.9844Z" fill="#494E54"/>
<path d="M64.2677 17.2228L63.6609 17.5386L76.0948 24.0025L76.7067 23.6845L64.2677 17.2228Z" fill="#93A1AD"/>
<path d="M69.8728 14.2953L69.2664 14.6111L81.7003 21.075L82.3116 20.7707L69.8728 14.2953Z" fill="#93A1AD"/>
<path d="M75.4785 23.6937L76.0949 24.0023L82.3118 20.7705L81.7003 20.4525L75.4785 23.6937Z" fill="#93A1AD"/>
<path d="M63.6611 17.5492L64.2775 17.858L70.4944 14.6119L69.8847 14.2953L63.6611 17.5492Z" fill="#93A1AD"/>
<path d="M43.3398 20.5414L55.7738 27.0055V20.5414L43.3398 14.0773V20.5414Z" fill="#5F6871"/>
<path d="M61.991 17.3096V23.7737L55.7737 27.0058V20.5419L61.991 17.3096Z" fill="#4C535B"/>
<path d="M55.774 20.5415L61.9907 17.3094L49.5571 10.8458L43.3401 14.0773L55.774 20.5415Z" fill="#788795"/>
<path d="M43.3398 14.0775V14.6868L55.7738 21.1194V20.5419L43.3398 14.0775Z" fill="#788795"/>
<path d="M43.3398 19.9636V20.5729L55.7738 27.0056V26.428L43.3398 19.9636Z" fill="#788795"/>
<path d="M43.3398 14.0775V20.5729L43.9487 20.8879V14.3942L43.3398 14.0775Z" fill="#788795"/>
<path d="M55.1636 20.5414V26.596L55.7724 26.8897V20.8365L55.1636 20.5414Z" fill="#788795"/>
<path d="M55.7739 20.5416V21.1194L61.9906 17.8874V17.3096L55.7739 20.5416Z" fill="#646D76"/>
<path d="M55.7739 26.4276V27.0054L61.9906 23.7734V23.1956L55.7739 26.4276Z" fill="#656D75"/>
<path d="M55.7737 21.1191L56.3855 20.8011V26.6872L55.7737 27.0052V21.1191Z" fill="#646D76"/>
<path d="M61.3789 18.1039L61.9908 17.7859V23.6722L61.3789 23.9899V18.1039Z" fill="#646D76"/>
<path d="M44.7524 14.1784L49.7791 11.5834L49.5617 11.4703L44.5679 14.0775L44.7524 14.1784Z" fill="#5F6871"/>
<path d="M60.6093 17.4238L60.8111 17.3188L49.5617 11.4707L49.3359 11.5881L60.6093 17.4238Z" fill="#5F6871"/>
<path d="M43.949 15.4462L55.1571 21.2561L55.1634 20.8035L43.949 15.002V15.3022V20.2803L44.0791 20.3482V15.3544L43.949 15.4462Z" fill="#4B5157"/>
<path d="M56.3855 21.256L61.3785 18.6626V18.2054L56.3855 20.8015V21.256Z" fill="#20262B"/>
<path d="M61.1328 18.3869V23.6419L61.3786 23.514V18.2052L61.1328 18.3869Z" fill="#17263A"/>
<path d="M44.1943 15.5237V20.4087L43.9485 20.2808V15.4464L44.1943 15.5237Z" fill="#494E54"/>
<path d="M43.9466 13.7622L43.3398 14.0778L55.7738 20.5419L56.3856 20.2236L43.9466 13.7622Z" fill="#93A1AD"/>
<path d="M49.5518 10.8347L48.9453 11.15L61.3787 17.6139L61.9905 17.3096L49.5518 10.8347Z" fill="#93A1AD"/>
<path d="M55.1575 20.233L55.7738 20.5416L61.9908 17.3098L61.3792 16.9918L55.1575 20.233Z" fill="#93A1AD"/>
<path d="M43.3398 14.0886L43.9562 14.3969L50.1732 11.1514L49.5634 10.8347L43.3398 14.0886Z" fill="#93A1AD"/>
<path d="M56.6616 27.6565L69.0956 34.1206V27.6565L56.6616 21.1924V27.6565Z" fill="#5F6871"/>
<path d="M75.3125 24.4244V30.8886L69.0952 34.1206V27.6568L75.3125 24.4244Z" fill="#4C535B"/>
<path d="M69.0956 27.6566L75.3122 24.4245L62.8786 17.9609L56.6616 21.1925L69.0956 27.6566Z" fill="#788795"/>
<path d="M56.6616 21.1924V21.8017L69.0956 28.2343V27.6568L56.6616 21.1924Z" fill="#788795"/>
<path d="M56.6616 27.079V27.6883L69.0956 34.1204V33.5428L56.6616 27.079Z" fill="#788795"/>
<path d="M56.6616 21.1926V27.6882L57.2699 28.003V21.5093L56.6616 21.1926Z" fill="#788795"/>
<path d="M68.4849 27.6566V33.7112L69.0937 34.005V27.9517L68.4849 27.6566Z" fill="#788795"/>
<path d="M69.0955 27.6569V28.2347L75.3121 25.0026V24.4248L69.0955 27.6569Z" fill="#646D76"/>
<path d="M69.0955 33.5429V34.1207L75.3121 30.8886V30.3108L69.0955 33.5429Z" fill="#656D75"/>
<path d="M69.0955 28.2344L69.7067 27.9164V33.8027L69.0955 34.1204V28.2344Z" fill="#646D76"/>
<path d="M74.7007 25.219L75.3125 24.901V30.7873L74.7007 31.105V25.219Z" fill="#646D76"/>
<path d="M58.0742 21.2937L63.1007 18.6987L62.8833 18.5856L57.8894 21.1927L58.0742 21.2937Z" fill="#5F6871"/>
<path d="M73.9312 24.5389L74.133 24.4339L62.8836 18.5858L62.6584 18.7032L73.9312 24.5389Z" fill="#5F6871"/>
<path d="M57.2698 22.5613L68.4785 28.3712L68.4848 27.9186L57.2698 22.1171V22.4173V27.3954L57.4005 27.4633V22.4695L57.2698 22.5613Z" fill="#4B5157"/>
<path d="M69.7073 28.3711L74.7008 25.7775V25.3206L69.7073 27.9164V28.3711Z" fill="#20262B"/>
<path d="M74.4548 25.502V30.757L74.7007 30.6291V25.3206L74.4548 25.502Z" fill="#17263A"/>
<path d="M57.5159 22.6389V27.5239L57.2698 27.396V22.5616L57.5159 22.6389Z" fill="#494E54"/>
<path d="M57.2681 20.8773L56.6616 21.1929L69.0956 27.657L69.7068 27.3387L57.2681 20.8773Z" fill="#93A1AD"/>
<path d="M62.8734 17.9498L62.2666 18.2651L74.7005 24.729L75.3124 24.4247L62.8734 17.9498Z" fill="#93A1AD"/>
<path d="M68.4792 27.3483L69.0956 27.6568L75.3126 24.425L74.701 24.1071L68.4792 27.3483Z" fill="#93A1AD"/>
<path d="M56.6616 21.2035L57.278 21.5123L63.4949 18.2662L62.8855 17.9496L56.6616 21.2035Z" fill="#93A1AD"/>
<path d="M36.1201 24.2008L48.5541 30.6646V24.2008L36.1201 17.7369V24.2008Z" fill="#5F6871"/>
<path d="M54.7706 20.969V27.4328L48.554 30.6646V24.2008L54.7706 20.969Z" fill="#4C535B"/>
<path d="M48.5541 24.2004L54.7707 20.9689L42.3371 14.5048L36.1201 17.7368L48.5541 24.2004Z" fill="#788795"/>
<path d="M36.1201 17.7369V18.3462L48.5541 24.7783V24.2008L36.1201 17.7369Z" fill="#788795"/>
<path d="M36.1201 23.6229V24.2322L48.5541 30.6643V30.0868L36.1201 23.6229Z" fill="#788795"/>
<path d="M36.1204 17.7369V24.2323L36.7286 24.5473V18.0536L36.1204 17.7369Z" fill="#788795"/>
<path d="M47.9434 24.2007V30.2553L48.5522 30.549V24.4958L47.9434 24.2007Z" fill="#788795"/>
<path d="M48.554 24.2005V24.7786L54.7706 21.5466V20.9688L48.554 24.2005Z" fill="#646D76"/>
<path d="M48.554 30.0868V30.6648L54.7706 27.4328V26.855L48.554 30.0868Z" fill="#656D75"/>
<path d="M48.5544 24.7783L49.1657 24.4603V30.3466L48.5544 30.6644V24.7783Z" fill="#646D76"/>
<path d="M54.1594 21.7632L54.7707 21.4452V27.3312L54.1594 27.6492V21.7632Z" fill="#646D76"/>
<path d="M37.533 17.8379L42.5594 15.2426L42.342 15.1298L37.3481 17.7369L37.533 17.8379Z" fill="#5F6871"/>
<path d="M53.3899 21.0831L53.5918 20.9778L42.3424 15.13L42.1172 15.2474L53.3899 21.0831Z" fill="#5F6871"/>
<path d="M36.7283 19.105L47.937 24.9148L47.9433 24.4628L36.7283 18.6613V18.9612V23.9396L36.859 24.0072V19.0134L36.7283 19.105Z" fill="#4B5157"/>
<path d="M49.1658 24.9151L54.1593 22.3214V21.8645L49.1658 24.4606V24.9151Z" fill="#20262B"/>
<path d="M53.9133 22.0462V27.3009L54.1591 27.173V21.8645L53.9133 22.0462Z" fill="#17263A"/>
<path d="M36.9747 19.1827V24.0677L36.7283 23.9398V19.1055L36.9747 19.1827Z" fill="#494E54"/>
<path d="M36.7268 17.4214L36.1204 17.7372L48.5543 24.2011L49.1656 23.8831L36.7268 17.4214Z" fill="#93A1AD"/>
<path d="M42.3321 14.4938L41.7256 14.8096L54.1595 21.2735L54.7708 20.9692L42.3321 14.4938Z" fill="#93A1AD"/>
<path d="M47.9377 23.8922L48.5544 24.2008L54.7711 20.969L54.1595 20.651L47.9377 23.8922Z" fill="#93A1AD"/>
<path d="M36.1201 17.7474L36.7365 18.0562L42.9534 14.8102L42.344 14.4935L36.1201 17.7474Z" fill="#93A1AD"/>
<path d="M49.4417 31.3157L61.8756 37.78V31.3157L49.4417 24.8518V31.3157Z" fill="#5F6871"/>
<path d="M68.093 28.0839V34.548L61.8757 37.78V31.3159L68.093 28.0839Z" fill="#4C535B"/>
<path d="M61.8758 31.3156L68.0925 28.0841L55.6589 21.62L49.4419 24.8521L61.8758 31.3156Z" fill="#788795"/>
<path d="M49.4417 24.8521V25.4614L61.8756 31.8934V31.3159L49.4417 24.8521Z" fill="#788795"/>
<path d="M49.4417 30.7379V31.3472L61.8756 37.7798V37.202L49.4417 30.7379Z" fill="#788795"/>
<path d="M49.4417 24.8521V31.3474L50.0505 31.6624V25.1687L49.4417 24.8521Z" fill="#788795"/>
<path d="M61.2659 31.3158V37.3704L61.8741 37.6641V31.6109L61.2659 31.3158Z" fill="#788795"/>
<path d="M61.8757 31.3157V31.8937L68.0924 28.6617V28.0839L61.8757 31.3157Z" fill="#646D76"/>
<path d="M61.8757 37.2016V37.7797L68.0924 34.5477V33.9698L61.8757 37.2016Z" fill="#656D75"/>
<path d="M61.8757 31.8938L62.4876 31.5758V37.4619L61.8757 37.7798V31.8938Z" fill="#646D76"/>
<path d="M67.4807 28.8782L68.0926 28.5602V34.4462L67.4807 34.7642V28.8782Z" fill="#646D76"/>
<path d="M50.8542 24.9531L55.8809 22.3578L55.6635 22.245L50.6697 24.8521L50.8542 24.9531Z" fill="#5F6871"/>
<path d="M66.7112 28.1981L66.9131 28.0931L55.6637 22.245L55.4385 22.3624L66.7112 28.1981Z" fill="#5F6871"/>
<path d="M50.0505 26.2201L61.2593 32.0299L61.2655 31.5779L50.0505 25.7764V26.0763V31.0547L50.1809 31.1223V26.1285L50.0505 26.2201Z" fill="#4B5157"/>
<path d="M62.4875 32.0302L67.4805 29.4365V28.9796L62.4875 31.5757V32.0302Z" fill="#20262B"/>
<path d="M67.2346 29.1614V34.4163L67.4804 34.2881V28.9796L67.2346 29.1614Z" fill="#17263A"/>
<path d="M50.2966 26.2976V31.1826L50.0508 31.0547V26.2203L50.2966 26.2976Z" fill="#494E54"/>
<path d="M50.0484 24.5367L49.4417 24.852L61.8756 31.3159L62.4874 30.9979L50.0484 24.5367Z" fill="#93A1AD"/>
<path d="M55.6538 21.6088L55.0474 21.9246L67.4807 28.3884L68.0926 28.0842L55.6538 21.6088Z" fill="#93A1AD"/>
<path d="M61.2593 31.0073L61.8756 31.3159L68.0926 28.0841L67.4807 27.7661L61.2593 31.0073Z" fill="#93A1AD"/>
<path d="M49.4419 24.8626L50.0582 25.1715L56.2752 21.9257L55.6654 21.6088L49.4419 24.8626Z" fill="#93A1AD"/>
<path d="M29.2063 27.9894L41.6402 34.4532V27.9894L29.2063 21.5255V27.9894Z" fill="#5F6871"/>
<path d="M47.8574 24.7572V31.2216L41.6401 34.4534V27.9895L47.8574 24.7572Z" fill="#4C535B"/>
<path d="M41.6405 27.9893L47.8572 24.7573L35.4235 18.2937L29.2065 21.5258L41.6405 27.9893Z" fill="#788795"/>
<path d="M29.2063 21.5255V22.1348L41.6402 28.5669V27.9894L29.2063 21.5255Z" fill="#788795"/>
<path d="M29.2063 27.4119V28.0212L41.6402 34.4533V33.8757L29.2063 27.4119Z" fill="#788795"/>
<path d="M29.2065 21.5255V28.0209L29.8148 28.3359V21.8419L29.2065 21.5255Z" fill="#788795"/>
<path d="M41.0298 27.9894V34.044L41.6387 34.3377V28.2845L41.0298 27.9894Z" fill="#788795"/>
<path d="M41.6404 27.9893V28.5671L47.8571 25.335V24.7572L41.6404 27.9893Z" fill="#646D76"/>
<path d="M41.6404 33.8753V34.4534L47.8571 31.2214V30.6436L41.6404 33.8753Z" fill="#656D75"/>
<path d="M41.6404 28.5671L42.2516 28.2491V34.1355L41.6404 34.4532V28.5671Z" fill="#646D76"/>
<path d="M47.2454 25.5516L47.8572 25.2336V31.12L47.2454 31.4377V25.5516Z" fill="#646D76"/>
<path d="M30.6191 21.6265L35.6456 19.0312L35.4282 18.9181L30.4343 21.5255L30.6191 21.6265Z" fill="#5F6871"/>
<path d="M46.4759 24.8717L46.6777 24.7664L35.4283 18.9183L35.2031 19.036L46.4759 24.8717Z" fill="#5F6871"/>
<path d="M29.8147 22.8938L41.0234 28.7037L41.0297 28.2511L29.8147 22.4496V22.7501V27.7282L29.9454 27.7958V22.8023L29.8147 22.8938Z" fill="#4B5157"/>
<path d="M42.2517 28.7037L47.2453 26.11V25.6531L42.2517 28.2492V28.7037Z" fill="#20262B"/>
<path d="M46.9995 25.8348V31.0895L47.2453 30.9616V25.6531L46.9995 25.8348Z" fill="#17263A"/>
<path d="M30.0611 22.9713V27.8563L29.8147 27.7284V22.894L30.0611 22.9713Z" fill="#494E54"/>
<path d="M29.813 21.21L29.2065 21.5258L41.6405 27.9896L42.2517 27.6717L29.813 21.21Z" fill="#93A1AD"/>
<path d="M35.4183 18.2823L34.8115 18.5979L47.2455 25.062L47.8573 24.7572L35.4183 18.2823Z" fill="#93A1AD"/>
<path d="M41.0237 27.6808L41.64 27.9893L47.857 24.7576L47.2454 24.4396L41.0237 27.6808Z" fill="#93A1AD"/>
<path d="M29.2063 21.5362L29.8226 21.845L36.0396 18.599L35.4301 18.2823L29.2063 21.5362Z" fill="#93A1AD"/>
<path d="M42.3018 35.1045L54.7357 41.5683V35.1045L42.3018 28.6406V35.1045Z" fill="#5F6871"/>
<path d="M60.9534 31.8721V38.3365L54.7361 41.5683V35.1044L60.9534 31.8721Z" fill="#4C535B"/>
<path d="M54.7362 35.1042L60.9529 31.8722L48.5192 25.4086L42.3022 28.6406L54.7362 35.1042Z" fill="#788795"/>
<path d="M42.3018 28.6406V29.2499L54.7357 35.682V35.1045L42.3018 28.6406Z" fill="#788795"/>
<path d="M42.3018 34.5267V35.136L54.7357 41.5681V40.9906L42.3018 34.5267Z" fill="#788795"/>
<path d="M42.3018 28.6406V35.136L42.9106 35.451V28.957L42.3018 28.6406Z" fill="#788795"/>
<path d="M54.1262 35.1045V41.1591L54.7345 41.4528V35.3996L54.1262 35.1045Z" fill="#788795"/>
<path d="M54.7363 35.1045V35.6823L60.953 32.4505V31.8724L54.7363 35.1045Z" fill="#646D76"/>
<path d="M54.7363 40.9906V41.5687L60.953 38.3366V37.7588L54.7363 40.9906Z" fill="#656D75"/>
<path d="M54.7361 35.682L55.3479 35.364V41.2503L54.7361 41.568V35.682Z" fill="#646D76"/>
<path d="M60.3411 32.667L60.9529 32.349V38.235L60.3411 38.553V32.667Z" fill="#646D76"/>
<path d="M43.7145 28.7415L48.7413 26.1463L48.5239 26.0334L43.53 28.6406L43.7145 28.7415Z" fill="#5F6871"/>
<path d="M59.5716 31.9869L59.7734 31.8816L48.524 26.0338L48.2988 26.1512L59.5716 31.9869Z" fill="#5F6871"/>
<path d="M42.9109 30.009L54.1196 35.8189L54.1259 35.3668L42.9109 29.5653V29.8653V34.8437L43.0413 34.9112V29.9175L42.9109 30.009Z" fill="#4B5157"/>
<path d="M55.3479 35.8188L60.3409 33.2251V32.7682L55.3479 35.3643V35.8188Z" fill="#20262B"/>
<path d="M60.0955 32.9499V38.2046L60.3413 38.0767V32.7682L60.0955 32.9499Z" fill="#17263A"/>
<path d="M43.157 30.0866V34.9715L42.9111 34.8436V30.0093L43.157 30.0866Z" fill="#494E54"/>
<path d="M42.9085 28.3251L42.3018 28.6409L54.7357 35.1048L55.3476 34.7868L42.9085 28.3251Z" fill="#93A1AD"/>
<path d="M48.5142 25.3976L47.9077 25.7134L60.3411 32.1773L60.9529 31.8725L48.5142 25.3976Z" fill="#93A1AD"/>
<path d="M54.1196 34.796L54.736 35.1046L60.9529 31.8728L60.3411 31.5548L54.1196 34.796Z" fill="#93A1AD"/>
<path d="M42.3022 28.6515L42.9186 28.9603L49.1356 25.7142L48.5258 25.3976L42.3022 28.6515Z" fill="#93A1AD"/>
<path d="M21.9807 31.6433L34.4147 38.1077V31.6433L21.9807 25.1794V31.6433Z" fill="#5F6871"/>
<path d="M40.6321 28.4116V34.8757L34.4148 38.1078V31.6437L40.6321 28.4116Z" fill="#4C535B"/>
<path d="M34.4151 31.6433L40.6318 28.4115L28.1982 21.9476L21.9812 25.1794L34.4151 31.6433Z" fill="#788795"/>
<path d="M21.9807 25.1794V25.7888L34.4147 32.2214V31.6436L21.9807 25.1794Z" fill="#788795"/>
<path d="M21.9807 31.0656V31.6749L34.4147 38.1075V37.5299L21.9807 31.0656Z" fill="#788795"/>
<path d="M21.9807 25.1797V31.675L22.5896 31.9901V25.4963L21.9807 25.1797Z" fill="#788795"/>
<path d="M33.8047 31.6433V37.6982L34.4136 37.9917V31.9384L33.8047 31.6433Z" fill="#788795"/>
<path d="M34.415 31.6434V32.2215L40.6317 28.9894V28.4116L34.415 31.6434Z" fill="#646D76"/>
<path d="M34.415 37.5299V38.1077L40.6317 34.8757V34.2979L34.415 37.5299Z" fill="#656D75"/>
<path d="M34.4148 32.2211L35.0267 31.9031V37.7891L34.4148 38.1071V32.2211Z" fill="#646D76"/>
<path d="M40.02 29.2058L40.6319 28.8878V34.7741L40.02 35.0918V29.2058Z" fill="#646D76"/>
<path d="M23.3935 25.2807L28.4202 22.6857L28.2028 22.5726L23.209 25.1798L23.3935 25.2807Z" fill="#5F6871"/>
<path d="M39.2509 28.5257L39.4527 28.4207L28.2033 22.5726L27.9775 22.69L39.2509 28.5257Z" fill="#5F6871"/>
<path d="M22.5898 26.5481L33.7983 32.3582L33.8046 31.9056L22.5898 26.1041V26.4043V31.3825L22.7202 31.4503V26.4566L22.5898 26.5481Z" fill="#4B5157"/>
<path d="M35.0271 32.358L40.0201 29.7646V29.3074L35.0271 31.9035V32.358Z" fill="#20262B"/>
<path d="M39.7742 29.4887V34.7437L40.02 34.6155V29.307L39.7742 29.4887Z" fill="#17263A"/>
<path d="M22.8359 26.6259V31.5109L22.5901 31.3827V26.5481L22.8359 26.6259Z" fill="#494E54"/>
<path d="M22.5875 24.8645L21.9807 25.1798L34.4147 31.6436L35.0265 31.3257L22.5875 24.8645Z" fill="#93A1AD"/>
<path d="M28.1931 21.9364L27.5867 22.2522L40.02 28.7161L40.6319 28.4118L28.1931 21.9364Z" fill="#93A1AD"/>
<path d="M33.7983 31.3347L34.4147 31.6433L40.6317 28.4115L40.0201 28.0935L33.7983 31.3347Z" fill="#93A1AD"/>
<path d="M21.9812 25.1903L22.5975 25.4991L28.8145 22.2533L28.2048 21.9364L21.9812 25.1903Z" fill="#93A1AD"/>
<path d="M35.3027 38.7587L47.7367 45.2228V38.7587L35.3027 32.2946V38.7587Z" fill="#5F6871"/>
<path d="M53.9532 35.5266V41.9907L47.7366 45.2228V38.7589L53.9532 35.5266Z" fill="#4C535B"/>
<path d="M47.7367 38.7586L53.9533 35.5266L41.5197 29.063L35.3027 32.2945L47.7367 38.7586Z" fill="#788795"/>
<path d="M35.3027 32.2946V32.9039L47.7367 39.3365V38.7589L35.3027 32.2946Z" fill="#788795"/>
<path d="M35.3027 38.1807V38.79L47.7367 45.2226V44.6451L35.3027 38.1807Z" fill="#788795"/>
<path d="M35.3027 32.2946V38.7899L35.911 39.1049V32.6112L35.3027 32.2946Z" fill="#788795"/>
<path d="M47.1262 38.7588V44.8134L47.7351 45.1071V39.0539L47.1262 38.7588Z" fill="#788795"/>
<path d="M47.7366 38.7587V39.3365L53.9532 36.1044V35.5266L47.7366 38.7587Z" fill="#646D76"/>
<path d="M47.7366 44.6448V45.2226L53.9532 41.9905V41.4127L47.7366 44.6448Z" fill="#656D75"/>
<path d="M47.7373 39.3363L48.3486 39.0183V44.9044L47.7373 45.2223V39.3363Z" fill="#646D76"/>
<path d="M53.3423 36.3209L53.9535 36.0029V41.8892L53.3423 42.207V36.3209Z" fill="#646D76"/>
<path d="M36.7156 32.3956L41.742 29.8006L41.5246 29.6875L36.5308 32.2946L36.7156 32.3956Z" fill="#5F6871"/>
<path d="M52.5723 35.6408L52.7741 35.5358L41.5247 29.6877L41.2996 29.8051L52.5723 35.6408Z" fill="#5F6871"/>
<path d="M35.9111 33.6633L47.1199 39.4731L47.1261 39.0205L35.9111 33.219V33.5192V38.4973L36.0418 38.5652V33.5714L35.9111 33.6633Z" fill="#4B5157"/>
<path d="M48.3486 39.4731L53.3422 36.8797V36.4225L48.3486 39.0186V39.4731Z" fill="#20262B"/>
<path d="M53.0959 36.604V41.8589L53.3418 41.731V36.4222L53.0959 36.604Z" fill="#17263A"/>
<path d="M36.1573 33.7408V38.6258L35.9111 38.4979V33.6636L36.1573 33.7408Z" fill="#494E54"/>
<path d="M35.9097 31.9794L35.3032 32.2949L47.7372 38.7591L48.3484 38.4408L35.9097 31.9794Z" fill="#93A1AD"/>
<path d="M41.515 29.0518L40.908 29.367L53.3419 35.8309L53.9538 35.5266L41.515 29.0518Z" fill="#93A1AD"/>
<path d="M47.1201 38.4502L47.7368 38.7588L53.9534 35.527L53.3419 35.209L47.1201 38.4502Z" fill="#93A1AD"/>
<path d="M35.3027 32.3054L35.9191 32.6139L42.136 29.3684L41.5266 29.0518L35.3027 32.3054Z" fill="#93A1AD"/>
<path d="M14.7617 35.3026L27.1951 41.7664V35.3026L14.7617 28.8387V35.3026Z" fill="#5F6871"/>
<path d="M33.4121 32.0707V38.5351L27.1948 41.7669V35.303L33.4121 32.0707Z" fill="#4C535B"/>
<path d="M27.1954 35.3026L33.4123 32.0705L20.9787 25.6069L14.7617 28.839L27.1954 35.3026Z" fill="#788795"/>
<path d="M14.7617 28.8387V29.4481L27.1951 35.8801V35.3026L14.7617 28.8387Z" fill="#788795"/>
<path d="M14.7617 34.7251V35.3344L27.1951 41.7665V41.1889L14.7617 34.7251Z" fill="#788795"/>
<path d="M14.7617 28.8387V35.3341L15.37 35.6491V29.1551L14.7617 28.8387Z" fill="#788795"/>
<path d="M26.5852 35.3027V41.3573L27.1935 41.6511V35.5978L26.5852 35.3027Z" fill="#788795"/>
<path d="M27.1953 35.3027V35.8805L33.412 32.6488V32.0707L27.1953 35.3027Z" fill="#646D76"/>
<path d="M27.1953 41.1887V41.7668L33.412 38.5347V37.9569L27.1953 41.1887Z" fill="#656D75"/>
<path d="M27.1951 35.8805L27.8069 35.5625V41.4488L27.1951 41.7665V35.8805Z" fill="#646D76"/>
<path d="M32.8008 32.8652L33.412 32.5472V38.4333L32.8008 38.7513V32.8652Z" fill="#646D76"/>
<path d="M16.1741 28.9398L21.2005 26.3445L20.9831 26.2317L15.9893 28.8388L16.1741 28.9398Z" fill="#5F6871"/>
<path d="M32.0308 32.185L32.2326 32.0797L20.9832 26.2319L20.7581 26.3493L32.0308 32.185Z" fill="#5F6871"/>
<path d="M15.3701 30.2071L26.5788 36.017L26.5851 35.5649L15.3701 29.7634V30.0634V35.0418L15.5005 35.1094V30.1156L15.3701 30.2071Z" fill="#4B5157"/>
<path d="M27.8071 36.0173L32.8007 33.4236V32.9667L27.8071 35.5628V36.0173Z" fill="#20262B"/>
<path d="M32.5544 33.1482V38.4031L32.8003 38.2749V32.9664L32.5544 33.1482Z" fill="#17263A"/>
<path d="M15.6159 30.2847V35.1696L15.3701 35.0418V30.2074L15.6159 30.2847Z" fill="#494E54"/>
<path d="M15.3684 28.5233L14.762 28.8391L27.1953 35.303L27.8072 34.985L15.3684 28.5233Z" fill="#93A1AD"/>
<path d="M20.9734 25.5958L20.3669 25.9117L32.8009 32.3755L33.4121 32.0707L20.9734 25.5958Z" fill="#93A1AD"/>
<path d="M26.5791 34.994L27.1954 35.3026L33.4124 32.0708L32.8009 31.7528L26.5791 34.994Z" fill="#93A1AD"/>
<path d="M14.7617 28.8497L15.3781 29.1585L21.595 25.9125L20.9856 25.5958L14.7617 28.8497Z" fill="#93A1AD"/>
<path d="M28.0825 42.4178L40.5165 48.8817V42.4178L28.0825 35.954V42.4178Z" fill="#5F6871"/>
<path d="M46.7339 39.186V45.6499L40.5166 48.8817V42.4178L46.7339 39.186Z" fill="#4C535B"/>
<path d="M40.5169 42.4176L46.7336 39.186L34.3 32.7219L28.083 35.954L40.5169 42.4176Z" fill="#788795"/>
<path d="M28.0825 35.954V36.5633L40.5165 42.9954V42.4178L28.0825 35.954Z" fill="#788795"/>
<path d="M28.0825 41.8401V42.4494L40.5165 48.8815V48.3039L28.0825 41.8401Z" fill="#788795"/>
<path d="M28.0825 35.954V42.4493L28.6914 42.7644V36.2706L28.0825 35.954Z" fill="#788795"/>
<path d="M39.907 42.4178V48.4724L40.5153 48.7662V42.7129L39.907 42.4178Z" fill="#788795"/>
<path d="M40.5171 42.4176V42.9957L46.7338 39.7636V39.1858L40.5171 42.4176Z" fill="#646D76"/>
<path d="M40.5171 48.3039V48.882L46.7338 45.65V45.0721L40.5171 48.3039Z" fill="#656D75"/>
<path d="M40.5166 42.9954L41.1285 42.6774V48.5637L40.5166 48.8814V42.9954Z" fill="#646D76"/>
<path d="M46.1223 39.9802L46.7342 39.6622V45.5483L46.1223 45.8663V39.9802Z" fill="#646D76"/>
<path d="M29.4953 36.055L34.5221 33.4597L34.3046 33.3469L29.3108 35.9541L29.4953 36.055Z" fill="#5F6871"/>
<path d="M45.3527 39.3003L45.5545 39.195L34.3051 33.3472L34.0793 33.4646L45.3527 39.3003Z" fill="#5F6871"/>
<path d="M28.6914 37.3223L39.8998 43.1321L39.9064 42.68L28.6914 36.8785V37.1785V42.1569L28.8218 42.2245V37.2307L28.6914 37.3223Z" fill="#4B5157"/>
<path d="M41.1289 43.1323L46.1219 40.5386V40.0817L41.1289 42.6778V43.1323Z" fill="#20262B"/>
<path d="M45.8757 40.2633V45.5182L46.1216 45.39V40.0815L45.8757 40.2633Z" fill="#17263A"/>
<path d="M28.9377 37.3998V42.2848L28.6919 42.1569V37.3225L28.9377 37.3998Z" fill="#494E54"/>
<path d="M28.6898 35.6384L28.083 35.9543L40.5169 42.4181L41.1288 42.1001L28.6898 35.6384Z" fill="#93A1AD"/>
<path d="M34.295 32.7108L33.6885 33.0266L46.1218 39.4905L46.7337 39.1862L34.295 32.7108Z" fill="#93A1AD"/>
<path d="M39.9004 42.1093L40.5167 42.4178L46.7337 39.186L46.1221 38.868L39.9004 42.1093Z" fill="#93A1AD"/>
<path d="M28.083 35.9647L28.6994 36.2735L34.9163 33.0275L34.3066 32.7108L28.083 35.9647Z" fill="#93A1AD"/>
<path d="M7.84741 39.0913L20.2814 45.5551V39.0913L7.84741 32.6274V39.0913Z" fill="#5F6871"/>
<path d="M26.4982 35.8591V42.3233L20.2815 45.5553V39.0915L26.4982 35.8591Z" fill="#4C535B"/>
<path d="M20.2814 39.0913L26.498 35.8592L14.0644 29.3956L7.84741 32.6277L20.2814 39.0913Z" fill="#788795"/>
<path d="M7.84741 32.6277V33.237L20.2814 39.6691V39.0915L7.84741 32.6277Z" fill="#788795"/>
<path d="M7.84741 38.5138V39.1231L20.2814 45.5552V44.9776L7.84741 38.5138Z" fill="#788795"/>
<path d="M7.84766 32.6277V39.123L8.45593 39.4381V32.9441L7.84766 32.6277Z" fill="#788795"/>
<path d="M19.6711 39.0913V45.1459L20.28 45.4397V39.3864L19.6711 39.0913Z" fill="#788795"/>
<path d="M20.2815 39.0912V39.669L26.4982 36.4369V35.8591L20.2815 39.0912Z" fill="#646D76"/>
<path d="M20.2815 44.9775V45.5554L26.4982 42.3233V41.7455L20.2815 44.9775Z" fill="#656D75"/>
<path d="M20.2815 39.6691L20.8928 39.3511V45.2374L20.2815 45.5551V39.6691Z" fill="#646D76"/>
<path d="M25.8872 36.6537L26.4985 36.3357V42.222L25.8872 42.5397V36.6537Z" fill="#646D76"/>
<path d="M9.26025 32.7286L14.2867 30.1333L14.0693 30.0203L9.07544 32.6277L9.26025 32.7286Z" fill="#5F6871"/>
<path d="M25.117 35.9736L25.3188 35.8683L14.0694 30.0203L13.8442 30.1379L25.117 35.9736Z" fill="#5F6871"/>
<path d="M8.45605 33.996L19.6648 39.8059L19.6711 39.3533L8.45605 33.5518V33.852V38.8301L8.58674 38.898V33.9045L8.45605 33.996Z" fill="#4B5157"/>
<path d="M20.8928 39.806L25.8864 37.2123V36.7554L20.8928 39.3515V39.806Z" fill="#20262B"/>
<path d="M25.6406 36.9366V42.1918L25.8864 42.0639V36.7554L25.6406 36.9366Z" fill="#17263A"/>
<path d="M8.70247 34.0732V38.9582L8.45605 38.8303V33.996L8.70247 34.0732Z" fill="#494E54"/>
<path d="M8.45419 32.3118L7.84741 32.6276L20.2814 39.0914L20.8932 38.7732L8.45419 32.3118Z" fill="#93A1AD"/>
<path d="M14.0595 29.3843L13.4524 29.6998L25.8863 36.164L26.4982 35.8592L14.0595 29.3843Z" fill="#93A1AD"/>
<path d="M19.665 38.7827L20.2817 39.0913L26.4984 35.8595L25.8868 35.5415L19.665 38.7827Z" fill="#93A1AD"/>
<path d="M7.84741 32.6381L8.46376 32.947L14.6807 29.7009L14.0713 29.3843L7.84741 32.6381Z" fill="#93A1AD"/>
<path d="M20.9429 46.2064L33.3768 52.6703V46.2064L20.9429 39.7426V46.2064Z" fill="#5F6871"/>
<path d="M39.5947 42.9744V49.4388L33.3774 52.6705V46.2067L39.5947 42.9744Z" fill="#4C535B"/>
<path d="M33.3775 46.2065L39.5942 42.9744L27.1606 36.5109L20.9436 39.7429L33.3775 46.2065Z" fill="#788795"/>
<path d="M20.9429 39.7426V40.3519L33.3768 46.7839V46.2064L20.9429 39.7426Z" fill="#788795"/>
<path d="M20.9429 45.6289V46.2382L33.3768 52.6703V52.0928L20.9429 45.6289Z" fill="#788795"/>
<path d="M20.9429 39.7426V46.2379L21.5517 46.5529V40.0589L20.9429 39.7426Z" fill="#788795"/>
<path d="M32.7668 46.2064V52.261L33.3757 52.5548V46.5015L32.7668 46.2064Z" fill="#788795"/>
<path d="M33.3777 46.2064V46.7842L39.5944 43.5522V42.9744L33.3777 46.2064Z" fill="#646D76"/>
<path d="M33.3777 52.0924V52.6705L39.5944 49.4384V48.8606L33.3777 52.0924Z" fill="#656D75"/>
<path d="M33.3774 46.7842L33.9893 46.4662V52.3525L33.3774 52.6702V46.7842Z" fill="#646D76"/>
<path d="M38.9827 43.7689L39.5945 43.4509V49.3372L38.9827 49.655V43.7689Z" fill="#646D76"/>
<path d="M22.3561 39.8435L27.3829 37.2482L27.1655 37.1351L22.1716 39.7425L22.3561 39.8435Z" fill="#5F6871"/>
<path d="M38.213 43.0887L38.4149 42.9835L27.1655 37.1354L26.9397 37.253L38.213 43.0887Z" fill="#5F6871"/>
<path d="M21.5525 41.1109L32.7606 46.9207L32.7669 46.4681L21.5525 40.6666V40.9671V45.9452L21.6826 46.0128V41.0193L21.5525 41.1109Z" fill="#4B5157"/>
<path d="M33.9893 46.9211L38.9822 44.3274V43.8705L33.9893 46.4666V46.9211Z" fill="#20262B"/>
<path d="M38.7368 44.0519V49.3068L38.9826 49.1786V43.8701L38.7368 44.0519Z" fill="#17263A"/>
<path d="M21.7983 41.1885V46.0735L21.5525 45.9456V41.1112L21.7983 41.1885Z" fill="#494E54"/>
<path d="M21.5504 39.427L20.9436 39.7428L33.3775 46.2067L33.9894 45.8887L21.5504 39.427Z" fill="#93A1AD"/>
<path d="M27.1553 36.4995L26.5488 36.8151L38.9822 43.2792L39.594 42.9744L27.1553 36.4995Z" fill="#93A1AD"/>
<path d="M32.7607 45.8978L33.3771 46.2064L39.5941 42.9746L38.9825 42.6566L32.7607 45.8978Z" fill="#93A1AD"/>
<path d="M20.9436 39.7534L21.5599 40.0622L27.7769 36.8161L27.1672 36.4995L20.9436 39.7534Z" fill="#93A1AD"/>
<path d="M0.62207 42.7452L13.056 49.2096V42.7452L0.62207 36.2814V42.7452Z" fill="#5F6871"/>
<path d="M19.2734 39.5135V45.9777L13.0562 49.2097V42.7456L19.2734 39.5135Z" fill="#4C535B"/>
<path d="M13.0565 42.7452L19.2732 39.5137L6.83953 33.0496L0.622559 36.2816L13.0565 42.7452Z" fill="#788795"/>
<path d="M0.62207 36.2816V36.8909L13.056 43.323V42.7455L0.62207 36.2816Z" fill="#788795"/>
<path d="M0.62207 42.1676V42.7769L13.056 49.2095V48.632L0.62207 42.1676Z" fill="#788795"/>
<path d="M0.62207 36.2816V42.777L1.23094 43.092V36.5983L0.62207 36.2816Z" fill="#788795"/>
<path d="M12.4458 42.7455V48.8001L13.0547 49.0938V43.0406L12.4458 42.7455Z" fill="#788795"/>
<path d="M13.0564 42.7453V43.3234L19.2731 40.0914V39.5135L13.0564 42.7453Z" fill="#646D76"/>
<path d="M13.0564 48.6318V49.2096L19.2731 45.9776V45.3998L13.0564 48.6318Z" fill="#656D75"/>
<path d="M13.0564 43.3234L13.6677 43.0054V48.8914L13.0564 49.2094V43.3234Z" fill="#646D76"/>
<path d="M18.6614 40.308L19.2732 39.99V45.876L18.6614 46.194V40.308Z" fill="#646D76"/>
<path d="M2.03467 36.3827L7.06112 33.7874L6.844 33.6746L1.84985 36.2817L2.03467 36.3827Z" fill="#5F6871"/>
<path d="M17.8916 39.6278L18.0935 39.5228L6.84408 33.6747L6.6189 33.7921L17.8916 39.6278Z" fill="#5F6871"/>
<path d="M1.23096 37.6498L12.4397 43.4596L12.4457 43.0076L1.23096 37.2061V37.506V42.4844L1.36134 42.552V37.5582L1.23096 37.6498Z" fill="#4B5157"/>
<path d="M13.6677 43.4598L18.6613 40.8661V40.4092L13.6677 43.0053V43.4598Z" fill="#20262B"/>
<path d="M18.4153 40.5909V45.8458L18.6611 45.7177V40.4092L18.4153 40.5909Z" fill="#17263A"/>
<path d="M1.47708 37.7275V42.6125L1.23096 42.4846V37.6503L1.47708 37.7275Z" fill="#494E54"/>
<path d="M1.22866 35.9663L0.621582 36.2816L13.0555 42.7455L13.6674 42.4275L1.22866 35.9663Z" fill="#93A1AD"/>
<path d="M6.83431 33.0386L6.22754 33.3544L18.6615 39.8183L19.2733 39.514L6.83431 33.0386Z" fill="#93A1AD"/>
<path d="M12.4397 42.4369L13.056 42.7455L19.273 39.5137L18.6615 39.1957L12.4397 42.4369Z" fill="#93A1AD"/>
<path d="M0.62207 36.2922L1.23841 36.601L7.45538 33.3552L6.84592 33.0383L0.62207 36.2922Z" fill="#93A1AD"/>
<path d="M13.9441 49.8603L26.378 56.3247V49.8603L13.9441 43.3965V49.8603Z" fill="#5F6871"/>
<path d="M32.5946 46.6287V53.0928L26.3779 56.3248V49.8607L32.5946 46.6287Z" fill="#4C535B"/>
<path d="M26.378 49.8607L32.5947 46.6289L20.1611 40.165L13.9441 43.3968L26.378 49.8607Z" fill="#788795"/>
<path d="M13.9441 43.3965V44.0058L26.378 50.4384V49.8606L13.9441 43.3965Z" fill="#788795"/>
<path d="M13.9441 49.2828V49.8921L26.378 56.3248V55.7472L13.9441 49.2828Z" fill="#788795"/>
<path d="M13.9443 43.3969V49.8922L14.5526 50.2072V43.7135L13.9443 43.3969Z" fill="#788795"/>
<path d="M25.7673 49.8607V55.9156L26.3762 56.2091V50.1558L25.7673 49.8607Z" fill="#788795"/>
<path d="M26.3779 49.8605V50.4385L32.5946 47.2065V46.6287L26.3779 49.8605Z" fill="#646D76"/>
<path d="M26.3779 55.747V56.3248L32.5946 53.0927V52.5149L26.3779 55.747Z" fill="#656D75"/>
<path d="M26.3782 50.4385L26.9894 50.1205V56.0065L26.3782 56.3245V50.4385Z" fill="#646D76"/>
<path d="M31.9832 47.423L32.5944 47.105V52.9913L31.9832 53.309V47.423Z" fill="#646D76"/>
<path d="M15.3569 43.4978L20.3834 40.9028L20.166 40.7897L15.1721 43.3968L15.3569 43.4978Z" fill="#5F6871"/>
<path d="M31.2134 46.7428L31.4153 46.6378L20.1659 40.7897L19.9407 40.9071L31.2134 46.7428Z" fill="#5F6871"/>
<path d="M14.5522 44.765L25.761 50.5752L25.7673 50.1225L14.5522 44.321V44.6213V49.5994L14.6829 49.6672V44.6735L14.5522 44.765Z" fill="#4B5157"/>
<path d="M26.9895 50.575L31.9831 47.9816V47.5244L26.9895 50.1205V50.575Z" fill="#20262B"/>
<path d="M31.7373 47.7059V52.9611L31.9831 52.8327V47.5242L31.7373 47.7059Z" fill="#17263A"/>
<path d="M14.7987 44.8429V49.7279L14.5522 49.5998V44.7651L14.7987 44.8429Z" fill="#494E54"/>
<path d="M14.5508 43.0815L13.9443 43.3968L26.3783 49.8607L26.9895 49.5427L14.5508 43.0815Z" fill="#93A1AD"/>
<path d="M20.156 40.1534L19.5496 40.4693L31.9835 46.9331L32.5948 46.6289L20.156 40.1534Z" fill="#93A1AD"/>
<path d="M25.7617 49.552L26.3784 49.8606L32.595 46.6288L31.9835 46.3108L25.7617 49.552Z" fill="#93A1AD"/>
<path d="M13.9441 43.4073L14.5604 43.7161L20.7774 40.4703L20.1679 40.1534L13.9441 43.4073Z" fill="#93A1AD"/>
<path d="M6.72388 53.5198L19.1578 59.9836V53.5198L6.72388 47.0559V53.5198Z" fill="#5F6871"/>
<path d="M25.3752 50.2877V56.7521L19.158 59.9836V53.52L25.3752 50.2877Z" fill="#4C535B"/>
<path d="M19.1581 53.5197L25.3747 50.2877L12.9411 43.8241L6.72412 47.0562L19.1581 53.5197Z" fill="#788795"/>
<path d="M6.72388 47.0562V47.6655L19.1578 54.0975V53.52L6.72388 47.0562Z" fill="#788795"/>
<path d="M6.72388 52.9423V53.5516L19.1578 59.9836V59.4061L6.72388 52.9423Z" fill="#788795"/>
<path d="M6.72412 47.0562V53.5515L7.33299 53.8665V47.3725L6.72412 47.0562Z" fill="#788795"/>
<path d="M18.5476 53.5198V59.5744L19.1565 59.8681V53.8149L18.5476 53.5198Z" fill="#788795"/>
<path d="M19.1582 53.5198V54.0976L25.3749 50.8658V50.2877L19.1582 53.5198Z" fill="#646D76"/>
<path d="M19.1582 59.4058V59.9836L25.3749 56.7521V56.1743L19.1582 59.4058Z" fill="#656D75"/>
<path d="M19.1582 54.0976L19.7701 53.7797V59.666L19.1582 59.9837V54.0976Z" fill="#646D76"/>
<path d="M24.7634 51.0823L25.3753 50.7643V56.6503L24.7634 56.9683V51.0823Z" fill="#646D76"/>
<path d="M8.13666 47.1571L13.1634 44.5618L12.946 44.449L7.95215 47.0561L8.13666 47.1571Z" fill="#5F6871"/>
<path d="M23.9938 50.4021L24.1956 50.2968L12.9462 44.449L12.7205 44.5664L23.9938 50.4021Z" fill="#5F6871"/>
<path d="M7.33325 48.4242L18.5414 54.234L18.5477 53.782L7.33325 47.9805V48.2804V53.2588L7.46334 53.3264V48.3326L7.33325 48.4242Z" fill="#4B5157"/>
<path d="M19.77 54.2344L24.763 51.6408V51.1838L19.77 53.7799V54.2344Z" fill="#20262B"/>
<path d="M24.5173 51.3652V56.6201L24.7632 56.492V51.1835L24.5173 51.3652Z" fill="#17263A"/>
<path d="M7.57907 48.5017V53.3867L7.33325 53.2588V48.4244L7.57907 48.5017Z" fill="#494E54"/>
<path d="M7.33065 46.7402L6.72388 47.0561L19.1578 53.5199L19.7697 53.2019L7.33065 46.7402Z" fill="#93A1AD"/>
<path d="M12.9361 43.8129L12.3296 44.1287L24.7629 50.5925L25.3748 50.2878L12.9361 43.8129Z" fill="#93A1AD"/>
<path d="M18.5417 53.2112L19.1581 53.5197L25.3751 50.288L24.7635 49.97L18.5417 53.2112Z" fill="#93A1AD"/>
<path d="M6.72412 47.0667L7.34047 47.3756L13.5574 44.1295L12.9477 43.8129L6.72412 47.0667Z" fill="#93A1AD"/>
<path d="M50.5649 9.75035L62.9989 16.2142V9.75035L50.5649 3.2865V9.75035Z" fill="#5F6871"/>
<path d="M69.216 6.51807V12.9822L62.9988 16.2142V9.7504L69.216 6.51807Z" fill="#4C535B"/>
<path d="M62.9994 9.75021L69.216 6.51815L56.7824 0.0545654L50.5654 3.28663L62.9994 9.75021Z" fill="#788795"/>
<path d="M50.5649 3.2865V3.89581L62.9989 10.3279V9.75035L50.5649 3.2865Z" fill="#788795"/>
<path d="M50.5649 9.17273V9.78204L62.9989 16.2141V15.6366L50.5649 9.17273Z" fill="#788795"/>
<path d="M50.5654 3.2865V9.78185L51.1737 10.0969V3.60287L50.5654 3.2865Z" fill="#788795"/>
<path d="M62.3889 9.75012V15.8047L62.9978 16.0985V10.0452L62.3889 9.75012Z" fill="#788795"/>
<path d="M62.999 9.75049V10.3283L69.2157 7.09624V6.51843L62.999 9.75049Z" fill="#646D76"/>
<path d="M62.999 15.6365V16.2143L69.2157 12.9822V12.4044L62.999 15.6365Z" fill="#656D75"/>
<path d="M62.999 10.3279L63.6103 10.0099V15.8962L62.999 16.2139V10.3279Z" fill="#646D76"/>
<path d="M68.604 7.31261L69.2159 6.99463V12.8809L68.604 13.1987V7.31261Z" fill="#646D76"/>
<path d="M51.9778 3.38757L57.0042 0.792284L56.7868 0.679199L51.793 3.2866L51.9778 3.38757Z" fill="#5F6871"/>
<path d="M67.8347 6.63253L68.0366 6.52752L56.7872 0.679443L56.562 0.797105L67.8347 6.63253Z" fill="#5F6871"/>
<path d="M51.1738 4.65483L62.3826 10.4647L62.3888 10.0121L51.1738 4.21057V4.51078V9.48892L51.3045 9.55677V4.56302L51.1738 4.65483Z" fill="#4B5157"/>
<path d="M63.6104 10.4648L68.6039 7.8711V7.41418L63.6104 10.01V10.4648Z" fill="#20262B"/>
<path d="M68.3582 7.59566V12.8506L68.604 12.7227V7.41418L68.3582 7.59566Z" fill="#17263A"/>
<path d="M51.4202 4.73243V9.6174L51.1738 9.48951V4.65515L51.4202 4.73243Z" fill="#494E54"/>
<path d="M51.1719 2.97095L50.5654 3.28678L62.9994 9.75063L63.6106 9.43238L51.1719 2.97095Z" fill="#93A1AD"/>
<path d="M56.7772 0.043457L56.1704 0.359016L68.6044 6.82314L69.2162 6.51835L56.7772 0.043457Z" fill="#93A1AD"/>
<path d="M62.3828 9.4419L62.9992 9.75046L69.2161 6.51867L68.6046 6.20068L62.3828 9.4419Z" fill="#93A1AD"/>
<path d="M50.5649 3.29733L51.1816 3.60616L57.3983 0.360093L56.7888 0.043457L50.5649 3.29733Z" fill="#93A1AD"/>
<path d="M63.6609 16.8656L76.0948 23.3294V16.8656L63.6609 10.4017V16.8656Z" fill="#5F6871"/>
<path d="M82.3122 13.6333V20.0977L76.095 23.3295V16.8656L82.3122 13.6333Z" fill="#4C535B"/>
<path d="M76.0951 16.8653L82.3117 13.6333L69.8781 7.16968L63.6611 10.4017L76.0951 16.8653Z" fill="#788795"/>
<path d="M63.6609 10.4017V11.011L76.0948 17.4431V16.8656L63.6609 10.4017Z" fill="#788795"/>
<path d="M63.6609 16.2878V16.8972L76.0948 23.3292V22.7517L63.6609 16.2878Z" fill="#788795"/>
<path d="M63.6609 10.4017V16.8971L64.2698 17.2121V10.7181L63.6609 10.4017Z" fill="#788795"/>
<path d="M75.4849 16.8654V22.92L76.0931 23.2137V17.1605L75.4849 16.8654Z" fill="#788795"/>
<path d="M76.0952 16.8656V17.4434L82.3119 14.2114V13.6335L76.0952 16.8656Z" fill="#646D76"/>
<path d="M76.0952 22.7516V23.3294L82.3119 20.0976V19.5195L76.0952 22.7516Z" fill="#656D75"/>
<path d="M76.095 17.4431L76.7068 17.1251V23.0114L76.095 23.3291V17.4431Z" fill="#646D76"/>
<path d="M81.7004 14.4278L82.3117 14.1099V19.9962L81.7004 20.3139V14.4278Z" fill="#646D76"/>
<path d="M65.0734 10.5027L70.1002 7.9074L69.8828 7.79431L64.8889 10.4017L65.0734 10.5027Z" fill="#5F6871"/>
<path d="M80.9302 13.7476L81.1321 13.6426L69.8827 7.79456L69.6575 7.91222L80.9302 13.7476Z" fill="#5F6871"/>
<path d="M64.2695 11.7701L75.4783 17.5799L75.4845 17.1273L64.2695 11.3258V11.6263V16.6042L64.3999 16.672V11.6785L64.2695 11.7701Z" fill="#4B5157"/>
<path d="M76.7065 17.58L81.7001 14.9863V14.5294L76.7065 17.1255V17.58Z" fill="#20262B"/>
<path d="M81.4543 14.7112V19.9658L81.7005 19.8379V14.5294L81.4543 14.7112Z" fill="#17263A"/>
<path d="M64.5154 11.8474V16.7324L64.2695 16.6045V11.7701L64.5154 11.8474Z" fill="#494E54"/>
<path d="M64.2677 10.0859L63.6609 10.4018L76.0948 16.8656L76.7067 16.5476L64.2677 10.0859Z" fill="#93A1AD"/>
<path d="M69.8728 7.15833L69.2664 7.47388L81.7003 13.938L82.3116 13.6332L69.8728 7.15833Z" fill="#93A1AD"/>
<path d="M75.4785 16.557L76.0949 16.8656L82.3118 13.6338L81.7003 13.3158L75.4785 16.557Z" fill="#93A1AD"/>
<path d="M63.6611 10.4122L64.2775 10.721L70.4944 7.47496L69.8847 7.15833L63.6611 10.4122Z" fill="#93A1AD"/>
<path d="M43.3398 13.4044L55.7738 19.8688V13.4044L43.3398 6.94055V13.4044Z" fill="#5F6871"/>
<path d="M61.991 10.1726V16.6367L55.7737 19.8688V13.4047L61.991 10.1726Z" fill="#4C535B"/>
<path d="M55.774 13.4044L61.9907 10.1729L49.5571 3.70874L43.3401 6.9408L55.774 13.4044Z" fill="#788795"/>
<path d="M43.3398 6.94055V7.54986L55.7738 13.9819V13.4044L43.3398 6.94055Z" fill="#788795"/>
<path d="M43.3398 12.8265V13.4358L55.7738 19.8685V19.2907L43.3398 12.8265Z" fill="#788795"/>
<path d="M43.3398 6.94055V13.4359L43.9487 13.7509V7.25719L43.3398 6.94055Z" fill="#788795"/>
<path d="M55.1636 13.4044V19.459L55.7724 19.7528V13.6995L55.1636 13.4044Z" fill="#788795"/>
<path d="M55.7739 13.4044V13.9825L61.9906 10.7504V10.1726L55.7739 13.4044Z" fill="#646D76"/>
<path d="M55.7739 19.2904V19.8685L61.9906 16.6364V16.0586L55.7739 19.2904Z" fill="#656D75"/>
<path d="M55.7737 13.9822L56.3855 13.6642V19.5502L55.7737 19.8682V13.9822Z" fill="#646D76"/>
<path d="M61.3789 10.9669L61.9908 10.6489V16.535L61.3789 16.853V10.9669Z" fill="#646D76"/>
<path d="M44.7524 7.04148L49.7791 4.44619L49.5617 4.33337L44.5679 6.94051L44.7524 7.04148Z" fill="#5F6871"/>
<path d="M60.6093 10.2867L60.8111 10.1817L49.5617 4.33362L49.3359 4.45101L60.6093 10.2867Z" fill="#5F6871"/>
<path d="M43.949 8.30883L55.1571 14.1187L55.1634 13.6666L43.949 7.86511V8.16506V13.1435L44.0791 13.211V8.21729L43.949 8.30883Z" fill="#4B5157"/>
<path d="M56.3855 14.1187L61.3785 11.525V11.0681L56.3855 13.6642V14.1187Z" fill="#20262B"/>
<path d="M61.1328 11.2499V16.5048L61.3786 16.3766V11.0681L61.1328 11.2499Z" fill="#17263A"/>
<path d="M44.1943 8.38648V13.2715L43.9485 13.1436V8.3092L44.1943 8.38648Z" fill="#494E54"/>
<path d="M43.9466 6.62524L43.3398 6.94053L55.7738 13.4044L56.3856 13.0864L43.9466 6.62524Z" fill="#93A1AD"/>
<path d="M49.5518 3.69751L48.9453 4.01334L61.3787 10.4772L61.9905 10.1729L49.5518 3.69751Z" fill="#93A1AD"/>
<path d="M55.1575 13.0958L55.7738 13.4044L61.9908 10.1726L61.3792 9.85461L55.1575 13.0958Z" fill="#93A1AD"/>
<path d="M43.3398 6.95138L43.9562 7.26021L50.1732 4.01442L49.5634 3.69751L43.3398 6.95138Z" fill="#93A1AD"/>
<path d="M56.6616 20.5193L69.0956 26.9837V20.5193L56.6616 14.0554V20.5193Z" fill="#5F6871"/>
<path d="M75.3125 17.2875V23.7516L69.0952 26.9837V20.5195L75.3125 17.2875Z" fill="#4C535B"/>
<path d="M69.0956 20.5196L75.3122 17.2878L62.8786 10.824L56.6616 14.0558L69.0956 20.5196Z" fill="#788795"/>
<path d="M56.6616 14.0557V14.665L69.0956 21.0971V20.5195L56.6616 14.0557Z" fill="#788795"/>
<path d="M56.6616 19.9418V20.5511L69.0956 26.9837V26.4062L56.6616 19.9418Z" fill="#788795"/>
<path d="M56.6616 14.0557V20.551L57.2699 20.866V14.3723L56.6616 14.0557Z" fill="#788795"/>
<path d="M68.4849 20.5195V26.5741L69.0937 26.8679V20.8146L68.4849 20.5195Z" fill="#788795"/>
<path d="M69.0955 20.5193V21.0973L75.3121 17.8653V17.2875L69.0955 20.5193Z" fill="#646D76"/>
<path d="M69.0955 26.4059V26.9837L75.3121 23.7516V23.1738L69.0955 26.4059Z" fill="#656D75"/>
<path d="M69.0955 21.0974L69.7067 20.7794V26.6655L69.0955 26.9834V21.0974Z" fill="#646D76"/>
<path d="M74.7007 18.082L75.3125 17.764V23.6501L74.7007 23.9681V18.082Z" fill="#646D76"/>
<path d="M58.0742 14.1567L63.1007 11.5614L62.8833 11.4486L57.8894 14.0557L58.0742 14.1567Z" fill="#5F6871"/>
<path d="M73.9312 17.4019L74.133 17.2969L62.8836 11.4489L62.6584 11.5662L73.9312 17.4019Z" fill="#5F6871"/>
<path d="M57.2698 15.424L68.4785 21.2341L68.4848 20.7815L57.2698 14.98V15.2802V20.2583L57.4005 20.3262V15.3324L57.2698 15.424Z" fill="#4B5157"/>
<path d="M69.7073 21.2342L74.7008 18.6405V18.1836L69.7073 20.7797V21.2342Z" fill="#20262B"/>
<path d="M74.4548 18.3651V23.62L74.7007 23.4919V18.1833L74.4548 18.3651Z" fill="#17263A"/>
<path d="M57.5159 15.5019V20.3866L57.2698 20.2587V15.4243L57.5159 15.5019Z" fill="#494E54"/>
<path d="M57.2681 13.7405L56.6616 14.0558L69.0956 20.5196L69.7068 20.2016L57.2681 13.7405Z" fill="#93A1AD"/>
<path d="M62.8734 10.8126L62.2666 11.1285L74.7005 17.5923L75.3124 17.2881L62.8734 10.8126Z" fill="#93A1AD"/>
<path d="M68.4792 20.2109L69.0956 20.5195L75.3126 17.2877L74.701 16.9697L68.4792 20.2109Z" fill="#93A1AD"/>
<path d="M56.6616 14.0665L57.278 14.3753L63.4949 11.1295L62.8855 10.8126L56.6616 14.0665Z" fill="#93A1AD"/>
<path d="M36.1201 17.0637L48.5541 23.5276V17.0637L36.1201 10.5999V17.0637Z" fill="#5F6871"/>
<path d="M54.7706 13.8317V20.2961L48.554 23.5278V17.064L54.7706 13.8317Z" fill="#4C535B"/>
<path d="M48.5541 17.0634L54.7707 13.8314L42.3371 7.3678L36.1201 10.5999L48.5541 17.0634Z" fill="#788795"/>
<path d="M36.1201 10.6V11.2093L48.5541 17.6414V17.0638L36.1201 10.6Z" fill="#788795"/>
<path d="M36.1201 16.486V17.0953L48.5541 23.5274V22.9498L36.1201 16.486Z" fill="#788795"/>
<path d="M36.1204 10.6V17.0953L36.7286 17.4103V10.9163L36.1204 10.6Z" fill="#788795"/>
<path d="M47.9434 17.0635V23.1181L48.5522 23.4118V17.3586L47.9434 17.0635Z" fill="#788795"/>
<path d="M48.554 17.0637V17.6415L54.7706 14.4095V13.8317L48.554 17.0637Z" fill="#646D76"/>
<path d="M48.554 22.9498V23.5276L54.7706 20.2959V19.7178L48.554 22.9498Z" fill="#656D75"/>
<path d="M48.5544 17.6413L49.1657 17.3234V23.2097L48.5544 23.5274V17.6413Z" fill="#646D76"/>
<path d="M54.1594 14.6261L54.7707 14.3081V20.1944L54.1594 20.5121V14.6261Z" fill="#646D76"/>
<path d="M37.533 10.7009L42.5594 8.10564L42.342 7.99255L37.3481 10.6L37.533 10.7009Z" fill="#5F6871"/>
<path d="M53.3899 13.9459L53.5918 13.8409L42.3424 7.9928L42.1172 8.11046L53.3899 13.9459Z" fill="#5F6871"/>
<path d="M36.7283 11.9682L47.937 17.778L47.9433 17.3254L36.7283 11.5239V11.8244V16.8023L36.859 16.8701V11.8766L36.7283 11.9682Z" fill="#4B5157"/>
<path d="M49.1658 17.778L54.1593 15.1843V14.7274L49.1658 17.3235V17.778Z" fill="#20262B"/>
<path d="M53.9133 14.909V20.1639L54.1591 20.036V14.7275L53.9133 14.909Z" fill="#17263A"/>
<path d="M36.9747 12.0458V16.9308L36.7283 16.8029V11.9685L36.9747 12.0458Z" fill="#494E54"/>
<path d="M36.7268 10.2843L36.1204 10.6001L48.5543 17.064L49.1656 16.746L36.7268 10.2843Z" fill="#93A1AD"/>
<path d="M42.3321 7.35681L41.7256 7.67237L54.1595 14.1365L54.7708 13.8317L42.3321 7.35681Z" fill="#93A1AD"/>
<path d="M47.9377 16.7553L48.5544 17.0638L54.7711 13.832L54.1595 13.514L47.9377 16.7553Z" fill="#93A1AD"/>
<path d="M36.1201 10.6107L36.7365 10.9195L42.9534 7.67345L42.344 7.35681L36.1201 10.6107Z" fill="#93A1AD"/>
<path d="M49.4417 24.1789L61.8756 30.6428V24.1789L49.4417 17.7151V24.1789Z" fill="#5F6871"/>
<path d="M68.093 20.9467V27.411L61.8757 30.6428V24.179L68.093 20.9467Z" fill="#4C535B"/>
<path d="M61.8758 24.1787L68.0925 20.9466L55.6589 14.483L49.4419 17.7151L61.8758 24.1787Z" fill="#788795"/>
<path d="M49.4417 17.7151V18.3244L61.8756 24.7565V24.1789L49.4417 17.7151Z" fill="#788795"/>
<path d="M49.4417 23.6012V24.2105L61.8756 30.6426V30.065L49.4417 23.6012Z" fill="#788795"/>
<path d="M49.4417 17.7151V24.2104L50.0505 24.5255V18.0315L49.4417 17.7151Z" fill="#788795"/>
<path d="M61.2659 24.179V30.2335L61.8741 30.5273V24.4741L61.2659 24.179Z" fill="#788795"/>
<path d="M61.8757 24.179V24.7568L68.0924 21.5247V20.9469L61.8757 24.179Z" fill="#646D76"/>
<path d="M61.8757 30.065V30.6431L68.0924 27.4111V26.8333L61.8757 30.065Z" fill="#656D75"/>
<path d="M61.8757 24.7565L62.4876 24.4385V30.3248L61.8757 30.6425V24.7565Z" fill="#646D76"/>
<path d="M67.4807 21.7411L68.0926 21.4231V27.3094L67.4807 27.6271V21.7411Z" fill="#646D76"/>
<path d="M50.8542 17.816L55.8809 15.2208L55.6635 15.1077L50.6697 17.7151L50.8542 17.816Z" fill="#5F6871"/>
<path d="M66.7112 21.061L66.9131 20.956L55.6637 15.1079L55.4385 15.2256L66.7112 21.061Z" fill="#5F6871"/>
<path d="M50.0505 19.0831L61.2593 24.893L61.2655 24.4404L50.0505 18.6394V18.9393V23.9178L50.1809 23.9853V18.9916L50.0505 19.0831Z" fill="#4B5157"/>
<path d="M62.4875 24.8932L67.4805 22.2996V21.8427L62.4875 24.4387V24.8932Z" fill="#20262B"/>
<path d="M67.2346 22.0244V27.279L67.4804 27.1512V21.8427L67.2346 22.0244Z" fill="#17263A"/>
<path d="M50.2966 19.1609V24.0459L50.0508 23.918V19.0836L50.2966 19.1609Z" fill="#494E54"/>
<path d="M50.0484 17.3995L49.4417 17.7154L61.8756 24.1792L62.4874 23.8612L50.0484 17.3995Z" fill="#93A1AD"/>
<path d="M55.6538 14.4717L55.0474 14.7875L67.4807 21.2514L68.0926 20.9466L55.6538 14.4717Z" fill="#93A1AD"/>
<path d="M61.2593 23.8704L61.8756 24.1789L68.0926 20.9471L67.4807 20.6292L61.2593 23.8704Z" fill="#93A1AD"/>
<path d="M49.4419 17.7255L50.0582 18.0344L56.2752 14.7883L55.6654 14.4717L49.4419 17.7255Z" fill="#93A1AD"/>
<path d="M29.2063 20.8524L41.6402 27.3165V20.8524L29.2063 14.3883V20.8524Z" fill="#5F6871"/>
<path d="M47.8574 17.6204V24.0845L41.6401 27.3165V20.8527L47.8574 17.6204Z" fill="#4C535B"/>
<path d="M41.6405 20.8524L47.8572 17.6203L35.4235 11.1567L29.2065 14.3883L41.6405 20.8524Z" fill="#788795"/>
<path d="M29.2063 14.3882V14.9975L41.6402 21.4301V20.8526L29.2063 14.3882Z" fill="#788795"/>
<path d="M29.2063 20.2749V20.8842L41.6402 27.3163V26.7388L29.2063 20.2749Z" fill="#788795"/>
<path d="M29.2065 14.3883V20.8839L29.8148 21.1987V14.7049L29.2065 14.3883Z" fill="#788795"/>
<path d="M41.0298 20.8524V26.907L41.6387 27.2008V21.1475L41.0298 20.8524Z" fill="#788795"/>
<path d="M41.6404 20.8524V21.4302L47.8571 18.1982V17.6204L41.6404 20.8524Z" fill="#646D76"/>
<path d="M41.6404 26.7387V27.3165L47.8571 24.0844V23.5066L41.6404 26.7387Z" fill="#656D75"/>
<path d="M41.6404 21.4299L42.2516 21.1119V26.9983L41.6404 27.316V21.4299Z" fill="#646D76"/>
<path d="M47.2454 18.4149L47.8572 18.0969V23.9832L47.2454 24.301V18.4149Z" fill="#646D76"/>
<path d="M30.6191 14.4895L35.6456 11.8942L35.4282 11.7811L30.4343 14.3883L30.6191 14.4895Z" fill="#5F6871"/>
<path d="M46.4759 17.7347L46.6777 17.6297L35.4283 11.7816L35.2031 11.899L46.4759 17.7347Z" fill="#5F6871"/>
<path d="M29.8147 15.7569L41.0234 21.5667L41.0297 21.1141L29.8147 15.3126V15.6128V20.591L29.9454 20.6588V15.6651L29.8147 15.7569Z" fill="#4B5157"/>
<path d="M42.2517 21.5667L47.2453 18.973V18.5161L42.2517 21.1119V21.5667Z" fill="#20262B"/>
<path d="M46.9995 18.6976V23.9525L47.2453 23.8246V18.5161L46.9995 18.6976Z" fill="#17263A"/>
<path d="M30.0611 15.8344V20.7193L29.8147 20.5914V15.7571L30.0611 15.8344Z" fill="#494E54"/>
<path d="M29.813 14.0729L29.2065 14.3884L41.6405 20.8526L42.2517 20.5343L29.813 14.0729Z" fill="#93A1AD"/>
<path d="M35.4183 11.1454L34.8115 11.4607L47.2455 17.9245L47.8573 17.6203L35.4183 11.1454Z" fill="#93A1AD"/>
<path d="M41.0237 20.5438L41.64 20.8524L47.857 17.6206L47.2454 17.3026L41.0237 20.5438Z" fill="#93A1AD"/>
<path d="M29.2063 14.3993L29.8226 14.7081L36.0396 11.462L35.4301 11.1454L29.2063 14.3993Z" fill="#93A1AD"/>
<path d="M42.3018 27.9675L54.7357 34.4314V27.9675L42.3018 21.5037V27.9675Z" fill="#5F6871"/>
<path d="M60.9534 24.7355V31.1996L54.7361 34.4317V27.9678L60.9534 24.7355Z" fill="#4C535B"/>
<path d="M54.7362 27.9675L60.9529 24.7354L48.5192 18.2719L42.3022 21.5039L54.7362 27.9675Z" fill="#788795"/>
<path d="M42.3018 21.5037V22.113L54.7357 28.5451V27.9675L42.3018 21.5037Z" fill="#788795"/>
<path d="M42.3018 27.39V27.9993L54.7357 34.4314V33.8539L42.3018 27.39Z" fill="#788795"/>
<path d="M42.3018 21.5039V27.9993L42.9106 28.3137V21.8203L42.3018 21.5039Z" fill="#788795"/>
<path d="M54.1262 27.9675V34.0221L54.7345 34.3159V28.2626L54.1262 27.9675Z" fill="#788795"/>
<path d="M54.7363 27.9675V28.5453L60.953 25.3133V24.7355L54.7363 27.9675Z" fill="#646D76"/>
<path d="M54.7363 33.8535V34.4313L60.953 31.1993V30.6215L54.7363 33.8535Z" fill="#656D75"/>
<path d="M54.7361 28.545L55.3479 28.2271V34.1134L54.7361 34.4311V28.545Z" fill="#646D76"/>
<path d="M60.3411 25.5298L60.9529 25.2118V31.0981L60.3411 31.4158V25.5298Z" fill="#646D76"/>
<path d="M43.7145 21.6046L48.7413 19.0093L48.5239 18.8962L43.53 21.5036L43.7145 21.6046Z" fill="#5F6871"/>
<path d="M59.5716 24.8496L59.7734 24.7446L48.524 18.8965L48.2988 19.0139L59.5716 24.8496Z" fill="#5F6871"/>
<path d="M42.9109 22.872L54.1196 28.6818L54.1259 28.2292L42.9109 22.4277V22.7279V27.7061L43.0413 27.7739V22.7802L42.9109 22.872Z" fill="#4B5157"/>
<path d="M55.3479 28.6819L60.3409 26.0883V25.6313L55.3479 28.2272V28.6819Z" fill="#20262B"/>
<path d="M60.0955 25.8128V31.0677L60.3413 30.9399V25.6313L60.0955 25.8128Z" fill="#17263A"/>
<path d="M43.157 22.9495V27.8344L42.9111 27.7066V22.8722L43.157 22.9495Z" fill="#494E54"/>
<path d="M42.9085 21.1881L42.3018 21.5039L54.7357 27.9678L55.3476 27.6495L42.9085 21.1881Z" fill="#93A1AD"/>
<path d="M48.5142 18.2605L47.9077 18.5761L60.3411 25.0402L60.9529 24.7354L48.5142 18.2605Z" fill="#93A1AD"/>
<path d="M54.1196 27.6589L54.736 27.9675L60.9529 24.7357L60.3411 24.4177L54.1196 27.6589Z" fill="#93A1AD"/>
<path d="M42.3022 21.5144L42.9186 21.8232L49.1356 18.5771L48.5258 18.2605L42.3022 21.5144Z" fill="#93A1AD"/>
<path d="M21.9807 24.5066L34.4147 30.9704V24.5066L21.9807 18.0427V24.5066Z" fill="#5F6871"/>
<path d="M40.6321 21.2749V27.7388L34.4148 30.9705V24.5067L40.6321 21.2749Z" fill="#4C535B"/>
<path d="M34.4151 24.5063L40.6318 21.2748L28.1982 14.8107L21.9812 18.0427L34.4151 24.5063Z" fill="#788795"/>
<path d="M21.9807 18.0427V18.652L34.4147 25.0841V24.5066L21.9807 18.0427Z" fill="#788795"/>
<path d="M21.9807 23.9288V24.5381L34.4147 30.9702V30.3927L21.9807 23.9288Z" fill="#788795"/>
<path d="M21.9807 18.0427V24.5381L22.5896 24.8531V18.3594L21.9807 18.0427Z" fill="#788795"/>
<path d="M33.8047 24.5067V30.5613L34.4136 30.8551V24.8018L33.8047 24.5067Z" fill="#788795"/>
<path d="M34.415 24.5063V25.0844L40.6317 21.8523V21.2745L34.415 24.5063Z" fill="#646D76"/>
<path d="M34.415 30.3923V30.9704L40.6317 27.7383V27.1605L34.415 30.3923Z" fill="#656D75"/>
<path d="M34.4148 25.0842L35.0267 24.7662V30.6525L34.4148 30.9703V25.0842Z" fill="#646D76"/>
<path d="M40.02 22.0688L40.6319 21.7509V27.6369L40.02 27.9549V22.0688Z" fill="#646D76"/>
<path d="M23.3935 18.1436L28.4202 15.5484L28.2028 15.4355L23.209 18.0427L23.3935 18.1436Z" fill="#5F6871"/>
<path d="M39.2509 21.3886L39.4527 21.2834L28.2033 15.4355L27.9775 15.5529L39.2509 21.3886Z" fill="#5F6871"/>
<path d="M22.5898 19.4108L33.7983 25.2206L33.8046 24.7685L22.5898 18.967V19.267V24.2454L22.7202 24.313V19.3192L22.5898 19.4108Z" fill="#4B5157"/>
<path d="M35.0271 25.221L40.0201 22.6273V22.1704L35.0271 24.7665V25.221Z" fill="#20262B"/>
<path d="M39.7742 22.3519V27.6068L40.02 27.4789V22.1704L39.7742 22.3519Z" fill="#17263A"/>
<path d="M22.8359 19.4884V24.3734L22.5901 24.2455V19.4111L22.8359 19.4884Z" fill="#494E54"/>
<path d="M22.5875 17.7269L21.9807 18.0428L34.4147 24.5066L35.0265 24.1886L22.5875 17.7269Z" fill="#93A1AD"/>
<path d="M28.1931 14.7993L27.5867 15.1151L40.02 21.579L40.6319 21.2747L28.1931 14.7993Z" fill="#93A1AD"/>
<path d="M33.7983 24.198L34.4147 24.5066L40.6317 21.2748L40.0201 20.9568L33.7983 24.198Z" fill="#93A1AD"/>
<path d="M21.9812 18.0532L22.5975 18.362L28.8145 15.116L28.2048 14.7993L21.9812 18.0532Z" fill="#93A1AD"/>
<path d="M35.3027 31.6214L47.7367 38.0858V31.6214L35.3027 25.1576V31.6214Z" fill="#5F6871"/>
<path d="M53.9532 28.3898V34.8539L47.7366 38.086V31.6218L53.9532 28.3898Z" fill="#4C535B"/>
<path d="M47.7367 31.6215L53.9533 28.39L41.5197 21.9259L35.3027 25.158L47.7367 31.6215Z" fill="#788795"/>
<path d="M35.3027 25.1577V25.767L47.7367 32.1991V31.6216L35.3027 25.1577Z" fill="#788795"/>
<path d="M35.3027 31.0437V31.653L47.7367 38.0856V37.5078L35.3027 31.0437Z" fill="#788795"/>
<path d="M35.3027 25.1577V31.6531L35.911 31.9681V25.4744L35.3027 25.1577Z" fill="#788795"/>
<path d="M47.1262 31.6215V37.6761L47.7351 37.9698V31.9166L47.1262 31.6215Z" fill="#788795"/>
<path d="M47.7366 31.6216V32.1996L53.9532 28.9676V28.3898L47.7366 31.6216Z" fill="#646D76"/>
<path d="M47.7366 37.5075V38.0856L53.9532 34.8536V34.2758L47.7366 37.5075Z" fill="#656D75"/>
<path d="M47.7373 32.1993L48.3486 31.8813V37.7674L47.7373 38.0854V32.1993Z" fill="#646D76"/>
<path d="M53.3423 29.1839L53.9535 28.866V34.752L53.3423 35.07V29.1839Z" fill="#646D76"/>
<path d="M36.7156 25.2586L41.742 22.6634L41.5246 22.5505L36.5308 25.1577L36.7156 25.2586Z" fill="#5F6871"/>
<path d="M52.5723 28.5039L52.7741 28.3986L41.5247 22.5508L41.2996 22.6682L52.5723 28.5039Z" fill="#5F6871"/>
<path d="M35.9111 26.526L47.1199 32.3358L47.1261 31.8838L35.9111 26.0823V26.3822V31.3606L36.0418 31.4282V26.4345L35.9111 26.526Z" fill="#4B5157"/>
<path d="M48.3486 32.3361L53.3422 29.7424V29.2855L48.3486 31.8816V32.3361Z" fill="#20262B"/>
<path d="M53.0959 29.467V34.7219L53.3418 34.5938V29.2853L53.0959 29.467Z" fill="#17263A"/>
<path d="M36.1573 26.6035V31.4885L35.9111 31.3606V26.5262L36.1573 26.6035Z" fill="#494E54"/>
<path d="M35.9097 24.8427L35.3032 25.1579L47.7372 31.6218L48.3484 31.3038L35.9097 24.8427Z" fill="#93A1AD"/>
<path d="M41.515 21.9146L40.908 22.2304L53.3419 28.6942L53.9538 28.39L41.515 21.9146Z" fill="#93A1AD"/>
<path d="M47.1201 31.313L47.7368 31.6216L53.9534 28.3898L53.3419 28.0718L47.1201 31.313Z" fill="#93A1AD"/>
<path d="M35.3027 25.1684L35.9191 25.4772L42.136 22.2315L41.5266 21.9146L35.3027 25.1684Z" fill="#93A1AD"/>
<path d="M14.7617 28.1658L27.1951 34.6296V28.1658L14.7617 21.7019V28.1658Z" fill="#5F6871"/>
<path d="M33.4121 24.9336V31.3977L27.1948 34.6298V28.1659L33.4121 24.9336Z" fill="#4C535B"/>
<path d="M27.1954 28.1657L33.4123 24.9337L20.9787 18.4701L14.7617 21.7022L27.1954 28.1657Z" fill="#788795"/>
<path d="M14.7617 21.7021V22.3115L27.1951 28.7435V28.166L14.7617 21.7021Z" fill="#788795"/>
<path d="M14.7617 27.5881V28.1974L27.1951 34.6295V34.052L14.7617 27.5881Z" fill="#788795"/>
<path d="M14.7617 21.7021V28.1975L15.37 28.512V22.0185L14.7617 21.7021Z" fill="#788795"/>
<path d="M26.5852 28.1656V34.2202L27.1935 34.514V28.4607L26.5852 28.1656Z" fill="#788795"/>
<path d="M27.1953 28.1657V28.7435L33.412 25.5114V24.9336L27.1953 28.1657Z" fill="#646D76"/>
<path d="M27.1953 34.052V34.6298L33.412 31.3978V30.8199L27.1953 34.052Z" fill="#656D75"/>
<path d="M27.1951 28.7432L27.8069 28.4252V34.3115L27.1951 34.6292V28.7432Z" fill="#646D76"/>
<path d="M32.8008 25.7281L33.412 25.4102V31.2965L32.8008 31.6142V25.7281Z" fill="#646D76"/>
<path d="M16.1741 21.8027L21.2005 19.2074L20.9831 19.0944L15.9893 21.7018L16.1741 21.8027Z" fill="#5F6871"/>
<path d="M32.0308 25.0481L32.2326 24.9428L20.9832 19.0947L20.7581 19.2121L32.0308 25.0481Z" fill="#5F6871"/>
<path d="M15.3701 23.0705L26.5788 28.8803L26.5851 28.4277L15.3701 22.6262V22.9264V27.9046L15.5005 27.9724V22.9787L15.3701 23.0705Z" fill="#4B5157"/>
<path d="M27.8071 28.8803L32.8007 26.2866V25.8297L27.8071 28.4255V28.8803Z" fill="#20262B"/>
<path d="M32.5544 26.0108V31.266L32.8003 31.1379V25.8293L32.5544 26.0108Z" fill="#17263A"/>
<path d="M15.6159 23.1477V28.0327L15.3701 27.9048V23.0704L15.6159 23.1477Z" fill="#494E54"/>
<path d="M15.3684 21.3864L14.762 21.7022L27.1953 28.166L27.8072 27.8478L15.3684 21.3864Z" fill="#93A1AD"/>
<path d="M20.9734 18.4587L20.3669 18.7743L32.8009 25.2384L33.4121 24.9336L20.9734 18.4587Z" fill="#93A1AD"/>
<path d="M26.5791 27.8572L27.1954 28.1657L33.4124 24.9339L32.8009 24.616L26.5791 27.8572Z" fill="#93A1AD"/>
<path d="M14.7617 21.7126L15.3781 22.0214L21.595 18.7754L20.9856 18.4587L14.7617 21.7126Z" fill="#93A1AD"/>
<path d="M28.0825 35.2809L40.5165 41.7447V35.2809L28.0825 28.817V35.2809Z" fill="#5F6871"/>
<path d="M46.7339 32.0488V38.5132L40.5166 41.745V35.2812L46.7339 32.0488Z" fill="#4C535B"/>
<path d="M40.5169 35.2808L46.7336 32.0488L34.3 25.5852L28.083 28.8173L40.5169 35.2808Z" fill="#788795"/>
<path d="M28.0825 28.817V29.4263L40.5165 35.8584V35.2809L28.0825 28.817Z" fill="#788795"/>
<path d="M28.0825 34.7032V35.3126L40.5165 41.7446V41.1671L28.0825 34.7032Z" fill="#788795"/>
<path d="M28.0825 28.817V35.3124L28.6914 35.6274V29.1334L28.0825 28.817Z" fill="#788795"/>
<path d="M39.907 35.2809V41.3355L40.5153 41.6292V35.576L39.907 35.2809Z" fill="#788795"/>
<path d="M40.5171 35.2809V35.8587L46.7338 32.6266V32.0488L40.5171 35.2809Z" fill="#646D76"/>
<path d="M40.5171 41.1669V41.7447L46.7338 38.5129V37.9348L40.5171 41.1669Z" fill="#656D75"/>
<path d="M40.5166 35.8588L41.1285 35.5408V41.4271L40.5166 41.7448V35.8588Z" fill="#646D76"/>
<path d="M46.1223 32.843L46.7342 32.525V38.4113L46.1223 38.7291V32.843Z" fill="#646D76"/>
<path d="M29.4953 28.918L34.5221 26.3227L34.3046 26.2096L29.3108 28.817L29.4953 28.918Z" fill="#5F6871"/>
<path d="M45.3527 32.1633L45.5545 32.058L34.3051 26.21L34.0793 26.3276L45.3527 32.1633Z" fill="#5F6871"/>
<path d="M28.6914 30.1853L39.8998 35.9952L39.9064 35.5426L28.6914 29.7411V30.0413V35.0194L28.8218 35.0873V30.0938L28.6914 30.1853Z" fill="#4B5157"/>
<path d="M41.1289 35.9952L46.1219 33.4015V32.9446L41.1289 35.5407V35.9952Z" fill="#20262B"/>
<path d="M45.8757 33.1261V38.381L46.1216 38.2531V32.9446L45.8757 33.1261Z" fill="#17263A"/>
<path d="M28.9377 30.2628V35.1478L28.6919 35.0199V30.1855L28.9377 30.2628Z" fill="#494E54"/>
<path d="M28.6898 28.5015L28.083 28.8173L40.5169 35.2811L41.1288 34.9632L28.6898 28.5015Z" fill="#93A1AD"/>
<path d="M34.295 25.574L33.6885 25.8895L46.1218 32.3537L46.7337 32.0489L34.295 25.574Z" fill="#93A1AD"/>
<path d="M39.9004 34.9723L40.5167 35.2809L46.7337 32.0491L46.1221 31.7311L39.9004 34.9723Z" fill="#93A1AD"/>
<path d="M28.083 28.8278L28.6994 29.1367L34.9163 25.8906L34.3066 25.574L28.083 28.8278Z" fill="#93A1AD"/>
<path d="M7.84741 31.9542L20.2814 38.4184V31.9542L7.84741 25.4901V31.9542Z" fill="#5F6871"/>
<path d="M26.4982 28.7222V35.1863L20.2815 38.4183V31.9545L26.4982 28.7222Z" fill="#4C535B"/>
<path d="M20.2814 31.9543L26.498 28.7222L14.0644 22.2587L7.84741 25.4902L20.2814 31.9543Z" fill="#788795"/>
<path d="M7.84741 25.4901V26.0994L20.2814 32.532V31.9545L7.84741 25.4901Z" fill="#788795"/>
<path d="M7.84741 31.3767V31.986L20.2814 38.4181V37.8406L7.84741 31.3767Z" fill="#788795"/>
<path d="M7.84766 25.4904V31.986L8.45593 32.3007V25.807L7.84766 25.4904Z" fill="#788795"/>
<path d="M19.6711 31.9543V38.0089L20.28 38.3027V32.2494L19.6711 31.9543Z" fill="#788795"/>
<path d="M20.2815 31.9546V32.5324L26.4982 29.3003V28.7225L20.2815 31.9546Z" fill="#646D76"/>
<path d="M20.2815 37.8406V38.4184L26.4982 35.1863V34.6085L20.2815 37.8406Z" fill="#656D75"/>
<path d="M20.2815 32.5321L20.8928 32.2141V38.1002L20.2815 38.4181V32.5321Z" fill="#646D76"/>
<path d="M25.8872 29.5165L26.4985 29.1985V35.0848L25.8872 35.4025V29.5165Z" fill="#646D76"/>
<path d="M9.26025 25.5914L14.2867 22.9964L14.0693 22.8833L9.07544 25.4904L9.26025 25.5914Z" fill="#5F6871"/>
<path d="M25.117 28.8364L25.3188 28.7314L14.0694 22.8833L13.8442 23.0007L25.117 28.8364Z" fill="#5F6871"/>
<path d="M8.45605 26.8591L19.6648 32.6689L19.6711 32.2163L8.45605 26.4148V26.715V31.6931L8.58674 31.761V26.7672L8.45605 26.8591Z" fill="#4B5157"/>
<path d="M20.8928 32.6686L25.8864 30.0752V29.618L20.8928 32.2141V32.6686Z" fill="#20262B"/>
<path d="M25.6406 29.7998V35.0547L25.8864 34.9268V29.618L25.6406 29.7998Z" fill="#17263A"/>
<path d="M8.70247 26.9364V31.8214L8.45605 31.6935V26.8591L8.70247 26.9364Z" fill="#494E54"/>
<path d="M8.45419 25.1748L7.84741 25.4904L20.2814 31.9545L20.8932 31.6362L8.45419 25.1748Z" fill="#93A1AD"/>
<path d="M14.0595 22.2476L13.4524 22.5628L25.8863 29.0267L26.4982 28.7225L14.0595 22.2476Z" fill="#93A1AD"/>
<path d="M19.665 31.646L20.2817 31.9546L26.4984 28.7228L25.8868 28.4048L19.665 31.646Z" fill="#93A1AD"/>
<path d="M7.84741 25.5012L8.46376 25.81L14.6807 22.564L14.0713 22.2473L7.84741 25.5012Z" fill="#93A1AD"/>
<path d="M20.9429 39.0695L33.3768 45.5336V39.0695L20.9429 32.6053V39.0695Z" fill="#5F6871"/>
<path d="M39.5947 35.8374V42.3015L33.3774 45.5336V39.0697L39.5947 35.8374Z" fill="#4C535B"/>
<path d="M33.3775 39.0694L39.5942 35.8374L27.1606 29.3738L20.9436 32.6053L33.3775 39.0694Z" fill="#788795"/>
<path d="M20.9429 32.6053V33.2147L33.3768 39.6473V39.0697L20.9429 32.6053Z" fill="#788795"/>
<path d="M20.9429 38.4919V39.1013L33.3768 45.5333V44.9558L20.9429 38.4919Z" fill="#788795"/>
<path d="M20.9429 32.6056V39.1012L21.5517 39.416V32.9222L20.9429 32.6056Z" fill="#788795"/>
<path d="M32.7668 39.0695V45.1241L33.3757 45.4178V39.3646L32.7668 39.0695Z" fill="#788795"/>
<path d="M33.3777 39.0695V39.6473L39.5944 36.4152V35.8374L33.3777 39.0695Z" fill="#646D76"/>
<path d="M33.3777 44.9557V45.5335L39.5944 42.3014V41.7236L33.3777 44.9557Z" fill="#656D75"/>
<path d="M33.3774 39.647L33.9893 39.329V45.2153L33.3774 45.533V39.647Z" fill="#646D76"/>
<path d="M38.9827 36.6319L39.5945 36.314V42.2003L38.9827 42.518V36.6319Z" fill="#646D76"/>
<path d="M22.3561 32.7065L27.3829 30.1115L27.1655 29.9984L22.1716 32.6055L22.3561 32.7065Z" fill="#5F6871"/>
<path d="M38.213 35.9518L38.4149 35.8465L27.1655 29.9984L26.9397 30.1158L38.213 35.9518Z" fill="#5F6871"/>
<path d="M21.5525 33.9743L32.7606 39.7841L32.7669 39.3315L21.5525 33.53V33.8302V38.8084L21.6826 38.8762V33.8825L21.5525 33.9743Z" fill="#4B5157"/>
<path d="M33.9893 39.7841L38.9822 37.1904V36.7335L33.9893 39.3293V39.7841Z" fill="#20262B"/>
<path d="M38.7368 36.9148V42.1697L38.9826 42.0418V36.7333L38.7368 36.9148Z" fill="#17263A"/>
<path d="M21.7983 34.0514V38.9364L21.5525 38.8085V33.9741L21.7983 34.0514Z" fill="#494E54"/>
<path d="M21.5504 32.29L20.9436 32.6056L33.3775 39.0697L33.9894 38.7515L21.5504 32.29Z" fill="#93A1AD"/>
<path d="M27.1553 29.3628L26.5488 29.6781L38.9822 36.1419L39.594 35.8377L27.1553 29.3628Z" fill="#93A1AD"/>
<path d="M32.7607 38.7609L33.3771 39.0694L39.5941 35.8376L38.9825 35.5197L32.7607 38.7609Z" fill="#93A1AD"/>
<path d="M20.9436 32.6164L21.5599 32.9252L27.7769 29.6792L27.1672 29.3625L20.9436 32.6164Z" fill="#93A1AD"/>
<path d="M0.62207 35.6085L13.056 42.0724V35.6085L0.62207 29.1447V35.6085Z" fill="#5F6871"/>
<path d="M19.2734 32.3765V38.8409L13.0562 42.0726V35.6088L19.2734 32.3765Z" fill="#4C535B"/>
<path d="M13.0565 35.6082L19.2732 32.3762L6.83953 25.9126L0.622559 29.1447L13.0565 35.6082Z" fill="#788795"/>
<path d="M0.62207 29.1447V29.754L13.056 36.186V35.6085L0.62207 29.1447Z" fill="#788795"/>
<path d="M0.62207 35.0308V35.6401L13.056 42.0722V41.4946L0.62207 35.0308Z" fill="#788795"/>
<path d="M0.62207 29.1447V35.64L1.23094 35.955V29.461L0.62207 29.1447Z" fill="#788795"/>
<path d="M12.4458 35.6085V41.6631L13.0547 41.9569V35.9036L12.4458 35.6085Z" fill="#788795"/>
<path d="M13.0564 35.6085V36.1863L19.2731 32.9545V32.3765L13.0564 35.6085Z" fill="#646D76"/>
<path d="M13.0564 41.4946V42.0727L19.2731 38.8406V38.2628L13.0564 41.4946Z" fill="#656D75"/>
<path d="M13.0564 36.1861L13.6677 35.8682V41.7545L13.0564 42.0722V36.1861Z" fill="#646D76"/>
<path d="M18.6614 33.171L19.2732 32.853V38.7391L18.6614 39.0571V33.171Z" fill="#646D76"/>
<path d="M2.03467 29.2457L7.06112 26.6504L6.844 26.5376L1.84985 29.1447L2.03467 29.2457Z" fill="#5F6871"/>
<path d="M17.8916 32.4909L18.0935 32.3857L6.84408 26.5378L6.6189 26.6552L17.8916 32.4909Z" fill="#5F6871"/>
<path d="M1.23096 30.5129L12.4397 36.3228L12.4457 35.8702L1.23096 30.0692V30.3692V35.3476L1.36134 35.4151V30.4214L1.23096 30.5129Z" fill="#4B5157"/>
<path d="M13.6677 36.3229L18.6613 33.7293V33.2723L13.6677 35.8684V36.3229Z" fill="#20262B"/>
<path d="M18.4153 33.4541V38.7087L18.6611 38.5808V33.2723L18.4153 33.4541Z" fill="#17263A"/>
<path d="M1.47708 30.5906V35.4756L1.23096 35.3477V30.5133L1.47708 30.5906Z" fill="#494E54"/>
<path d="M1.22866 28.8291L0.621582 29.1449L13.0555 35.6088L13.6674 35.2908L1.22866 28.8291Z" fill="#93A1AD"/>
<path d="M6.83431 25.9016L6.22754 26.2174L18.6615 32.6813L19.2733 32.3765L6.83431 25.9016Z" fill="#93A1AD"/>
<path d="M12.4397 35.2999L13.056 35.6085L19.273 32.3767L18.6615 32.0587L12.4397 35.2999Z" fill="#93A1AD"/>
<path d="M0.62207 29.1555L1.23841 29.4643L7.45538 26.2182L6.84592 25.9016L0.62207 29.1555Z" fill="#93A1AD"/>
<path d="M13.9441 42.7237L26.378 49.1876V42.7237L13.9441 36.2599V42.7237Z" fill="#5F6871"/>
<path d="M32.5946 39.4919V45.9558L26.3779 49.1876V42.7237L32.5946 39.4919Z" fill="#4C535B"/>
<path d="M26.378 42.7235L32.5947 39.492L20.1611 33.0278L13.9441 36.2599L26.378 42.7235Z" fill="#788795"/>
<path d="M13.9441 36.2599V36.8692L26.378 43.3013V42.7237L13.9441 36.2599Z" fill="#788795"/>
<path d="M13.9441 42.1459V42.7552L26.378 49.1873V48.6097L13.9441 42.1459Z" fill="#788795"/>
<path d="M13.9443 36.2599V42.7552L14.5526 43.0703V36.5765L13.9443 36.2599Z" fill="#788795"/>
<path d="M25.7673 42.7236V48.7782L26.3762 49.072V43.0187L25.7673 42.7236Z" fill="#788795"/>
<path d="M26.3779 42.7235V43.3016L32.5946 40.0695V39.4917L26.3779 42.7235Z" fill="#646D76"/>
<path d="M26.3779 48.6098V49.1879L32.5946 45.9559V45.3781L26.3779 48.6098Z" fill="#656D75"/>
<path d="M26.3782 43.3013L26.9894 42.9833V48.8696L26.3782 49.1873V43.3013Z" fill="#646D76"/>
<path d="M31.9832 40.2862L32.5944 39.9683V45.8543L31.9832 46.1723V40.2862Z" fill="#646D76"/>
<path d="M15.3569 36.3608L20.3834 33.7655L20.166 33.6527L15.1721 36.2598L15.3569 36.3608Z" fill="#5F6871"/>
<path d="M31.2134 39.606L31.4153 39.5008L20.1659 33.653L19.9407 33.7703L31.2134 39.606Z" fill="#5F6871"/>
<path d="M14.5522 37.6279L25.761 43.4378L25.7673 42.9857L14.5522 37.1842V37.4841V42.4626L14.6829 42.5301V37.5364L14.5522 37.6279Z" fill="#4B5157"/>
<path d="M26.9895 43.438L31.9831 40.8444V40.3875L26.9895 42.9835V43.438Z" fill="#20262B"/>
<path d="M31.7373 40.5692V45.8238L31.9831 45.696V40.3875L31.7373 40.5692Z" fill="#17263A"/>
<path d="M14.7987 37.7054V42.5904L14.5522 42.4625V37.6282L14.7987 37.7054Z" fill="#494E54"/>
<path d="M14.5508 35.9442L13.9443 36.26L26.3783 42.7239L26.9895 42.4059L14.5508 35.9442Z" fill="#93A1AD"/>
<path d="M20.156 33.0165L19.5496 33.3323L31.9835 39.7962L32.5948 39.4919L20.156 33.0165Z" fill="#93A1AD"/>
<path d="M25.7617 42.4152L26.3784 42.7237L32.595 39.4919L31.9835 39.174L25.7617 42.4152Z" fill="#93A1AD"/>
<path d="M13.9441 36.2703L14.5604 36.5792L20.7774 33.3331L20.1679 33.0165L13.9441 36.2703Z" fill="#93A1AD"/>
</svg>
