<svg width="462" height="489" viewBox="0 0 462 489" fill="none" xmlns="http://www.w3.org/2000/svg">
<g id="Group">
<path id="Vector" d="M226.798 162.349C224.844 165.088 224.193 166.914 224.193 168.283C224.193 168.307 224.193 168.33 224.197 168.351C224.22 168.55 224.336 168.698 224.197 168.351C224.038 167.959 223.553 166.935 222.237 164.632C222.237 165.088 222.237 165.545 221.586 166.001C220.283 167.37 215.724 167.37 213.118 167.37H211.164C210.513 167.37 210.513 167.37 210.513 166.914V166.457C209.86 166.001 209.86 165.544 209.86 165.088C209.86 164.632 209.21 164.632 209.21 164.632H208.557L207.907 165.088C207.907 165.544 207.256 166.457 207.256 166.914C207.256 167.37 207.256 167.827 206.603 168.283C206.603 168.74 205.953 168.74 204.649 168.74C203.346 168.74 203.346 168.283 203.346 167.827C203.346 167.37 203.346 166.914 202.045 166.914C200.741 166.914 200.741 167.37 200.089 167.827C200.089 167.827 200.089 168.283 199.438 168.74L195.53 170.109L191.62 171.479C190.319 171.935 187.712 173.304 185.758 174.674C184.455 175.587 182.501 176.5 182.501 176.956C182.501 177.413 181.85 177.869 181.85 178.782V180.608C182.501 181.977 182.501 181.977 181.198 182.89C180.547 182.89 179.244 183.803 177.94 184.26C176.639 184.716 174.683 185.173 174.032 185.629C173.382 185.629 172.078 186.086 171.428 186.542C170.124 186.999 169.472 187.455 168.821 187.912C168.17 187.912 167.518 188.368 166.867 188.368H164.261H163.61V187.912V187.455C163.61 186.999 163.61 186.542 164.261 186.086C164.913 185.629 166.867 185.173 168.17 185.173H169.474C170.124 184.716 170.775 184.716 171.428 184.26C172.078 184.26 172.729 183.803 173.382 182.89C174.032 181.521 173.382 181.064 172.729 180.608L171.428 179.695C170.775 179.695 170.775 179.239 170.775 179.239V178.326C170.775 178.326 170.775 177.869 171.428 177.869C172.078 177.413 172.729 176.956 173.382 176.956C174.032 176.956 174.683 176.5 174.683 176.5V176.043L174.032 175.587H174.03C173.382 175.13 173.382 175.13 172.729 175.13H169.474H166.216C164.26 175.13 164.26 174.674 163.61 174.217C162.959 174.217 162.959 173.761 162.959 173.761C162.307 173.305 161.656 172.848 160.353 172.848H159.702C158.399 172.391 156.445 172.392 156.445 171.935C156.445 171.935 157.095 171.479 157.746 171.479C159.049 171.479 160.353 171.022 161.003 170.566C161.656 169.653 161.656 169.653 161.003 169.196C161.003 168.74 160.353 168.74 160.353 168.74L159.702 168.283C159.702 167.827 159.049 167.37 158.399 166.457V165.088C159.049 164.632 159.702 164.632 160.353 164.632C160.353 164.632 161.005 164.632 161.656 164.175C162.306 163.719 162.959 162.806 162.959 162.349C162.959 162.349 163.61 161.893 163.61 161.436C164.26 160.98 164.261 160.523 164.913 160.067C165.564 159.61 165.564 158.697 165.564 157.787C165.564 156.417 166.867 155.046 167.518 153.676C167.518 153.22 168.17 152.763 168.17 152.307C168.17 151.85 168.17 150.938 167.518 150.481C166.867 150.025 165.564 149.112 164.261 148.655C162.957 148.199 160.352 146.832 158.399 145.919L158.392 145.914C155.788 144.547 153.187 143.178 152.535 142.723C151.233 142.267 151.233 141.81 151.233 141.354V139.985C151.233 139.528 151.233 139.072 150.581 139.072H149.93L149.279 139.528C148.627 139.984 147.976 140.897 147.976 141.354C147.976 141.81 147.976 142.267 147.323 142.723C146.673 143.18 146.022 143.636 145.369 143.636C144.068 143.636 143.415 143.636 142.765 143.18C142.112 143.18 141.461 142.267 140.811 141.81C140.158 141.354 139.508 140.897 138.204 140.897C136.901 140.897 134.947 140.897 134.296 141.354C132.993 141.81 132.342 142.267 131.69 143.18C131.039 144.09 131.039 144.547 131.039 145.46V145.462V145.919V146.832C131.039 147.288 130.386 147.286 129.736 147.742L129.085 148.199C126.478 149.568 126.478 150.937 126.478 153.676V154.133C126.478 155.502 125.828 156.415 125.175 157.328V157.33C124.522 157.787 123.221 158.698 120.617 159.61C118.663 160.067 117.359 160.523 116.056 160.98C112.798 161.893 110.845 162.806 108.891 164.175C107.587 165.545 106.284 167.827 105.633 169.653C105.633 171.022 105.633 172.848 106.937 173.761V174.217C107.587 175.13 107.587 176.043 106.937 176.956C106.284 177.869 104.983 178.782 104.33 179.239C103.679 179.695 103.679 180.152 103.027 180.152C102.376 180.608 101.725 180.608 100.422 180.608C98.4681 180.608 97.1648 180.608 95.8614 180.152C94.5581 180.152 93.2568 180.608 92.6041 181.064C91.9535 181.521 91.3029 182.434 91.3029 182.89V183.347H90.6502C89.9995 183.347 89.9996 182.89 89.3469 182.89C88.0436 182.434 86.7423 181.521 86.0896 180.608C85.4389 179.695 84.1356 179.239 82.1817 179.239C80.2277 179.239 78.9244 179.695 77.6211 180.152C76.3198 181.065 75.667 181.521 75.667 182.434C75.667 182.89 75.667 183.803 76.3197 184.716V186.998C76.3197 187.911 75.667 189.281 76.3197 191.563C76.9703 194.302 78.9243 195.672 81.531 197.041L84.7883 199.323C84.7883 199.78 85.4389 199.78 85.4389 200.236L85.6047 200.382C88.1305 202.595 90.1239 204.342 95.8614 204.342C101.073 204.799 101.725 205.255 103.679 206.624L104.33 207.081C104.983 207.994 106.284 208.45 106.937 208.45H108.238C108.891 208.45 109.541 208.45 109.541 207.994C110.194 207.994 110.194 207.537 110.194 207.537V206.624C110.194 205.712 110.194 205.255 112.148 204.342C114.752 203.432 119.313 208.45 120.617 209.82V210.276C120.617 210.276 121.918 211.646 122.57 212.558C123.221 213.471 123.221 213.928 123.221 214.384V217.58V219.862C123.221 220.775 126.478 223.514 129.085 225.34L129.736 225.796C131.039 226.709 132.993 227.166 134.947 227.622C136.901 228.079 139.505 228.078 141.459 228.078H141.462C144.066 228.078 146.022 228.079 147.323 227.622C148.627 227.166 149.93 226.253 150.581 225.796C151.233 224.883 151.233 224.427 151.233 223.97V222.601C150.581 221.688 151.233 221.688 151.884 221.232C152.537 221.232 152.537 220.775 153.187 220.775C154.491 220.319 154.491 220.319 155.141 219.862C155.141 219.406 155.792 218.949 155.792 218.493C155.792 217.58 155.792 217.123 156.445 216.667C156.445 216.21 157.095 215.754 157.746 214.841C158.399 213.928 159.049 213.928 159.702 213.928C160.353 213.928 161.005 213.928 161.656 213.472C162.309 213.015 162.959 212.559 164.261 212.102C165.564 211.646 166.867 211.646 168.17 211.646C169.472 211.646 170.775 212.559 172.076 213.472H172.078L174.032 214.841C175.336 215.297 175.986 215.754 175.986 216.21C176.639 216.667 176.639 217.123 177.94 217.58C178.593 218.036 179.244 218.036 179.896 218.036C180.547 217.58 181.85 217.58 184.455 218.493C187.712 219.406 188.363 220.319 188.363 220.775L189.015 221.232H190.319C190.969 221.232 191.62 221.231 191.62 220.775H196.181C196.833 220.775 196.833 221.232 197.484 221.232C197.484 221.688 197.484 221.688 198.135 221.688H198.787H199.438C200.089 221.688 200.089 221.688 200.089 221.232V220.775V219.862C200.089 219.406 200.741 219.406 200.741 219.406H202.045C202.045 219.862 202.695 219.862 203.346 220.318C203.999 220.318 203.999 220.775 203.999 220.775C204.649 221.231 204.649 221.688 205.953 221.688H211.164H212.467C213.768 221.688 213.77 222.144 213.77 222.601V223.057V223.514V223.97V224.427C214.421 224.883 215.072 225.34 214.421 226.253C214.421 226.709 213.768 226.709 213.118 226.709C212.467 226.709 211.815 226.709 211.815 227.166V228.078C212.467 228.535 212.467 228.991 213.118 228.991C213.768 229.448 213.768 229.448 214.421 229.448C215.072 229.448 215.725 229.904 216.375 230.361C217.026 230.817 217.026 230.817 216.375 231.274C216.375 231.274 216.375 231.73 215.724 232.187C215.072 232.643 215.072 233.1 214.421 233.1L213.118 232.187C212.467 231.274 211.815 231.274 211.815 230.817C211.815 230.817 211.164 230.817 211.164 230.361C210.513 229.448 210.513 228.991 209.21 229.448C209.21 229.904 208.557 229.904 208.557 229.904C207.907 229.904 207.256 230.361 206.603 229.904C206.603 229.448 205.953 229.448 205.953 229.448H204.649L203.346 230.361C202.695 230.817 202.045 231.73 201.392 232.187C201.392 233.1 200.089 233.1 198.135 233.1H197.484C196.833 233.1 196.181 233.556 195.53 233.556C194.877 234.013 194.877 234.013 194.877 234.469C194.877 234.925 194.877 234.926 194.227 235.382C194.227 235.839 192.923 236.295 191.62 236.295C189.015 236.295 189.015 236.751 188.363 237.208L187.712 237.664L187.061 238.121H185.758C185.108 238.121 184.455 237.664 184.455 237.664L183.804 237.208C183.152 236.751 182.501 236.751 181.85 236.751H181.198C181.198 237.208 180.547 237.208 180.547 237.208C180.547 237.664 179.896 237.664 179.896 238.121V238.577C179.244 239.034 179.244 239.947 183.804 240.403C185.108 240.86 185.758 240.86 186.409 241.316V241.773V242.229C185.758 242.685 185.108 242.686 183.804 242.686C181.85 242.686 181.198 242.685 180.547 243.598V245.881C180.547 246.337 179.896 246.337 179.896 246.794L179.244 247.25H177.94C177.29 247.25 175.986 247.25 175.336 246.794C174.683 246.337 174.032 246.337 173.382 246.337C172.729 246.337 172.078 246.337 171.428 246.794C170.775 247.25 170.775 247.707 170.124 248.163C169.472 248.62 169.472 249.989 170.124 250.902C170.775 251.815 171.428 252.271 171.428 252.728C172.078 254.097 172.078 254.554 171.428 256.836C170.775 259.116 168.17 259.573 166.216 260.029C164.913 260.029 163.61 260.486 163.61 260.942V262.768V264.594C163.61 265.05 162.959 265.507 162.959 265.507C162.307 265.963 162.306 265.963 161.656 267.789V270.528C161.656 270.984 161.656 271.897 161.003 272.354C160.353 272.81 159.702 274.18 159.702 275.549C159.702 276.918 160.353 277.831 161.003 278.744C162.306 280.57 163.61 280.57 164.913 280.57H165.564H166.867C168.17 280.57 168.821 280.57 169.474 281.027C170.124 281.483 171.428 282.853 173.382 283.765C174.683 284.222 176.639 285.135 178.593 286.048C181.198 287.417 185.108 288.33 187.712 288.787C189.666 289.243 191.622 289.7 192.273 290.156C194.227 291.069 216.375 313.436 216.375 313.436C216.375 313.436 224.844 320.737 224.844 322.107C224.844 322.107 224.193 322.563 224.193 323.019C223.54 323.932 223.54 324.845 225.494 326.671C228.101 328.954 231.358 329.41 233.963 330.323C234.616 330.323 235.266 330.779 235.917 330.779C237.22 331.236 238.523 331.692 239.827 332.605C241.13 333.516 242.431 334.431 243.084 335.344C243.735 336.255 244.387 337.17 244.387 337.627C245.038 338.083 245.038 338.539 245.689 338.996C246.341 338.996 246.341 339.452 246.992 339.452C248.295 339.909 250.249 340.365 250.9 340.822C251.553 340.822 252.203 341.278 252.854 341.735C254.157 342.191 254.81 343.104 256.111 343.561C258.067 344.93 259.368 345.843 260.021 347.212V347.669H259.368H258.718H258.716C257.414 347.212 256.111 346.756 255.461 346.299C254.157 345.386 252.203 344.93 250.249 344.474C249.597 344.474 248.946 344.017 248.295 344.017H247.643C245.689 343.561 244.385 343.104 243.084 343.561C242.431 343.561 241.13 344.017 239.827 344.017H239.174C238.523 344.474 237.873 344.017 237.22 343.561C235.917 342.648 235.266 341.735 234.616 341.278C234.616 340.822 233.312 340.822 232.009 340.365C231.358 339.909 230.055 339.909 229.404 339.452C228.752 338.996 227.448 338.539 226.147 338.539C224.844 338.539 223.54 338.539 222.89 338.996L222.888 338.998C222.237 339.909 222.237 339.909 221.586 340.365L219.632 341.735C218.98 342.191 217.678 342.191 216.375 341.735C215.072 341.735 213.768 340.822 213.118 340.365C211.814 339.909 210.511 338.539 209.86 337.627L209.21 337.17L207.907 336.257C207.256 336.257 207.256 335.801 206.603 335.801L203.999 334.888C203.346 334.431 202.695 334.431 202.695 333.975L202.045 333.518H201.392H200.741C200.741 333.518 200.089 333.518 200.089 333.975C200.089 334.431 200.741 335.801 201.392 336.714C202.045 336.714 202.045 337.17 202.045 337.17C202.695 338.083 202.695 338.083 203.346 338.083C203.346 338.083 204.649 338.539 205.302 338.996C205.953 339.452 205.953 339.909 206.603 340.365C207.256 340.822 207.907 341.735 209.21 342.191C210.513 342.648 211.815 343.104 212.467 343.561C213.118 343.561 215.072 344.017 217.026 344.474C218.329 344.93 219.632 344.93 220.283 344.474C220.936 344.017 221.586 344.017 222.89 343.561C224.191 343.104 225.494 343.104 227.448 342.648C230.706 342.191 231.358 343.104 232.009 344.017C232.662 344.017 232.66 344.474 232.66 344.474C233.312 345.387 233.963 345.843 234.616 346.299C235.919 346.756 236.57 347.212 237.22 347.212H237.873C239.174 347.212 243.735 347.669 246.341 348.582C248.295 349.038 251.553 351.321 254.81 353.147C256.764 354.516 259.369 355.885 260.672 356.342C262.626 357.255 264.58 359.078 266.534 360.904C267.837 361.817 268.49 362.732 269.791 363.645C270.442 364.102 271.094 364.558 271.094 365.015V365.928C271.094 365.928 271.094 366.384 270.444 366.384C269.791 366.384 269.14 366.841 268.49 366.841H266.534C265.232 366.841 263.929 366.841 262.626 367.754L259.368 370.034C258.718 370.49 258.067 371.403 257.414 371.403C256.764 371.403 256.111 371.859 255.461 371.859C254.157 372.316 252.854 372.772 252.203 373.229V375.511V376.424V376.881L251.553 377.337H250.249C250.249 377.337 249.597 377.337 248.946 376.881C247.643 376.424 246.992 376.424 245.689 376.424H243.084H241.13V376.881V377.337C241.13 377.794 241.781 378.25 242.431 378.25C243.084 378.706 244.385 379.163 245.038 379.619C245.689 380.076 246.341 380.532 246.992 381.445L247.643 382.358H247.645C248.295 383.271 248.295 383.271 249.599 384.641C250.249 385.553 250.9 385.554 251.553 385.554C252.203 385.097 252.203 384.641 252.854 383.728C252.854 382.815 253.507 381.902 254.81 381.445C256.111 380.532 258.067 380.076 260.672 379.163C265.883 377.337 268.49 381.445 269.791 382.815V383.271C270.444 384.184 271.747 384.641 273.048 385.554C274.352 386.466 276.306 387.379 278.26 387.836C282.17 389.205 283.471 388.749 284.124 388.749H284.774V389.205L282.82 390.575L281.517 391.488C280.866 391.944 279.563 392.401 279.563 392.857V393.314C279.563 394.224 279.563 394.683 278.912 395.139C278.26 395.596 278.26 395.596 277.609 395.596C276.958 395.596 276.958 395.596 276.306 396.052C276.306 396.509 275.655 396.509 275.002 396.509H273.701C273.048 396.509 273.048 397.422 273.048 397.878C272.398 398.791 273.048 399.248 273.048 399.704V400.161C273.048 400.617 273.701 400.617 274.352 400.617C275.002 400.617 275.004 400.161 275.655 400.161C276.306 400.161 276.306 399.704 276.306 399.704C276.306 399.248 276.958 399.248 277.609 398.791H278.26H280.216H280.866C281.517 398.791 281.517 399.248 282.17 398.791C282.17 398.791 282.82 398.335 283.473 398.335C284.123 397.878 282.82 396.965 282.82 396.965C282.169 396.052 281.517 396.052 281.517 395.596C281.517 395.139 282.169 394.226 282.82 394.683C283.471 395.139 284.124 395.139 284.124 396.052V397.422V398.335V398.791C284.124 399.248 284.124 400.161 284.774 401.074C285.425 401.074 285.427 401.53 285.427 401.53C285.427 401.986 286.077 401.986 286.077 402.899V403.812C286.077 403.812 286.078 403.356 285.427 402.899C285.427 402.443 284.774 401.986 284.774 401.53C284.774 401.073 284.124 400.617 284.124 400.617H283.473H282.82C282.169 400.617 282.17 401.074 282.17 401.074V401.53C281.517 401.986 281.517 402.443 281.517 402.899V403.356C280.866 403.356 280.866 402.899 280.866 402.443V401.986C280.866 401.986 280.866 401.53 280.216 401.53H278.912H278.26C277.609 401.53 277.609 401.986 277.609 402.443V402.899C277.609 403.356 276.958 403.356 276.958 403.356C276.306 403.356 275.655 403.356 275.002 404.269C274.352 405.182 275.002 405.638 275.655 406.095C275.655 406.095 276.306 406.551 276.958 406.551H277.609C278.26 406.551 278.26 407.008 278.912 407.008C278.912 407.008 279.563 407.008 280.216 407.464C280.216 407.921 280.866 407.92 280.866 408.377V408.833V409.29H280.216H279.563H278.26V409.746C278.26 410.203 278.912 410.659 279.563 410.659C279.563 411.116 280.216 411.116 280.216 411.116H280.866C281.517 411.572 283.473 412.485 283.473 412.942C283.473 413.398 282.82 413.398 282.17 413.398H281.517H278.26H275.655C275.004 413.398 274.352 412.942 273.701 412.485C273.048 412.029 272.398 411.572 272.398 411.116C272.398 411.116 271.747 410.659 271.094 410.659H270.444H269.791V411.116C269.791 411.116 269.791 412.029 270.444 412.485C271.094 412.942 271.094 413.398 271.745 413.398C272.398 413.855 273.048 413.855 273.048 414.311V414.768C273.701 415.224 275.002 415.224 276.306 415.224H277.609C279.563 415.224 280.216 416.137 280.216 416.593V417.05C280.866 417.506 281.517 417.963 281.517 418.419C281.517 418.419 282.17 418.876 282.17 419.332L283.473 420.245C283.473 420.702 284.124 420.702 284.124 420.702C284.774 421.158 285.427 421.615 285.427 422.071C285.427 422.528 284.774 422.984 284.774 422.984C284.774 423.44 284.124 423.441 284.124 423.441H283.473C282.82 423.441 282.17 423.438 281.517 424.351V424.808V425.266C281.517 425.266 281.517 425.264 280.866 424.808C280.866 424.351 280.216 424.353 280.216 423.897V423.441C280.216 422.984 280.214 422.984 279.563 422.528C279.563 422.071 278.912 422.071 278.26 421.615C278.26 421.158 277.609 421.158 276.958 421.158H276.306C275.655 421.158 275.655 421.612 275.655 422.069V422.071V422.528C275.004 422.528 274.352 422.528 273.701 422.984C273.048 422.984 273.048 423.441 273.048 423.441V423.897C273.701 424.351 274.352 424.351 275.002 424.351H276.306C276.306 424.351 276.306 424.81 275.655 425.266C275.655 425.72 275.004 426.177 274.352 426.633C273.701 427.546 273.701 427.546 273.701 428.003V428.459C273.701 428.916 273.048 428.916 271.747 428.916H270.444H268.49C266.534 428.916 265.883 428.003 265.232 427.546V427.09L263.929 426.177C263.279 425.721 263.278 425.72 262.626 425.72V426.177V426.633C262.626 427.09 263.278 427.546 263.278 428.003L263.929 428.459C263.929 428.459 264.58 428.916 265.232 429.829C265.883 430.742 267.186 430.742 268.49 430.742H269.14V431.198C269.14 431.655 269.14 432.111 268.49 432.568C267.837 433.024 267.837 433.48 267.186 433.937C266.536 434.393 265.883 434.85 265.883 435.763V437.589C265.883 438.045 266.534 438.502 267.186 438.958C268.49 439.871 268.49 440.328 267.837 441.697V442.153V443.523C267.837 444.436 267.837 444.892 266.534 445.349C265.883 445.805 265.232 445.349 264.58 444.892C263.929 444.892 263.278 443.979 261.975 443.523C260.672 442.61 259.369 442.61 258.718 443.066C258.065 443.523 258.067 444.436 257.414 444.892C256.764 445.349 257.415 446.718 258.065 448.088C258.065 449 258.718 449.913 258.718 450.37C259.369 451.739 258.718 452.196 258.065 452.652V453.109C257.415 453.109 257.415 454.022 256.764 454.478C256.764 454.935 256.111 455.391 256.111 455.847C256.111 456.304 256.111 456.76 255.461 456.76C254.81 457.217 254.808 457.217 254.157 457.217C253.507 457.217 253.507 456.76 253.507 456.304C253.507 455.848 253.507 455.391 252.854 454.935C252.854 454.478 252.854 454.478 252.203 454.478H251.553L250.9 454.935C250.249 454.935 250.249 455.391 250.249 455.391C250.249 455.848 250.249 455.847 248.946 455.847H248.295H247.643H246.341C245.689 455.847 245.689 456.304 245.689 456.304V456.76C245.689 457.217 246.341 457.673 246.341 457.673C246.992 457.673 246.992 458.586 247.643 459.043C248.295 459.043 248.295 459.499 248.295 459.499C248.295 459.499 248.946 459.956 249.599 459.956H251.553H252.203L252.854 460.412V461.325V461.782H251.553H250.249C248.946 461.782 248.946 461.782 248.946 462.238C249.597 462.695 249.597 463.151 250.249 463.607C250.9 464.064 250.9 464.52 251.553 464.977C252.203 465.433 252.854 465.89 252.854 466.803C253.507 467.259 252.856 468.172 252.203 469.083C250.9 469.996 250.249 470.911 248.946 471.367H246.341C245.689 471.367 244.385 470.911 243.735 470.455C243.084 469.998 243.084 469.542 242.431 469.542C242.431 469.542 242.431 469.085 241.781 469.085H241.13H240.477V469.542V469.998C240.477 470.454 241.781 471.368 242.431 472.28V472.737L244.387 474.106C245.038 474.563 245.689 474.563 245.689 475.019C246.341 475.476 247.643 475.476 248.946 475.476C250.249 475.476 251.553 475.476 252.203 475.019C252.854 474.563 254.157 473.65 254.81 473.65C255.461 473.65 255.461 474.106 255.461 474.106V474.563V475.476L254.81 475.932C253.507 476.389 252.854 476.845 253.507 477.758C253.507 478.214 254.157 478.671 254.157 478.671C254.157 478.671 254.81 478.669 254.81 479.125V479.582V480.038H254.157H252.854H250.9C250.249 480.038 250.249 480.497 250.249 480.951C249.599 481.864 250.249 482.32 250.9 482.777C251.553 483.233 252.203 483.233 252.854 483.69C253.507 483.69 253.507 484.146 254.157 484.146H252.854C252.203 484.146 252.203 484.146 251.553 483.69C250.9 483.233 250.9 482.777 250.249 482.32C249.597 481.864 249.597 481.407 248.946 481.407H248.295H247.643L246.992 481.864C246.992 482.32 246.341 482.777 245.689 483.233L245.038 483.69C244.385 484.146 243.735 484.603 243.084 485.972C242.713 486.753 242.974 487.235 243.509 487.592H0.999999V0.999999H343.996L344.705 1.67891C344.705 2.59185 344.054 2.59186 344.054 3.04832C343.403 3.04832 343.403 3.50477 342.751 3.50477C341.447 3.96124 340.146 4.41771 340.146 6.70005C340.797 9.43887 341.447 10.8082 342.751 12.1776V13.0907C342.751 13.5472 342.1 14.4601 342.751 15.373C343.403 16.7424 344.054 17.1989 344.705 18.1118C344.705 18.5683 345.357 18.5683 345.357 19.0247C345.357 19.4812 346.008 19.4812 346.008 19.9376C346.659 20.3941 346.659 20.8506 346.659 21.307V22.2201C346.008 23.5895 345.357 25.4153 347.962 27.6976C349.265 28.6105 349.916 29.5236 350.569 29.9801C351.219 30.4365 351.219 30.4365 351.219 30.893L350.569 31.3495C349.916 31.8059 349.265 32.7188 349.916 34.5447C350.569 35.4576 350.569 35.9142 351.219 36.3706C351.219 36.8248 351.872 36.8248 351.872 37.2813H351.219C349.916 37.7377 348.615 38.6506 349.265 40.4765V40.4789C349.918 41.3895 350.569 42.3023 351.219 42.7588C352.522 43.6717 352.523 43.6717 352.523 44.1282C352.523 45.0411 351.872 45.4977 350.569 45.9541C349.916 45.9541 349.265 46.4107 349.265 46.4107C348.615 46.8671 347.962 47.3235 347.962 48.2364C347.962 49.1494 348.615 50.0623 349.265 50.9753C349.916 51.4318 350.569 52.3447 351.219 52.8012C353.173 55.0836 353.826 55.9965 353.826 56.4529C353.173 56.9094 352.522 56.9095 351.219 56.9095C349.916 56.453 347.962 55.9965 346.008 55.5401C344.054 55.0836 341.447 54.6271 338.192 54.1706C334.282 53.7142 329.724 53.2576 328.42 52.3447C327.117 51.8882 327.117 51.4318 326.466 50.9753C325.814 50.0623 325.163 50.0624 323.209 50.0624H322.556C321.255 50.0624 320.602 50.5188 319.952 50.9753C319.299 51.4318 318.648 51.8883 318.648 52.8012C317.998 52.8012 316.694 53.2576 317.345 54.627C317.345 55.5399 317.998 55.54 318.648 55.9964C318.648 55.9964 318.648 56.453 317.998 56.9095C317.998 57.3659 317.345 57.8224 317.345 57.8224H316.694C315.391 57.8224 314.088 58.2788 312.134 58.7353C310.832 59.1917 310.18 59.6482 309.529 60.1047C308.876 60.1047 308.876 60.5611 308.876 61.0176V61.9306C308.876 62.8436 310.18 63.2999 310.83 63.7564C311.483 64.2129 317.345 68.7776 322.556 72.8858C327.77 76.994 328.42 78.3635 328.42 78.82C329.071 79.7329 328.42 80.6458 328.42 81.1023C328.42 82.4717 328.42 83.3846 329.724 84.754L331.678 87.4929C332.979 89.7752 334.935 92.0552 337.539 92.9681C338.843 93.4246 339.493 93.8811 340.146 94.7941C340.797 95.2505 340.797 96.1634 340.797 97.0764C341.447 97.9893 341.447 99.3587 341.447 100.728C341.447 101.641 342.1 102.554 342.1 103.011V103.467H340.797C338.192 103.467 331.025 105.749 329.071 106.662C329.071 106.662 328.42 106.662 328.42 107.119C327.768 106.662 327.117 106.206 326.466 105.293C325.163 103.011 321.255 101.641 319.952 101.185H319.301C318.648 100.728 317.998 100.728 317.345 100.728C317.345 100.728 316.694 100.728 316.044 101.185C315.391 101.185 314.74 101.641 314.74 102.098C314.088 103.01 314.088 103.467 314.088 104.38C314.088 106.206 316.044 109.401 316.694 111.227C317.345 111.683 317.345 112.14 317.345 112.14V113.053V113.966C316.694 114.422 316.044 114.422 315.391 114.879C314.74 114.879 314.088 115.335 314.088 115.792C313.437 115.335 312.786 115.335 312.786 114.879C312.786 114.422 312.134 113.966 311.483 113.966H309.529C308.876 113.966 308.877 114.422 308.226 114.422C306.923 114.879 306.272 115.335 306.272 115.792C305.621 116.705 305.621 117.161 306.272 118.074C306.923 118.53 306.922 118.987 307.575 119.443C307.575 119.9 307.575 120.356 306.922 120.813C306.272 121.269 306.272 121.726 305.619 122.182C304.969 122.639 304.968 123.095 304.318 123.552H303.665C303.014 123.552 302.362 123.095 301.061 123.095C299.757 123.095 299.107 123.552 298.454 123.552C297.803 123.552 297.153 124.008 296.5 124.465L295.849 124.008C295.197 124.008 294.546 123.552 293.895 123.552H287.381C285.427 123.552 284.123 124.008 283.473 124.465C282.82 124.921 282.82 125.834 282.82 126.29C283.471 126.747 283.471 127.203 284.124 127.66L286.077 129.029L288.684 130.855C289.985 131.768 290.638 132.681 291.939 133.137C293.243 133.594 293.893 134.05 294.546 134.507C295.849 135.42 295.197 137.246 295.197 138.615C294.546 138.615 293.895 138.159 293.243 137.702C293.243 137.246 292.592 137.246 292.592 137.246C291.939 136.789 290.638 136.789 289.335 136.789C288.682 136.789 287.381 137.246 286.077 137.702L285.427 138.159C284.774 138.159 284.774 137.702 284.774 137.702C284.124 137.246 283.471 136.333 281.517 136.333H280.216C278.26 136.333 275.655 136.333 273.701 135.42L273.048 134.963C270.444 133.594 266.534 131.768 265.232 130.399C264.58 129.029 263.278 128.573 261.975 128.116C260.672 127.66 259.368 128.116 257.414 128.573C254.157 129.486 254.157 132.225 254.81 134.507V134.963C254.81 136.789 255.461 137.246 256.111 137.702C256.764 138.159 256.764 138.159 256.764 138.615C256.764 139.072 256.764 139.072 256.111 139.528C256.111 139.984 255.461 140.897 254.81 141.808V141.81C254.81 142.723 254.157 142.723 253.507 143.18C252.854 143.18 252.203 143.636 251.553 144.549V146.832C251.553 147.742 252.203 148.655 251.553 148.655C250.9 149.112 250.249 149.112 249.599 149.112C248.295 149.112 246.341 149.112 245.038 150.937C244.385 151.394 243.735 152.307 242.431 152.763C241.781 153.22 240.477 153.676 238.523 154.589C235.917 155.046 234.616 156.415 232.66 157.328C230.055 158.697 228.101 160.067 226.798 162.349Z" fill="#D9D9D9"/>
<path id="Vector_2" d="M224.193 168.283C224.193 166.914 224.844 165.088 226.798 162.349C228.101 160.067 230.055 158.697 232.66 157.328C234.616 156.415 235.917 155.046 238.523 154.589C240.477 153.676 241.781 153.22 242.431 152.763C243.735 152.307 244.385 151.394 245.038 150.937C246.341 149.112 248.295 149.112 249.599 149.112C250.249 149.112 250.9 149.112 251.553 148.655C252.203 148.655 251.553 147.742 251.553 146.832C251.553 145.919 251.553 145.006 251.553 144.549C252.203 143.636 252.854 143.18 253.507 143.18C254.157 142.723 254.81 142.723 254.81 141.81C255.461 140.898 256.111 139.984 256.111 139.528C256.764 139.072 256.764 139.072 256.764 138.615C256.764 138.159 256.764 138.159 256.111 137.702C255.461 137.246 254.81 136.789 254.81 134.963V134.507C254.157 132.225 254.157 129.486 257.414 128.573C259.368 128.116 260.672 127.66 261.975 128.116C263.278 128.573 264.58 129.029 265.232 130.399C266.534 131.768 270.444 133.594 273.048 134.963L273.701 135.42C275.655 136.333 278.26 136.333 280.216 136.333C280.866 136.333 280.866 136.333 281.517 136.333C283.471 136.333 284.124 137.246 284.774 137.702C284.774 137.702 284.774 138.159 285.427 138.159L286.077 137.702C287.381 137.246 288.682 136.789 289.335 136.789C290.638 136.789 291.939 136.789 292.592 137.246C292.592 137.246 293.243 137.246 293.243 137.702C293.895 138.159 294.546 138.615 295.197 138.615C295.197 137.246 295.849 135.42 294.546 134.507C293.893 134.05 293.243 133.594 291.939 133.137C290.638 132.681 289.985 131.768 288.684 130.855C288.031 130.399 286.728 129.486 286.077 129.029C285.427 128.573 284.774 128.116 284.123 127.66C283.471 127.203 283.471 126.747 282.82 126.29C282.82 125.834 282.82 124.921 283.473 124.465C284.123 124.008 285.427 123.552 287.381 123.552C289.985 123.552 292.592 123.552 293.895 123.552C294.546 123.552 295.197 124.008 295.849 124.008L296.5 124.465C297.153 124.008 297.803 123.552 298.454 123.552C299.107 123.552 299.757 123.095 301.061 123.095C302.362 123.095 303.014 123.552 303.665 123.552H304.318C304.968 123.095 304.969 122.639 305.619 122.182C306.272 121.726 306.272 121.269 306.922 120.813C307.575 120.356 307.575 119.9 307.575 119.443C306.922 118.987 306.923 118.53 306.272 118.074C305.621 117.161 305.621 116.705 306.272 115.792C306.272 115.335 306.923 114.879 308.226 114.422C308.876 114.422 308.876 113.966 309.529 113.966C310.18 113.966 310.832 113.966 311.483 113.966C312.134 113.966 312.786 114.422 312.786 114.879C312.786 115.335 313.437 115.335 314.088 115.792C314.088 115.335 314.74 114.879 315.391 114.879C316.044 114.422 316.694 114.422 317.345 113.966C317.345 113.509 317.345 113.509 317.345 113.053C317.345 112.596 317.345 112.596 317.345 112.14C317.345 112.14 317.345 111.683 316.694 111.227C316.044 109.401 314.088 106.206 314.088 104.38C314.088 103.467 314.088 103.01 314.74 102.098C314.74 101.641 315.391 101.185 316.044 101.185C316.694 100.728 317.345 100.728 317.345 100.728C317.998 100.728 318.648 100.728 319.301 101.185H319.952C321.255 101.641 325.163 103.011 326.466 105.293C327.117 106.206 327.767 106.662 328.42 107.119C328.42 106.662 329.071 106.662 329.071 106.662C331.025 105.749 338.192 103.467 340.797 103.467C341.447 103.467 341.449 103.467 342.1 103.467C342.1 103.467 342.1 103.467 342.1 103.011C342.1 102.554 341.447 101.641 341.447 100.728C341.447 99.3587 341.447 97.9893 340.797 97.0764C340.797 96.1634 340.797 95.2505 340.146 94.7941C339.493 93.8811 338.843 93.4246 337.539 92.9681C334.935 92.0552 332.979 89.7752 331.678 87.4929C331.025 86.5799 330.374 85.667 329.724 84.754C328.42 83.3846 328.42 82.4717 328.42 81.1023C328.42 80.6458 329.071 79.7329 328.42 78.82C328.42 78.3635 327.77 76.994 322.556 72.8858C317.345 68.7776 311.483 64.2129 310.83 63.7564C310.18 63.2999 308.876 62.8436 308.876 61.9306C308.876 61.4741 308.876 61.474 308.876 61.0176C308.876 60.5611 308.876 60.1047 309.529 60.1047C310.18 59.6482 310.83 59.1917 312.134 58.7353C314.088 58.2788 315.391 57.8224 316.694 57.8224H317.345C317.345 57.8224 317.998 57.3659 317.998 56.9095C318.648 56.453 318.648 55.9964 318.648 55.9964C317.998 55.54 317.345 55.54 317.345 54.627C316.694 53.2576 317.998 52.8012 318.648 52.8012C318.648 51.8883 319.299 51.4318 319.952 50.9753C320.602 50.5188 321.255 50.0624 322.556 50.0624H323.209C325.163 50.0624 325.814 50.0623 326.466 50.9753C327.117 51.4318 327.117 51.8882 328.42 52.3447C329.724 53.2576 334.282 53.7142 338.192 54.1706C341.447 54.6271 344.054 55.0836 346.008 55.5401C347.962 55.9965 349.916 56.453 351.219 56.9095C352.522 56.9095 353.173 56.9094 353.826 56.4529C353.826 55.9965 353.173 55.0836 351.219 52.8012C350.569 52.3447 349.916 51.4318 349.265 50.9753C348.615 50.0623 347.962 49.1494 347.962 48.2365C347.962 47.3235 348.615 46.8671 349.265 46.4107C349.265 46.4107 349.916 45.9541 350.569 45.9541C351.872 45.4977 352.523 45.0411 352.523 44.1282C352.523 43.6717 352.522 43.6717 351.219 42.7588C350.569 42.3023 349.916 41.3894 349.265 40.4765C348.615 38.6506 349.916 37.7377 351.219 37.2813C351.219 37.2813 351.219 37.2813 351.872 37.2813C351.872 36.8248 351.219 36.8248 351.219 36.3706C350.569 35.9142 350.569 35.4576 349.916 34.5447C349.265 32.7188 349.916 31.8059 350.569 31.3495C350.569 31.3495 350.569 31.3494 351.219 30.893C351.219 30.4365 351.219 30.4365 350.569 29.9801C349.916 29.5236 349.265 28.6105 347.962 27.6976C345.357 25.4153 346.008 23.5895 346.659 22.2201C346.659 21.7636 346.659 21.307 346.659 21.307C346.659 20.8506 346.661 20.3941 346.008 19.9376C346.008 19.4812 345.357 19.4812 345.357 19.0247C345.357 18.5683 344.705 18.5683 344.705 18.1118C344.054 17.1989 343.403 16.7424 342.751 15.373C342.1 14.4601 342.751 13.5472 342.751 13.0907C342.751 12.6342 342.751 12.6341 342.751 12.1776C341.447 10.8082 340.797 9.43887 340.146 6.70006C340.146 4.41771 341.447 3.96124 342.751 3.50477C343.403 3.50477 343.403 3.04833 344.054 3.04833C344.054 2.59186 344.705 2.59185 344.705 1.67891L343.996 0.999999H0.999999V487.592H243.509C242.974 487.235 242.713 486.753 243.084 485.972C243.735 484.603 244.385 484.146 245.038 483.69C245.038 483.69 245.038 483.69 245.689 483.233C246.341 482.777 246.992 482.32 246.992 481.864C246.992 481.864 246.992 481.864 247.643 481.407H248.295H248.946C249.597 481.407 249.597 481.864 250.249 482.32C250.9 482.777 250.9 483.233 251.553 483.69C252.203 484.146 252.203 484.146 252.854 484.146C253.507 484.146 254.157 484.146 254.157 484.146C253.507 484.146 253.507 483.69 252.854 483.69C252.203 483.233 251.553 483.233 250.9 482.777C250.249 482.32 249.597 481.864 250.249 480.951C250.249 480.497 250.249 480.038 250.9 480.038C251.553 480.038 252.203 480.038 252.854 480.038C253.507 480.038 253.507 480.038 254.157 480.038C254.157 480.038 254.157 480.038 254.81 480.038C254.81 480.038 254.81 480.038 254.81 479.582V479.125C254.81 478.669 254.157 478.671 254.157 478.671C254.157 478.671 253.507 478.214 253.507 477.758C252.854 476.845 253.507 476.389 254.81 475.932L255.461 475.476C255.461 475.476 255.461 475.019 255.461 474.563V474.106C255.461 474.106 255.461 473.65 254.81 473.65C254.157 473.65 252.854 474.563 252.203 475.019C251.553 475.476 250.249 475.476 248.946 475.476C247.643 475.476 246.341 475.476 245.689 475.019C245.689 474.563 245.038 474.563 244.387 474.106C243.735 473.65 243.084 473.193 242.431 472.737V472.28C241.781 471.368 240.477 470.455 240.477 469.998C240.477 469.542 240.477 469.542 240.477 469.542C240.477 469.542 240.477 469.542 240.477 469.085C240.477 469.085 240.477 469.085 241.13 469.085H241.781C242.431 469.085 242.431 469.542 242.431 469.542C243.084 469.542 243.084 469.998 243.735 470.455C244.385 470.911 245.689 471.367 246.341 471.367C246.992 471.367 248.295 471.367 248.946 471.367C250.249 470.911 250.9 469.998 252.203 469.085C252.854 468.172 253.507 467.259 252.854 466.803C252.854 465.89 252.203 465.433 251.553 464.977C250.9 464.52 250.9 464.064 250.249 463.607C249.597 463.151 249.597 462.695 248.946 462.238C248.946 461.782 248.946 461.782 250.249 461.782C250.9 461.782 251.553 461.782 251.553 461.782C252.203 461.782 252.854 461.782 252.854 461.782C252.854 461.782 252.854 461.782 252.854 461.325C252.854 461.325 252.854 460.869 252.854 460.412L252.203 459.956C252.203 459.956 252.203 459.956 251.553 459.956C250.9 459.956 250.249 459.956 249.599 459.956C248.946 459.956 248.295 459.499 248.295 459.499C248.295 459.499 248.295 459.043 247.643 459.043C246.992 458.586 246.992 457.673 246.341 457.673C246.341 457.673 245.689 457.217 245.689 456.76V456.304C245.689 456.304 245.689 455.847 246.341 455.847C246.341 455.847 246.992 455.847 247.643 455.847H248.295H248.946C250.249 455.847 250.249 455.848 250.249 455.391C250.249 455.391 250.249 454.935 250.9 454.935L251.553 454.478H252.203C252.854 454.478 252.854 454.478 252.854 454.935C253.507 455.391 253.507 455.848 253.507 456.304C253.507 456.76 253.507 457.217 254.157 457.217C254.81 457.217 254.808 457.217 255.461 456.76C256.111 456.76 256.111 456.304 256.111 455.847C256.111 455.391 256.764 454.935 256.764 454.478C257.415 454.022 257.414 453.109 258.067 453.109C258.067 453.109 258.067 453.109 258.067 452.652C258.718 452.196 259.368 451.739 258.718 450.37C258.718 449.913 258.067 449 258.067 448.088C257.414 446.718 256.764 445.349 257.414 444.892C258.067 444.436 258.065 443.523 258.718 443.066C259.368 442.61 260.672 442.61 261.975 443.523C263.278 443.979 263.929 444.892 264.58 444.892C265.232 445.349 265.883 445.805 266.534 445.349C267.837 444.892 267.837 444.436 267.837 443.523C267.837 443.066 267.837 442.61 267.837 442.153V441.697C268.49 440.328 268.49 439.871 267.186 438.958C266.536 438.502 265.883 438.045 265.883 437.589C265.883 437.132 265.883 436.219 265.883 435.763C265.883 434.85 266.536 434.393 267.186 433.937C267.837 433.481 267.837 433.024 268.49 432.568C269.14 432.111 269.14 431.655 269.14 431.198V430.742H268.49C267.186 430.742 265.883 430.742 265.232 429.829C264.58 428.916 263.929 428.459 263.929 428.459L263.278 428.003C263.278 427.546 262.626 427.09 262.626 426.634V426.177V425.72C263.278 425.72 263.279 425.721 263.929 426.177C263.929 426.177 264.58 426.633 265.232 427.09V427.546C265.883 428.003 266.534 428.916 268.49 428.916C269.14 428.916 269.791 428.916 270.444 428.916C271.094 428.916 271.094 428.916 271.745 428.916C273.048 428.916 273.701 428.916 273.701 428.459C273.701 428.003 273.701 428.003 273.701 428.003C273.701 427.546 273.701 427.546 274.352 426.634C275.002 426.177 275.655 425.721 275.655 425.264C276.306 424.81 276.306 424.351 276.306 424.351C276.306 424.351 275.655 424.351 275.002 424.351C274.352 424.351 273.701 424.353 273.048 423.897V423.441C273.048 423.441 273.048 422.984 273.701 422.984C274.352 422.528 275.004 422.528 275.655 422.528C275.655 422.528 275.655 422.528 275.655 422.071C275.655 421.615 275.655 421.158 276.306 421.158H276.958C277.609 421.158 278.259 421.158 278.259 421.615C278.912 422.071 279.563 422.071 279.563 422.528C280.214 422.984 280.216 422.984 280.216 423.441C280.216 423.441 280.216 423.44 280.216 423.897C280.216 424.353 280.866 424.351 280.866 424.808C281.517 425.264 281.517 425.264 281.517 425.264C281.517 425.264 281.517 425.264 281.517 424.808V424.351C282.17 423.438 282.82 423.441 283.473 423.441C283.473 423.441 283.471 423.441 284.123 423.441C284.123 423.441 284.774 423.441 284.774 422.984C284.774 422.984 285.427 422.528 285.427 422.071C285.427 421.615 284.774 421.158 284.123 420.702C284.123 420.702 283.473 420.702 283.473 420.245C282.82 419.789 282.82 419.789 282.17 419.332C282.17 418.876 281.517 418.419 281.517 418.419C281.517 417.963 280.866 417.506 280.216 417.05V416.593C280.216 416.137 279.563 415.224 277.609 415.224C276.958 415.224 276.958 415.224 276.306 415.224C275.002 415.224 273.701 415.224 273.048 414.768C273.048 414.768 273.048 414.768 273.048 414.311C273.048 413.855 272.398 413.855 271.745 413.398C271.094 413.398 271.094 412.942 270.444 412.485C269.791 412.029 269.791 411.116 269.791 411.116V410.659H270.444H271.094C271.747 410.659 272.398 411.116 272.398 411.116C272.398 411.572 273.048 412.029 273.701 412.485C274.352 412.942 275.004 413.398 275.655 413.398C276.306 413.398 276.958 413.398 278.259 413.398C279.563 413.398 280.866 413.398 281.517 413.398H282.17C282.82 413.398 283.473 413.398 283.473 412.942C283.473 412.485 281.517 411.572 280.866 411.116H280.216C280.216 411.116 279.563 411.116 279.563 410.659C278.912 410.659 278.259 410.203 278.259 409.746V409.29C278.259 409.29 278.912 409.29 279.563 409.29H280.216C280.216 409.29 280.213 409.29 280.866 409.29C280.866 409.29 280.866 409.29 280.866 408.834V408.377C280.866 407.921 280.216 407.921 280.216 407.464C279.563 407.008 278.912 407.008 278.912 407.008C278.259 407.008 278.26 406.551 277.609 406.551C277.609 406.551 277.609 406.551 276.958 406.551C276.306 406.551 275.655 406.095 275.655 406.095C275.004 405.638 274.352 405.182 275.002 404.269C275.655 403.356 276.306 403.356 276.958 403.356C276.958 403.356 277.609 403.356 277.609 402.899V402.443C277.609 401.986 277.609 401.53 278.259 401.53H278.912C279.563 401.53 279.563 401.53 280.216 401.53C280.866 401.53 280.866 401.986 280.866 401.986C280.866 401.986 280.866 401.986 280.866 402.443C280.866 402.899 280.866 403.356 281.517 403.356C281.517 403.356 281.517 403.356 281.517 402.899C281.517 402.443 281.517 401.986 282.17 401.53C282.17 401.073 282.17 401.074 282.17 401.074C282.17 401.074 282.169 400.617 282.82 400.617C282.82 400.617 282.82 400.617 283.473 400.617H284.123C284.123 400.617 284.774 401.073 284.774 401.53C284.774 401.986 285.427 402.443 285.427 402.899C286.077 403.356 286.077 403.812 286.077 403.812C286.077 403.812 286.077 403.356 286.077 402.899C286.077 401.986 285.427 401.986 285.427 401.53C285.427 401.53 285.425 401.074 284.774 401.074C284.124 400.161 284.123 399.248 284.123 398.791V398.335C284.123 397.878 284.123 397.878 284.123 397.422C284.123 396.965 284.123 396.965 284.123 396.052C284.123 395.139 283.471 395.139 282.82 394.683C282.169 394.226 281.517 395.139 281.517 395.596C281.517 396.052 282.169 396.052 282.82 396.965C282.82 396.965 284.123 397.878 283.473 398.335C282.82 398.335 282.17 398.791 282.17 398.791C281.517 399.248 281.517 398.791 280.866 398.791C280.866 398.791 280.866 398.791 280.216 398.791C279.563 398.791 278.912 398.791 278.259 398.791H277.609C276.958 399.248 276.306 399.248 276.306 399.704C276.306 399.704 276.306 400.161 275.655 400.161C275.004 400.161 275.002 400.617 274.352 400.617C273.701 400.617 273.048 400.617 273.048 400.161C273.048 400.161 273.048 400.161 273.048 399.704C273.048 399.248 272.398 398.791 273.048 397.878C273.048 397.422 273.048 396.509 273.701 396.509C273.701 396.509 274.352 396.509 275.002 396.509C275.655 396.509 276.306 396.509 276.306 396.052C276.958 395.596 276.958 395.596 277.609 395.596C278.26 395.596 278.259 395.596 278.912 395.139C279.563 394.683 279.563 394.226 279.563 393.314V392.857C279.563 392.401 280.866 391.944 281.517 391.488C282.17 391.031 282.169 391.031 282.82 390.575C283.471 390.118 284.124 389.662 284.774 389.205V388.749C284.774 388.749 284.774 388.749 284.123 388.749C283.471 388.749 282.169 389.205 278.259 387.836C276.306 387.379 274.352 386.467 273.048 385.554C271.747 384.641 270.444 384.184 269.791 383.271C269.791 383.271 269.791 383.271 269.791 382.815C268.49 381.445 265.883 377.337 260.672 379.163C258.067 380.076 256.111 380.532 254.81 381.445C253.507 381.902 252.854 382.815 252.854 383.728C252.203 384.641 252.203 385.097 251.553 385.554C250.9 385.554 250.249 385.553 249.599 384.641C248.295 383.271 248.295 383.271 247.643 382.358L246.992 381.445C246.341 380.532 245.689 380.076 245.038 379.619C244.385 379.163 243.084 378.706 242.431 378.25C241.781 378.25 241.13 377.794 241.13 377.337V376.881V376.424C241.13 376.424 241.781 376.424 243.084 376.424C243.735 376.424 245.038 376.424 245.689 376.424C246.992 376.424 247.643 376.424 248.946 376.881C249.597 377.337 250.249 377.337 250.249 377.337C250.9 377.337 250.9 377.337 251.553 377.337L252.203 376.881V376.424C252.203 375.968 252.203 375.968 252.203 375.511C252.203 374.598 252.203 373.685 252.203 373.229C252.854 372.772 254.157 372.316 255.461 371.859C256.111 371.859 256.764 371.403 257.414 371.403C258.067 371.403 258.718 370.49 259.368 370.034C260.672 369.121 261.975 368.21 262.626 367.754C263.929 366.841 265.232 366.841 266.534 366.841C267.186 366.841 267.837 366.841 268.49 366.841C269.14 366.841 269.791 366.384 270.444 366.384C271.094 366.384 271.094 365.928 271.094 365.928C271.094 365.928 271.094 365.471 271.094 365.015C271.094 364.558 270.444 364.102 269.791 363.645C268.49 362.732 267.837 361.819 266.534 360.906C264.58 359.081 262.626 357.255 260.672 356.342C259.368 355.885 256.764 354.516 254.81 353.146C251.553 351.321 248.295 349.038 246.341 348.582C243.735 347.669 239.174 347.212 237.873 347.212H237.22C236.57 347.212 235.919 346.756 234.616 346.299C233.963 345.843 233.312 345.387 232.66 344.474C232.66 344.474 232.662 344.017 232.009 344.017C231.358 343.104 230.706 342.191 227.448 342.648C225.494 343.104 224.191 343.104 222.89 343.561C221.586 344.017 220.936 344.017 220.283 344.474C219.632 344.93 218.329 344.93 217.026 344.474C215.072 344.017 213.118 343.561 212.467 343.561C211.815 343.104 210.513 342.648 209.21 342.191C207.907 341.735 207.256 340.822 206.603 340.365C205.953 339.909 205.953 339.452 205.302 338.996C204.649 338.539 203.346 338.083 203.346 338.083C202.695 338.083 202.695 338.083 202.045 337.17C202.045 337.17 202.045 336.714 201.392 336.714C200.741 335.801 200.089 334.431 200.089 333.975C200.089 333.518 200.741 333.518 200.741 333.518H201.392H202.045L202.695 333.975C202.695 334.431 203.346 334.431 203.999 334.888C205.302 335.344 206.603 335.801 206.603 335.801C207.256 335.801 207.256 336.257 207.906 336.257C208.557 336.714 208.557 336.714 209.21 337.17L209.86 337.627C210.511 338.539 211.814 339.909 213.118 340.365C213.768 340.822 215.072 341.735 216.375 341.735C217.678 342.191 218.98 342.191 219.632 341.735C220.283 341.278 220.936 340.822 221.586 340.365C222.239 339.909 222.237 339.909 222.89 338.996C223.54 338.539 224.844 338.539 226.147 338.539C227.448 338.539 228.752 338.996 229.404 339.452C230.055 339.909 231.358 339.909 232.009 340.365C233.312 340.822 234.616 340.822 234.616 341.278C235.266 341.735 235.917 342.648 237.22 343.561C237.873 344.017 238.523 344.474 239.174 344.017H239.827C241.13 344.017 242.431 343.561 243.084 343.561C244.385 343.104 245.689 343.561 247.643 344.017H248.295C248.946 344.017 249.597 344.474 250.249 344.474C252.203 344.93 254.157 345.386 255.461 346.299C256.111 346.756 257.415 347.212 258.718 347.669C259.368 347.669 259.368 347.669 259.368 347.669C259.368 347.669 259.368 347.669 260.021 347.669C260.021 347.669 260.021 347.669 260.021 347.212C259.368 345.843 258.067 344.93 256.111 343.561C254.81 343.104 254.157 342.191 252.854 341.735C252.203 341.278 251.553 340.822 250.9 340.822C250.249 340.365 248.295 339.909 246.992 339.452C246.341 339.452 246.341 338.996 245.689 338.996C245.038 338.539 245.038 338.083 244.387 337.627C244.387 337.17 243.735 336.257 243.084 335.344C242.431 334.431 241.13 333.518 239.827 332.605C238.523 331.692 237.22 331.236 235.917 330.779C235.266 330.779 234.615 330.323 233.963 330.323C231.358 329.41 228.101 328.954 225.494 326.671C223.54 324.845 223.54 323.932 224.193 323.019C224.193 322.563 224.844 322.107 224.844 322.107C224.844 320.737 216.375 313.436 216.375 313.436C216.375 313.436 194.227 291.069 192.273 290.156C191.622 289.7 189.666 289.243 187.712 288.787C185.108 288.33 181.198 287.417 178.593 286.048C176.639 285.135 174.683 284.222 173.382 283.765C171.428 282.853 170.124 281.483 169.474 281.027C168.821 280.57 168.17 280.57 166.867 280.57C166.217 280.57 165.564 280.57 165.564 280.57H164.913C163.61 280.57 162.306 280.57 161.003 278.744C160.353 277.831 159.702 276.918 159.702 275.549C159.702 274.18 160.353 272.81 161.003 272.354C161.656 271.897 161.656 270.984 161.656 270.528C161.656 270.071 161.656 269.158 161.656 267.789C162.306 265.963 162.307 265.963 162.959 265.507C162.959 265.507 163.61 265.05 163.61 264.594C163.61 264.137 163.61 263.224 163.61 262.768C163.61 261.855 163.61 261.399 163.61 260.942C163.61 260.486 164.913 260.029 166.216 260.029C168.17 259.573 170.775 259.116 171.428 256.836C172.078 254.554 172.078 254.097 171.428 252.728C171.428 252.271 170.775 251.815 170.124 250.902C169.472 249.989 169.472 248.62 170.124 248.163C170.775 247.707 170.775 247.25 171.428 246.794C172.078 246.337 172.729 246.337 173.382 246.337C174.032 246.337 174.683 246.337 175.336 246.794C175.986 247.25 177.29 247.25 177.94 247.25C178.593 247.25 178.593 247.25 179.244 247.25L179.896 246.794C179.896 246.337 180.547 246.337 180.547 245.881C180.547 244.968 180.547 244.055 180.547 243.598C181.198 242.685 181.85 242.686 183.804 242.686C185.108 242.686 185.758 242.685 186.409 242.229C186.409 242.229 186.409 242.229 186.409 241.773C186.409 241.773 186.409 241.773 186.409 241.316C185.758 240.86 185.108 240.86 183.804 240.403C179.244 239.947 179.244 239.034 179.896 238.577V238.121C179.896 237.664 180.547 237.664 180.547 237.208C180.547 237.208 181.198 237.208 181.198 236.751H181.85C182.501 236.751 183.152 236.751 183.804 237.208C183.804 237.208 183.804 237.208 184.455 237.664C184.455 237.664 185.108 238.121 185.758 238.121C186.409 238.121 186.409 238.121 187.061 238.121L187.712 237.664L188.363 237.208C189.015 236.751 189.015 236.295 191.62 236.295C192.923 236.295 194.227 235.839 194.227 235.382C194.877 234.926 194.877 234.925 194.877 234.469C194.877 234.013 194.877 234.013 195.53 233.556C196.181 233.556 196.833 233.1 197.484 233.1H198.135C200.089 233.1 201.392 233.1 201.392 232.187C202.045 231.73 202.695 230.817 203.346 230.361C203.999 229.904 204.649 229.448 204.649 229.448C205.3 229.448 205.3 229.448 205.953 229.448C205.953 229.448 206.603 229.448 206.603 229.904C207.256 230.361 207.907 229.904 208.557 229.904C208.557 229.904 209.21 229.904 209.21 229.448C210.513 228.991 210.513 229.448 211.164 230.361C211.164 230.817 211.815 230.817 211.815 230.817C211.815 231.274 212.467 231.274 213.118 232.187C213.768 232.643 214.421 233.1 214.421 233.1C215.072 233.1 215.072 232.643 215.724 232.187C216.375 231.73 216.375 231.274 216.375 231.274C217.026 230.817 217.026 230.817 216.375 230.361C215.724 229.904 215.072 229.448 214.421 229.448C213.768 229.448 213.768 229.448 213.118 228.991C212.467 228.991 212.467 228.535 211.815 228.078C211.815 227.622 211.815 227.622 211.815 227.166C211.815 226.709 212.467 226.709 213.118 226.709C213.768 226.709 214.421 226.709 214.421 226.253C215.072 225.34 214.421 224.883 213.77 224.427C213.77 224.427 213.77 224.427 213.77 223.97C213.77 223.97 213.77 223.97 213.77 223.514V223.057C213.77 222.601 213.77 222.601 213.77 222.601C213.77 222.144 213.768 221.688 212.467 221.688C211.815 221.688 211.164 221.688 211.164 221.688C209.86 221.688 207.907 221.688 205.953 221.688C204.649 221.688 204.649 221.231 203.999 220.775C203.999 220.775 203.999 220.318 203.346 220.318C202.695 219.862 202.045 219.862 202.045 219.406C201.392 219.406 201.392 219.406 200.741 219.406C200.741 219.406 200.089 219.406 200.089 219.862C200.089 219.862 200.089 220.319 200.089 220.775C200.089 220.775 200.089 220.775 200.089 221.232C200.089 221.688 200.089 221.688 199.438 221.688H198.787C198.787 221.688 198.787 221.688 198.135 221.688C197.484 221.688 197.484 221.688 197.484 221.232C196.833 221.232 196.833 220.775 196.181 220.775C194.877 220.775 192.273 220.775 191.62 220.775C191.62 221.231 190.969 221.232 190.319 221.232C189.666 221.232 189.015 221.232 189.015 221.232L188.363 220.775C188.363 220.319 187.712 219.406 184.455 218.493C181.85 217.58 180.547 217.58 179.896 218.036C179.244 218.036 178.593 218.036 177.94 217.58C176.639 217.123 176.639 216.667 175.986 216.21C175.986 215.754 175.336 215.297 174.032 214.841C173.382 214.384 172.729 213.928 172.078 213.472C170.775 212.559 169.472 211.646 168.17 211.646C166.867 211.646 165.564 211.646 164.26 212.102C162.957 212.559 162.306 213.015 161.656 213.472C161.005 213.928 160.353 213.928 159.702 213.928C159.049 213.928 158.399 213.928 157.746 214.841C157.095 215.754 156.445 216.21 156.445 216.667C155.792 217.123 155.792 217.58 155.792 218.493C155.792 218.949 155.141 219.406 155.141 219.862C154.491 220.319 154.491 220.319 153.187 220.775C152.537 220.775 152.537 221.232 151.884 221.232C151.233 221.688 150.581 221.688 151.233 222.601C151.233 223.057 151.233 223.514 151.233 223.97C151.233 224.427 151.233 224.883 150.581 225.796C149.93 226.253 148.627 227.166 147.323 227.622C146.022 228.079 144.066 228.078 141.462 228.078C139.508 228.078 136.901 228.079 134.947 227.622C132.993 227.166 131.039 226.709 129.736 225.796L129.085 225.34C126.478 223.514 123.221 220.775 123.221 219.862C123.221 219.406 123.221 218.493 123.221 217.58C123.221 216.667 123.221 215.297 123.221 214.384C123.221 213.928 123.221 213.471 122.57 212.558C121.918 211.646 120.617 210.276 120.617 210.276C120.617 210.276 120.617 210.276 120.617 209.82C119.313 208.45 114.752 203.429 112.148 204.342C110.192 205.255 110.194 205.712 110.194 206.624C110.194 207.081 110.194 207.537 110.194 207.537C110.194 207.537 110.194 207.994 109.541 207.994C109.541 208.45 108.891 208.45 108.238 208.45C107.587 208.45 106.937 208.45 106.937 208.45C106.284 208.45 104.983 207.994 104.33 207.081L103.679 206.624C101.725 205.255 101.073 204.799 95.8614 204.342C89.9996 204.342 88.0455 202.516 85.4389 200.236C85.4389 199.78 84.7883 199.78 84.7883 199.323C83.485 198.41 82.1816 197.497 81.531 197.041C78.9243 195.672 76.9703 194.302 76.3197 191.563C75.667 189.281 76.3197 187.911 76.3197 186.999C76.3197 186.086 76.3197 185.629 76.3197 184.716C75.667 183.803 75.667 182.89 75.667 182.434C75.667 181.521 76.3198 181.065 77.6211 180.152C78.9244 179.695 80.2277 179.239 82.1817 179.239C84.1356 179.239 85.4389 179.695 86.0896 180.608C86.7423 181.521 88.0436 182.434 89.3469 182.89C89.9996 182.89 89.9995 183.347 90.6502 183.347C91.3008 183.347 91.3029 183.347 91.3029 183.347C91.3029 183.347 91.3029 183.347 91.3029 182.89C91.3029 182.434 91.9535 181.521 92.6041 181.064C93.2568 180.608 94.5581 180.152 95.8614 180.152C97.1648 180.608 98.4681 180.608 100.422 180.608C101.725 180.608 102.376 180.608 103.027 180.152C103.679 180.152 103.679 179.695 104.33 179.239C104.983 178.782 106.284 177.869 106.937 176.956C107.587 176.043 107.587 175.13 106.937 174.217C106.937 174.217 106.937 174.217 106.937 173.761C105.633 172.848 105.633 171.022 105.633 169.653C106.284 167.827 107.587 165.545 108.891 164.175C110.845 162.806 112.798 161.893 116.056 160.98C117.359 160.523 118.663 160.067 120.617 159.61C123.221 158.698 124.524 157.784 125.175 157.328C125.828 156.415 126.478 155.502 126.478 154.133V153.676C126.478 150.937 126.478 149.568 129.085 148.199L129.736 147.742C130.386 147.286 131.039 147.288 131.039 146.832C131.039 146.832 131.039 146.375 131.039 145.919V145.462C131.039 144.549 131.039 144.093 131.69 143.18C132.342 142.267 132.993 141.81 134.296 141.354C134.947 140.897 136.901 140.897 138.204 140.897C139.508 140.897 140.158 141.354 140.811 141.81C141.461 142.267 142.112 143.18 142.765 143.18C143.415 143.636 144.068 143.636 145.369 143.636C146.022 143.636 146.673 143.18 147.323 142.723C147.976 142.267 147.976 141.81 147.976 141.354C147.976 140.897 148.627 139.984 149.279 139.528L149.93 139.072H150.581C151.233 139.072 151.233 139.528 151.233 139.985C151.233 140.441 151.233 140.897 151.233 141.354C151.233 141.81 151.233 142.267 152.535 142.723C153.187 143.18 155.792 144.549 158.399 145.919C160.352 146.832 162.957 148.199 164.26 148.655C165.564 149.112 166.867 150.025 167.518 150.481C168.17 150.938 168.17 151.85 168.17 152.307C168.17 152.763 167.518 153.22 167.518 153.676C166.867 155.046 165.564 156.415 165.564 157.785C165.564 158.697 165.564 159.61 164.913 160.067C164.26 160.523 164.26 160.98 163.61 161.436C163.61 161.893 162.959 162.349 162.959 162.349C162.959 162.806 162.306 163.719 161.656 164.175C161.005 164.632 160.353 164.632 160.353 164.632C159.702 164.632 159.049 164.632 158.399 165.088C158.399 165.544 158.399 166.001 158.399 166.457C159.049 167.37 159.702 167.827 159.702 168.283L160.353 168.74C160.353 168.74 161.003 168.74 161.003 169.196C161.656 169.653 161.656 169.653 161.003 170.566C160.353 171.022 159.049 171.479 157.746 171.479C157.095 171.479 156.445 171.935 156.445 171.935C156.445 172.392 158.399 172.391 159.702 172.848H160.353C161.656 172.848 162.307 173.305 162.959 173.761C162.959 173.761 162.959 174.217 163.61 174.217C164.26 174.674 164.26 175.13 166.216 175.13C167.518 175.13 168.821 175.13 169.474 175.13C170.775 175.13 172.078 175.13 172.729 175.13C173.382 175.13 173.382 175.13 174.032 175.587C174.032 175.587 174.032 175.587 174.683 176.043V176.5C174.683 176.5 174.032 176.956 173.382 176.956C172.729 176.956 172.078 177.413 171.428 177.869C170.775 177.869 170.775 178.326 170.775 178.326C170.775 178.326 170.775 178.782 170.775 179.239C170.775 179.239 170.775 179.695 171.428 179.695C172.078 180.152 172.078 180.151 172.729 180.608C173.382 181.064 174.032 181.521 173.382 182.89C172.729 183.803 172.078 184.26 171.428 184.26C170.775 184.716 170.124 184.716 169.474 185.173C168.821 185.173 168.17 185.173 168.17 185.173C166.867 185.173 164.913 185.629 164.26 186.086C163.61 186.542 163.61 186.999 163.61 187.455C163.61 187.911 163.61 187.912 163.61 187.912V188.368C163.61 188.368 163.61 188.368 164.26 188.368C164.913 188.368 166.217 188.368 166.867 188.368C167.518 188.368 168.17 187.912 168.821 187.912C169.472 187.455 170.124 186.999 171.428 186.542C172.078 186.086 173.382 185.629 174.032 185.629C174.683 185.173 176.639 184.716 177.94 184.26C179.244 183.803 180.547 182.89 181.198 182.89C182.501 181.977 182.501 181.977 181.85 180.608C181.85 180.151 181.85 179.239 181.85 178.782C181.85 177.869 182.501 177.413 182.501 176.956C182.501 176.5 184.455 175.587 185.758 174.674C187.712 173.304 190.319 171.935 191.62 171.479C192.923 171.022 194.227 170.566 195.53 170.109C196.833 169.653 198.135 169.196 199.438 168.74C200.089 168.283 200.089 167.827 200.089 167.827C200.741 167.37 200.741 166.914 202.045 166.914C203.346 166.914 203.346 167.37 203.346 167.827C203.346 168.283 203.346 168.74 204.649 168.74C205.953 168.74 206.603 168.74 206.603 168.283C207.256 167.827 207.256 167.37 207.256 166.914C207.256 166.457 207.906 165.544 207.906 165.088L208.557 164.632H209.21C209.21 164.632 209.86 164.632 209.86 165.088C209.86 165.544 209.86 166.001 210.513 166.457V166.914C210.513 167.37 210.513 167.37 211.164 167.37C211.814 167.37 212.467 167.37 213.118 167.37C215.724 167.37 220.283 167.37 221.586 166.001C222.239 165.545 222.237 165.088 222.237 164.632C224.844 169.196 224.193 168.74 224.193 168.283Z" stroke="white" stroke-width="2" stroke-miterlimit="10" stroke-linejoin="round"/>
<path id="Vector_3" fill-rule="evenodd" clip-rule="evenodd" d="M164.331 186.999C163.681 186.999 163.028 187.455 163.028 187.912C163.681 188.368 164.331 189.281 164.982 188.825C165.635 188.368 166.285 187.912 165.635 187.455C165.635 186.999 164.331 186.999 164.331 186.999Z" fill="#D9D9D9" stroke="white" stroke-width="2" stroke-miterlimit="10" stroke-linejoin="round"/>
<path id="Vector_4" fill-rule="evenodd" clip-rule="evenodd" d="M191.691 185.63C191.04 185.63 189.086 185.63 189.086 186.086C189.086 186.543 190.389 186.542 190.389 186.999C190.389 187.455 190.387 187.912 191.04 187.912C191.691 187.912 192.994 187.455 192.994 187.455C192.994 186.999 192.994 186.543 192.994 186.543C192.994 185.63 191.691 185.63 191.691 185.63Z" fill="#D9D9D9" stroke="white" stroke-width="2" stroke-miterlimit="10" stroke-linejoin="round"/>
<path id="Vector_5" fill-rule="evenodd" clip-rule="evenodd" d="M258.136 458.129C257.485 457.216 257.485 456.76 257.485 455.847C257.485 455.39 257.485 454.934 258.136 454.477C258.788 454.021 258.788 454.021 259.439 454.021C260.092 454.021 260.742 454.021 261.393 454.021C261.393 454.477 262.046 454.477 262.696 454.934C263.349 455.39 263.349 455.847 262.696 456.303C262.046 456.303 261.393 456.303 260.742 456.303C260.092 456.303 260.092 456.303 260.092 456.76C260.092 457.216 260.092 457.216 260.092 457.673C260.092 458.129 259.439 458.129 258.788 458.129C258.788 458.586 258.136 458.129 258.136 458.129Z" fill="#D9D9D9" stroke="white" stroke-width="2" stroke-miterlimit="10" stroke-linejoin="round"/>
<path id="Vector_6" fill-rule="evenodd" clip-rule="evenodd" d="M255.532 471.824C254.881 471.368 252.925 472.28 253.578 473.65C253.578 474.563 252.274 475.019 252.925 475.476C253.578 475.932 254.881 474.563 256.182 474.106C257.486 473.65 258.138 473.65 257.485 473.193C256.182 472.737 255.532 471.824 255.532 471.824Z" fill="#D9D9D9" stroke="white" stroke-width="2" stroke-miterlimit="10" stroke-linejoin="round"/>
<path id="Vector_7" fill-rule="evenodd" clip-rule="evenodd" d="M257.485 465.433C258.138 464.52 259.439 463.607 259.439 464.064C260.092 464.977 260.092 465.433 259.439 465.89C258.789 466.346 258.789 465.89 258.789 466.803C258.138 467.716 257.485 467.716 257.485 467.716C256.835 467.259 256.835 466.803 256.835 466.346C256.835 465.89 257.485 465.433 257.485 465.433Z" fill="#D9D9D9" stroke="white" stroke-width="2" stroke-miterlimit="10" stroke-linejoin="round"/>
<path id="Vector_8" fill-rule="evenodd" clip-rule="evenodd" d="M444.443 230.361C444.443 229.904 444.443 228.991 443.791 228.991C443.14 228.991 442.489 228.991 441.837 229.448C441.186 229.448 442.489 230.361 442.489 230.361C442.489 230.361 441.837 230.817 442.489 230.817C442.489 230.817 443.14 231.73 443.14 231.274C443.791 230.817 444.443 230.817 444.443 230.361Z" fill="#D9D9D9" stroke="white" stroke-width="2" stroke-miterlimit="10" stroke-linejoin="round"/>
<path id="Vector_9" fill-rule="evenodd" clip-rule="evenodd" d="M415.783 292.895C415.783 291.982 415.13 291.525 414.479 290.613C413.827 289.7 413.176 289.7 413.827 288.787C414.479 287.874 415.13 286.961 415.783 287.874C416.433 288.787 416.433 289.7 417.084 290.613C417.737 291.525 417.737 291.525 418.387 292.438C418.387 293.351 418.387 293.808 417.737 293.808C417.084 293.808 415.783 292.895 415.783 292.895Z" fill="#D9D9D9" stroke="white" stroke-width="2" stroke-miterlimit="10" stroke-linejoin="round"/>
<path id="Vector_10" fill-rule="evenodd" clip-rule="evenodd" d="M417.085 296.09C416.432 295.634 415.128 294.264 415.128 295.177C415.128 296.547 415.781 296.547 416.432 297.459C417.082 297.916 417.735 298.372 417.735 298.829C417.735 299.285 419.039 299.742 419.039 298.829C419.039 297.916 419.039 297.46 419.039 297.003C418.386 296.547 417.085 296.09 417.085 296.09Z" fill="#D9D9D9" stroke="white" stroke-width="2" stroke-miterlimit="10" stroke-linejoin="round"/>
<path id="Vector_11" fill-rule="evenodd" clip-rule="evenodd" d="M456.82 339.909C455.519 338.996 454.216 337.627 454.866 336.257C455.519 334.431 456.82 333.975 458.124 335.344C459.427 336.714 460.078 335.801 460.73 338.083C461.381 339.909 460.73 340.822 460.078 341.279C458.124 341.279 456.82 339.909 456.82 339.909Z" fill="#D9D9D9" stroke="white" stroke-width="2" stroke-miterlimit="10" stroke-linejoin="round"/>
<path id="Vector_12" fill-rule="evenodd" clip-rule="evenodd" d="M422.948 330.323C421.645 328.954 421.645 328.497 419.691 328.954C417.737 329.41 415.131 329.867 416.434 330.323C417.085 330.78 417.737 330.78 418.388 332.149C419.038 333.518 420.994 334.888 422.296 333.975C422.948 333.062 423.599 331.693 424.25 331.693C424.902 331.693 425.553 332.606 425.553 331.693C424.902 331.693 422.948 330.323 422.948 330.323Z" fill="#D9D9D9" stroke="white" stroke-width="2" stroke-miterlimit="10" stroke-linejoin="round"/>
<path id="Vector_13" fill-rule="evenodd" clip-rule="evenodd" d="M426.203 328.497C424.902 327.128 424.249 327.584 424.249 326.215C424.249 324.845 424.249 323.478 424.902 323.022C425.552 322.565 426.205 322.109 426.855 323.478C427.506 324.848 428.81 324.848 428.81 325.761C429.46 326.671 429.46 327.128 428.81 328.041C428.159 328.497 428.159 329.41 427.506 328.954C426.856 328.954 426.203 328.497 426.203 328.497Z" fill="#D9D9D9" stroke="white" stroke-width="2" stroke-miterlimit="10" stroke-linejoin="round"/>
<path id="Vector_14" fill-rule="evenodd" clip-rule="evenodd" d="M434.021 307.046C432.718 305.22 430.764 304.307 430.111 306.133C430.111 307.959 432.065 308.415 432.065 308.872C432.718 309.328 434.021 309.785 434.672 308.872C435.323 308.415 434.021 307.046 434.021 307.046Z" fill="#D9D9D9" stroke="white" stroke-width="2" stroke-miterlimit="10" stroke-linejoin="round"/>
<path id="Vector_15" fill-rule="evenodd" clip-rule="evenodd" d="M442.488 324.847C441.187 323.934 439.883 323.934 439.883 324.391C439.883 325.304 440.534 325.304 441.187 325.76C441.837 326.216 441.837 327.129 442.488 327.586C443.141 327.586 444.444 327.586 443.791 327.129C443.791 326.673 443.791 326.216 443.141 326.216C443.791 325.76 443.141 325.303 442.488 324.847Z" fill="#D9D9D9" stroke="white" stroke-width="2" stroke-miterlimit="10" stroke-linejoin="round"/>
<path id="Vector_16" d="M308.949 213.015C309.6 212.104 310.25 210.735 310.903 209.822C311.554 208.909 312.206 207.996 313.508 207.083C314.16 206.17 315.462 205.714 316.765 205.257C318.068 204.801 318.719 204.801 320.022 204.801C320.673 204.801 321.326 204.801 321.976 204.801C322.629 204.801 323.28 204.801 323.932 204.801C325.886 204.801 327.84 204.801 331.097 204.801C332.399 204.801 333.702 204.344 335.005 204.344C336.309 204.344 336.959 203.888 337.61 203.888C338.263 203.888 338.913 203.431 338.913 203.431L339.566 202.975C339.566 202.518 339.566 201.605 340.217 200.692C340.217 199.779 340.217 199.323 340.217 198.41C339.566 197.954 338.913 197.954 338.263 197.497C336.309 196.584 334.355 196.128 332.399 195.671C331.097 195.215 329.794 194.758 329.144 194.302C328.491 193.845 327.84 193.389 325.886 192.476C323.28 191.107 320.675 189.281 319.372 188.368C317.418 187.455 314.16 186.998 312.857 186.998H312.204C310.903 186.998 308.949 186.542 307.646 184.716C307.646 184.259 306.993 184.26 306.993 183.803C305.692 182.434 305.039 181.977 306.343 180.608C306.995 179.695 307.646 179.238 306.993 178.325C306.993 177.869 306.342 176.956 305.692 176.5L305.039 176.043C303.738 175.13 303.085 174.217 304.389 173.304C305.039 172.848 305.692 172.391 306.343 172.391C306.995 172.391 307.646 172.391 308.296 171.478C310.25 170.109 310.25 169.652 310.25 169.196V168.74C310.25 167.827 312.206 167.827 314.16 167.827C314.811 167.827 315.462 167.827 316.765 167.827C318.068 167.827 319.372 167.37 320.675 166.457C321.976 166.001 323.28 165.088 323.28 164.631C323.28 164.175 323.28 164.175 322.629 164.175C322.629 164.175 322.629 164.175 321.976 164.175C321.326 163.718 320.675 163.718 321.326 162.805C321.976 161.892 323.93 160.98 325.886 160.067C327.84 159.154 329.794 158.241 330.445 157.784C330.445 157.328 330.445 156.417 330.445 155.961C330.445 155.048 329.794 154.591 330.445 154.135C331.097 153.222 333.051 152.309 334.355 151.852C335.005 151.396 335.005 151.396 335.656 151.396H336.309C336.959 151.396 338.263 151.396 338.913 150.483C338.913 149.57 338.913 149.57 338.263 149.114C337.61 148.657 336.959 148.201 336.959 147.744C336.959 147.288 336.309 146.831 336.309 146.375C336.309 145.918 335.656 145.462 335.656 143.636C335.005 141.354 335.005 140.897 334.355 140.441C334.355 140.441 334.355 140.441 334.355 139.984C333.702 139.528 332.399 138.615 331.097 138.158C330.445 137.702 329.794 137.702 329.794 137.245C329.794 137.245 329.794 137.246 329.144 136.789C328.491 136.333 327.188 135.42 327.84 132.681C327.84 130.855 328.491 130.398 329.144 129.942C329.144 129.486 329.794 129.485 329.794 128.573C329.794 127.66 329.794 126.747 329.144 126.29C329.144 125.377 328.491 124.464 329.144 123.551C330.445 122.638 331.748 120.813 333.051 118.987C334.355 117.161 334.355 117.161 335.656 117.161C336.309 117.161 336.309 117.161 336.959 117.617C337.612 117.617 337.61 118.074 338.263 118.074C338.913 118.074 339.566 118.53 340.217 118.53C340.867 118.53 340.867 118.53 340.867 118.53C340.867 118.074 340.217 117.617 340.217 117.617C340.217 117.161 338.913 116.704 337.61 115.791C336.309 115.335 336.309 114.422 335.656 113.509C335.656 113.053 335.656 112.596 335.005 112.14C334.353 111.227 333.051 111.227 331.097 111.227C329.794 111.227 328.491 111.227 327.188 110.77C326.537 110.77 326.537 110.77 325.886 110.314V110.77L325.234 110.314C324.583 110.314 324.583 109.857 323.932 109.857C323.28 109.401 322.629 108.488 321.326 107.118C320.022 105.293 317.418 104.38 316.114 103.467H315.462H314.811H314.16L313.508 103.923C313.508 104.38 313.508 104.836 313.508 105.293C313.508 107.119 315.462 110.314 316.114 111.683C316.114 112.14 316.114 112.14 316.765 112.596C316.765 113.053 316.765 113.509 316.765 113.965C316.765 114.422 316.765 114.878 316.765 115.335C316.765 115.791 316.114 116.248 315.462 116.704H314.811C314.811 116.704 314.16 116.704 314.16 117.161C313.508 117.617 313.508 118.074 312.857 118.074C312.857 118.074 312.857 118.53 312.204 118.53C311.554 118.987 311.554 118.987 310.903 118.987C310.25 118.987 310.25 118.987 309.6 118.53C308.949 118.074 308.296 117.617 307.646 117.161C307.646 117.161 307.646 117.161 306.993 116.704C306.993 116.704 306.995 116.704 306.343 116.704H305.692C305.039 117.161 305.039 117.161 305.039 117.617C305.039 117.617 305.039 118.074 305.039 118.53C305.039 118.987 305.692 119.443 305.692 119.9C306.993 120.813 305.692 122.182 305.039 123.095C305.039 123.551 304.389 124.008 303.738 124.464C303.085 124.921 303.085 125.377 302.435 125.834C301.782 126.747 300.481 126.29 299.177 126.29C298.525 126.29 297.874 125.834 297.223 125.834C296.571 125.834 295.92 125.834 295.269 125.834C294.617 125.834 294.617 126.29 293.966 126.29C292.663 127.203 291.359 126.747 290.709 126.29C290.056 126.29 290.056 125.834 289.405 125.834C288.755 125.834 286.148 125.377 283.543 125.834C281.589 125.834 280.937 126.29 280.937 126.29C280.937 126.29 280.937 126.29 281.589 126.747C282.24 127.203 282.891 127.66 283.543 128.116C284.847 128.573 286.148 129.486 286.801 129.942C287.451 130.855 288.755 131.311 289.405 131.768C290.056 132.224 291.359 132.681 292.012 133.594C293.966 135.42 293.313 137.245 293.313 139.071V139.528C293.313 140.441 292.012 140.897 291.359 140.897C290.058 140.897 289.405 139.984 288.102 139.528L287.451 139.071C286.801 139.071 286.801 139.071 286.148 139.071C285.497 139.071 284.194 139.528 283.543 139.984C282.891 139.984 282.891 140.441 282.24 140.441C281.59 140.441 281.589 140.897 281.589 140.897C280.937 140.897 280.286 140.897 280.286 140.441L279.634 139.984C278.983 139.528 278.983 139.071 278.332 139.071C278.332 139.071 277.68 139.071 277.029 139.071C275.075 139.071 271.818 139.528 269.211 138.158L268.56 137.702C265.303 136.333 261.395 134.507 260.092 132.681C259.439 131.768 258.788 131.768 258.138 131.311C257.485 131.311 256.184 131.311 254.881 131.768C252.927 132.224 253.577 134.05 253.577 136.333V136.789C253.577 137.702 254.23 138.158 254.23 138.615C254.881 139.071 254.881 139.528 254.881 140.441C254.881 141.354 254.23 142.267 254.23 142.723C253.577 143.18 253.577 143.636 252.927 144.549C252.274 145.918 250.971 146.375 250.32 146.831C249.669 146.831 249.669 147.288 249.669 147.288C249.669 147.744 249.669 148.201 249.669 148.657C249.669 149.57 250.32 151.396 248.366 151.852C247.715 152.309 247.063 152.309 245.761 152.309C244.458 152.309 243.155 152.765 242.504 153.678C241.851 154.591 240.55 155.504 239.247 155.961C237.943 156.417 236.64 157.328 234.686 157.784C232.732 158.697 230.778 159.61 229.475 160.523C227.521 161.893 225.567 163.262 224.264 165.544C222.31 167.827 222.31 169.653 221.657 171.022C221.657 171.478 221.657 171.478 221.006 171.478C221.657 171.478 222.31 171.935 224.264 172.848C226.218 173.761 227.521 174.217 229.475 174.674C230.778 175.13 232.082 175.587 232.732 176.043C234.036 176.956 234.686 176.956 234.686 176.5C234.686 176.5 234.686 176.043 235.337 176.043C235.337 175.587 235.989 175.587 236.64 175.587C237.293 175.587 237.293 175.587 237.943 176.043C238.594 176.5 239.247 176.499 239.897 176.956C240.548 177.412 242.504 177.869 245.109 178.782C247.715 179.695 250.32 180.151 250.973 180.151C251.623 180.151 252.274 180.151 252.927 179.695C253.577 179.695 254.228 179.238 254.881 179.695C255.531 180.151 255.531 180.608 255.531 181.064C255.531 181.521 255.531 181.521 255.531 181.977C255.531 182.434 256.184 182.89 256.835 183.347C256.835 183.347 257.485 183.803 257.485 184.26C258.138 184.716 258.138 185.172 258.789 186.085C258.789 186.542 258.789 187.455 258.789 187.911C258.789 188.824 258.138 189.737 258.138 190.194C258.138 191.107 258.138 192.019 258.138 192.932C258.138 193.389 258.789 194.758 258.789 195.671C259.441 196.584 260.092 197.497 261.395 197.954C262.696 197.954 263.349 197.954 264 197.497C264.652 197.041 265.954 196.584 266.606 197.041C267.257 197.497 267.91 197.954 268.56 197.954C269.211 198.41 269.864 198.41 270.514 198.866C271.165 199.323 271.818 199.323 271.818 199.78C273.121 200.236 273.772 200.692 273.119 201.149C273.119 201.605 271.818 201.605 271.165 201.605C270.514 201.605 269.211 201.149 268.56 201.149H267.908C267.257 201.149 265.303 201.149 264 201.605C262.696 202.062 260.742 202.518 260.092 203.888C260.092 204.344 259.441 204.344 259.441 204.801C259.441 205.257 259.441 205.714 259.441 205.714C258.789 207.996 258.788 208.452 260.092 209.365C260.742 209.822 261.395 210.278 262.046 210.735C262.698 210.735 262.696 211.191 262.696 211.191C262.696 211.648 262.698 211.648 262.046 211.648C261.395 212.104 260.742 212.104 260.092 212.104C259.439 212.104 258.138 212.104 258.138 212.558C258.138 213.015 258.138 213.015 258.789 213.015C259.441 213.015 259.441 213.015 260.742 213.015C261.395 213.015 262.696 213.015 263.349 213.015C264 213.015 265.303 213.015 265.954 213.015C267.257 213.015 269.211 213.471 269.864 213.928C270.514 213.928 270.514 214.384 271.165 214.384L271.818 214.841C271.818 215.297 271.165 215.297 270.514 215.754L269.864 216.21V216.666C270.514 217.123 271.165 217.123 272.468 216.666C273.121 216.666 274.422 216.666 275.075 216.666C275.726 216.666 277.029 216.667 277.68 217.123C278.332 217.123 278.983 217.123 279.634 217.123C279.634 217.123 279.634 217.123 279.634 216.666V216.21C279.634 215.754 278.983 215.754 278.983 215.297C278.332 215.297 277.68 214.841 277.68 214.384V213.928V213.474H278.332C278.983 213.474 279.634 213.474 280.286 213.474C280.937 213.474 281.59 213.928 282.24 213.928C282.891 214.384 284.847 214.841 286.801 215.754C288.102 216.21 289.405 216.667 290.058 217.123C291.359 217.579 292.012 217.579 292.663 217.579C293.313 217.579 293.966 217.579 293.966 218.036L294.617 218.492C295.269 218.492 295.92 218.492 296.571 218.036C296.571 218.036 297.223 218.036 297.223 217.579C297.223 217.579 297.874 217.123 298.527 217.123C299.177 217.123 300.481 216.667 301.782 217.123C302.435 217.123 303.085 217.579 304.389 218.036C305.039 218.492 306.342 218.949 306.993 219.405C306.993 219.405 306.993 219.405 306.993 218.949C308.296 216.21 308.296 214.841 308.949 213.015Z" fill="#D9D9D9" stroke="white" stroke-width="2" stroke-miterlimit="10" stroke-linejoin="round"/>
<path id="Vector_17" d="M260.09 212.561C259.439 212.561 259.439 213.017 258.788 213.017C258.136 213.017 257.485 213.474 257.485 213.93C258.136 214.387 258.788 214.841 258.788 214.841C259.439 214.841 259.439 215.754 260.09 215.297C260.742 214.841 261.393 214.843 261.393 214.387C261.393 213.93 261.393 213.474 261.393 213.474C262.046 213.017 260.742 212.561 260.09 212.561Z" fill="#D9D9D9" stroke="white" stroke-width="2" stroke-miterlimit="10" stroke-linejoin="round"/>
<path id="Vector_18" d="M282.891 216.211C282.241 216.667 280.937 217.123 280.937 217.58C281.588 218.036 282.891 218.493 283.544 218.036C284.194 217.58 284.847 217.58 284.847 217.58C285.498 217.123 284.195 215.754 282.891 216.211Z" fill="#D9D9D9" stroke="white" stroke-width="2" stroke-miterlimit="10" stroke-linejoin="round"/>
<path id="Vector_19" d="M280.937 219.405C280.284 218.492 278.331 217.579 278.331 218.492C278.331 219.405 278.983 220.774 280.284 220.318C281.588 219.862 282.238 220.318 281.588 219.862C281.588 219.405 280.937 219.405 280.937 219.405Z" fill="#D9D9D9" stroke="white" stroke-width="2" stroke-miterlimit="10" stroke-linejoin="round"/>
<path id="Vector_20" fill-rule="evenodd" clip-rule="evenodd" d="M417.735 223.514C416.431 222.601 412.523 223.057 412.523 223.514C411.871 223.97 413.174 225.339 414.477 225.339C415.781 225.796 414.477 226.709 416.431 226.709C417.735 226.709 418.385 226.252 419.038 225.339C419.689 224.883 419.688 223.97 419.688 223.97C418.385 223.97 417.735 223.514 417.735 223.514Z" fill="#D9D9D9" stroke="white" stroke-width="2" stroke-miterlimit="10" stroke-linejoin="round"/>
<path id="Vector_21" d="M404.055 263.68C404.055 263.224 404.055 262.311 403.404 261.398C402.754 259.574 402.754 257.749 402.101 257.749C402.101 257.749 402.101 257.292 401.45 257.292H400.798H400.147C400.147 257.292 400.147 257.292 399.496 257.749C399.496 258.203 398.844 258.205 398.844 258.205H398.193C398.193 258.205 397.542 258.203 397.542 257.749C397.542 257.749 396.89 257.292 396.89 256.836C396.89 256.379 396.89 256.379 396.239 255.923C394.936 253.64 392.982 248.619 392.331 247.25C392.331 246.337 391.679 245.88 391.028 245.424C391.028 244.967 390.375 244.511 389.725 244.054C389.074 243.598 389.074 243.141 389.074 242.229C389.074 241.316 389.072 239.946 387.118 238.12C385.817 236.751 382.559 233.556 379.302 230.817C376.045 228.078 372.787 225.339 371.484 224.426L348.685 207.993C348.685 207.993 343.474 204.344 341.52 202.062C341.52 201.605 340.867 201.605 340.867 201.149C340.867 202.062 340.867 202.974 340.217 203.887C340.217 204.342 339.566 204.798 338.913 205.255C338.263 205.711 337.61 205.711 336.959 206.167C336.309 206.167 335.005 206.624 333.702 206.624C332.399 206.624 331.095 207.08 329.794 207.08C325.884 207.537 324.583 207.537 321.976 207.08C321.326 207.08 320.673 207.08 320.022 207.08C319.372 207.08 318.719 207.08 318.068 207.08C317.416 207.08 316.114 207.08 315.462 207.537C314.811 207.993 313.508 208.45 312.857 208.906C312.204 209.363 311.554 210.276 310.903 211.189C310.25 212.102 309.6 213.014 309.6 213.927C308.949 215.297 308.947 216.666 308.947 217.123C308.947 217.579 308.947 218.036 308.947 218.036C310.25 218.492 311.554 218.949 311.554 220.318C312.204 221.231 312.204 221.688 311.554 222.6C311.554 223.057 311.554 223.513 311.554 224.426C312.204 225.339 312.857 226.252 314.811 227.165C315.462 227.622 316.765 228.078 317.418 228.991C318.068 229.904 319.372 230.36 320.022 230.817C321.976 232.186 323.279 233.099 324.583 234.469C325.233 235.838 325.233 236.295 324.583 236.751V237.207H325.234C325.234 237.207 325.233 237.207 325.884 236.751L326.537 236.294H327.187C327.84 237.207 327.84 237.664 327.187 238.577C326.537 239.033 326.537 239.49 326.537 239.946C326.537 240.403 326.537 240.859 326.537 240.859C326.537 240.859 326.537 241.316 325.884 241.316H325.234H324.583C323.93 241.316 323.93 240.859 323.279 240.403C323.279 239.946 323.28 239.49 322.629 239.49C322.629 238.577 321.976 237.207 320.022 237.207C317.416 237.207 316.114 237.207 315.462 238.577C314.811 239.49 313.508 239.49 312.857 239.946C312.204 239.946 311.554 239.946 311.554 240.403C311.554 240.403 311.554 240.403 311.554 240.859C311.554 240.859 312.204 240.859 312.204 241.316C312.857 241.316 314.16 241.316 314.811 241.316C316.114 241.316 316.765 241.316 317.418 241.316C318.068 241.316 318.719 241.772 318.719 242.229C318.719 242.229 318.719 242.685 318.719 243.142C318.719 244.054 319.372 244.967 320.022 245.88C320.673 246.337 320.673 246.337 321.325 246.793C321.976 247.25 322.627 247.25 323.279 249.076C323.93 251.358 325.233 252.271 326.537 253.64C327.187 254.097 327.187 254.097 327.84 254.553C327.84 255.01 328.491 255.01 328.491 255.466C329.794 256.379 329.794 256.836 331.095 256.836C331.748 256.836 331.748 256.379 332.399 256.379C333.051 256.379 333.051 255.923 333.702 255.923C334.353 255.923 334.353 255.923 335.005 256.379C335.005 256.379 335.005 256.836 335.656 256.836V257.292C335.656 257.749 335.005 257.749 334.353 258.205C333.702 258.205 333.702 258.662 333.051 258.662C331.748 259.118 331.095 259.572 331.095 260.029C331.095 260.029 331.095 260.485 331.748 260.485C332.399 260.485 333.051 260.485 333.051 260.485H333.702C334.353 260.485 335.005 260.485 335.656 260.485C336.309 260.485 336.959 260.941 336.309 261.398C335.656 261.854 335.656 262.311 335.656 263.224C335.656 263.68 335.656 264.593 336.309 264.593C336.309 265.05 336.309 265.05 336.309 265.506C336.309 265.506 335.656 265.963 335.005 265.963C334.353 265.963 333.051 266.419 332.399 266.419C331.748 266.419 331.748 266.876 331.095 266.876C331.095 266.876 331.095 267.332 331.748 267.332C332.399 267.332 332.399 267.788 333.051 267.788C333.051 267.788 333.051 267.788 333.702 267.788C334.353 267.788 335.005 267.788 335.656 267.788C336.309 267.788 336.309 268.245 336.959 268.245C336.959 268.701 336.959 268.702 336.309 268.702C336.309 268.702 335.656 269.158 335.005 269.158C334.353 269.158 333.702 269.614 333.702 269.614C333.051 269.614 333.051 270.071 332.399 270.071C331.748 270.527 331.748 270.984 331.748 270.984V271.44C331.748 272.353 331.095 274.179 331.748 275.548C332.399 276.461 333.051 276.918 333.702 276.918C334.353 277.374 335.005 277.374 335.656 277.831C336.309 278.287 335.656 278.744 335.656 278.744C335.656 278.744 335.005 279.2 335.656 280.57C336.309 281.483 336.309 282.852 336.959 283.308C337.61 284.221 337.61 284.678 338.263 284.678C338.263 284.221 338.263 284.221 338.913 283.765C338.913 283.309 339.564 282.396 339.564 282.396C340.217 282.396 340.217 282.396 340.217 282.396L340.867 282.852V283.308H341.52C342.171 283.308 342.821 283.309 342.821 284.221C342.821 284.678 342.171 285.134 341.52 285.134C340.867 285.134 340.867 285.591 340.217 285.591C340.217 286.047 340.217 286.504 340.867 286.96C340.867 287.417 341.52 287.417 342.17 287.873C342.821 288.33 344.124 288.786 344.124 288.786C344.124 289.243 344.124 289.243 344.124 289.243C344.124 289.243 344.125 289.243 343.474 289.243C342.821 289.243 342.821 289.243 342.821 291.068C342.821 291.981 342.821 292.894 343.474 293.351C343.474 293.807 344.124 293.807 344.124 293.807H344.775H345.428C346.078 293.807 346.079 293.351 346.079 292.894C346.079 292.438 346.079 292.438 346.079 291.981C346.079 291.069 345.428 290.612 346.079 290.156C346.079 289.699 346.731 289.243 347.382 289.243H348.032H348.685C348.685 289.243 349.336 289.699 349.336 290.156C349.336 290.612 349.988 291.068 349.988 291.525C349.988 291.525 350.639 291.981 351.29 291.981C351.942 291.981 351.942 291.981 352.593 291.525C352.593 291.525 353.244 291.069 352.593 290.612C352.593 290.156 352.593 289.699 352.593 289.699C352.593 289.243 353.246 289.243 353.246 288.786C353.896 288.33 356.501 286.504 358.457 285.591C359.108 285.134 359.758 285.134 359.758 284.678C359.758 284.221 360.411 283.765 361.714 283.308C363.016 282.852 363.668 282.396 364.319 281.939C365.622 281.026 366.273 280.57 367.576 281.026C368.227 281.483 368.88 281.483 369.53 281.483C370.183 281.483 370.834 281.026 371.484 281.026L372.137 280.57C372.787 280.113 373.438 280.113 373.438 279.657C374.091 279.657 374.741 279.2 374.741 279.657C375.394 280.113 375.392 280.113 375.392 280.57C375.392 281.026 375.394 281.483 376.045 281.939C376.045 282.396 376.695 282.852 377.348 282.852H377.999H378.649V282.396C378.649 281.483 379.302 281.026 379.953 281.026C379.953 281.026 380.605 280.57 381.256 280.57C381.907 280.113 381.907 280.113 382.559 279.657C382.559 279.2 383.21 278.744 383.861 278.287C384.513 277.831 384.513 277.374 384.513 276.918C384.513 276.918 384.513 276.918 384.513 276.462C384.513 276.462 384.513 276.005 385.164 276.462C385.817 276.462 386.467 276.918 387.118 276.918C387.771 277.374 388.421 277.374 389.074 277.831C389.725 278.287 390.375 278.287 391.678 278.287C392.982 278.287 394.285 278.287 394.936 277.831H395.586C397.543 277.374 399.496 276.918 399.496 275.092C400.147 273.723 399.496 271.44 399.496 270.071C399.496 269.614 399.496 269.614 399.496 269.158C399.496 268.245 399.496 267.332 400.147 266.419C404.055 265.05 404.055 264.137 404.055 263.68Z" fill="#D9D9D9" stroke="white" stroke-width="2" stroke-miterlimit="10" stroke-linejoin="round"/>
<path id="Vector_22" d="M342.168 291.069C341.517 290.613 339.564 291.069 338.913 291.526C337.61 291.982 338.26 292.895 338.26 294.265C338.26 294.265 339.564 294.721 340.214 294.721C340.867 294.721 341.517 294.265 341.517 294.265C342.168 293.808 342.168 293.808 342.821 293.352C343.471 292.895 343.471 292.439 343.471 291.526C342.821 290.613 342.821 291.069 342.168 291.069Z" fill="#D9D9D9" stroke="white" stroke-width="2" stroke-miterlimit="10" stroke-linejoin="round"/>
<path id="Vector_23" d="M365.622 292.438C365.622 292.438 366.924 292.438 367.576 291.982C367.576 291.525 367.576 291.069 367.576 290.612C366.924 290.156 366.273 289.699 366.273 288.786C366.273 288.33 364.97 287.417 363.666 287.417C362.365 287.417 363.016 288.786 363.016 290.156C363.016 291.069 364.319 291.069 365.622 292.438Z" fill="#D9D9D9" stroke="white" stroke-width="2" stroke-miterlimit="10" stroke-linejoin="round"/>
<path id="Vector_24" d="M372.135 283.765C371.484 283.309 370.834 283.765 370.181 284.222C369.531 284.678 370.181 285.591 370.834 286.961L372.788 287.874C373.438 287.874 373.439 286.048 373.439 285.591C373.439 284.678 372.788 284.678 372.135 283.765Z" fill="#D9D9D9" stroke="white" stroke-width="2" stroke-miterlimit="10" stroke-linejoin="round"/>
<path id="Vector_25" d="M378.649 283.765C377.346 282.852 377.346 281.939 376.045 282.396C374.742 282.852 374.742 283.309 375.392 283.765C376.043 284.222 376.696 285.135 376.696 285.135C377.346 285.591 377.999 286.048 378.649 286.048C379.3 286.048 380.603 286.048 380.603 285.591C379.953 285.135 378.649 283.765 378.649 283.765Z" fill="#D9D9D9" stroke="white" stroke-width="2" stroke-miterlimit="10" stroke-linejoin="round"/>
<path id="Vector_26" d="M392.329 283.309C391.677 284.222 391.677 284.678 392.329 285.135C392.98 285.591 392.329 286.048 393.631 286.504C394.934 286.504 395.587 287.417 395.587 286.504C395.587 285.591 396.237 285.135 396.237 284.678C396.237 284.222 396.237 283.765 395.587 283.309C395.587 281.939 393.631 280.57 392.329 283.309Z" fill="#D9D9D9" stroke="white" stroke-width="2" stroke-miterlimit="10" stroke-linejoin="round"/>
<path id="Vector_27" d="M387.771 281.027C387.118 280.57 385.164 280.114 385.164 280.57C385.164 281.027 384.513 281.483 385.164 281.94C385.817 282.396 385.817 282.396 386.467 282.853C387.118 283.309 389.074 283.766 389.074 283.309C389.074 282.853 389.074 282.396 389.074 282.396C389.074 281.483 387.771 281.027 387.771 281.027Z" fill="#D9D9D9" stroke="white" stroke-width="2" stroke-miterlimit="10" stroke-linejoin="round"/>
<path id="Vector_28" d="M315.464 238.577C316.115 238.577 316.115 238.121 316.115 238.121C316.115 237.664 316.765 237.664 316.765 237.664L315.464 237.207C314.811 236.751 313.508 236.295 313.508 237.207C313.508 238.12 312.857 238.12 313.508 238.577C313.508 238.577 314.811 239.033 315.464 238.577Z" fill="#D9D9D9" stroke="white" stroke-width="2" stroke-miterlimit="10" stroke-linejoin="round"/>
<path id="Vector_29" d="M305.691 218.949C305.691 218.493 305.039 218.493 305.039 219.406C305.039 219.862 305.692 220.775 306.342 220.775C306.993 221.232 308.296 221.232 308.296 220.775C308.296 220.319 308.296 219.862 308.296 219.862C306.993 218.949 306.342 218.949 305.691 218.949Z" fill="#D9D9D9" stroke="white" stroke-width="2" stroke-miterlimit="10" stroke-linejoin="round"/>
<path id="Vector_30" d="M366.923 313.436C365.622 312.523 363.015 312.523 361.061 312.98C359.107 312.98 357.154 314.349 356.501 314.349C355.85 314.805 351.942 316.173 351.942 317.542C351.942 317.542 351.94 318.455 352.593 318.911C353.244 319.368 355.85 319.824 356.501 319.824C357.154 319.824 361.712 318.911 363.666 318.911C365.622 318.911 367.576 317.542 368.877 316.631C368.877 315.262 368.227 313.893 366.923 313.436Z" fill="#D9D9D9" stroke="white" stroke-width="2" stroke-miterlimit="10" stroke-linejoin="round"/>
</g>
</svg>
