<svg width="314" height="270" viewBox="0 0 314 270" fill="none" xmlns="http://www.w3.org/2000/svg">
<mask id="mask0_724_3772" style="mask-type:luminance" maskUnits="userSpaceOnUse" x="0" y="0" width="314" height="270">
<path d="M312.631 0.5V268.749H1.36865V0.5H312.631Z" fill="white" stroke="white"/>
</mask>
<g mask="url(#mask0_724_3772)">
<path d="M48.3777 111.648C48.3777 140.618 74.4626 164.104 106.639 164.104C138.817 164.104 164.901 140.618 164.901 111.648C164.901 82.6774 138.817 59.192 106.639 59.192C74.4626 59.192 48.3777 82.6774 48.3777 111.648Z" fill="#788795"/>
<path d="M68.344 72.3693C68.344 72.3693 75.0989 76.044 73.6916 78.3248C72.2842 80.6053 67.7812 84.5331 67.7812 84.5331C67.7812 84.5331 65.5996 83.6777 65.5996 82.6798C65.5996 81.682 65.3888 80.1618 64.2805 80.3519C63.1722 80.542 64.6498 83.2027 64.7554 83.5829C64.8609 83.9631 63.3833 84.2482 62.5917 84.3906C61.8002 84.5331 60.903 83.6779 59.9529 84.0581C59.0031 84.438 55.995 88.3343 56.9448 88.6194C57.8949 88.9046 59.7947 89.3795 58.528 90.2823C57.2615 91.1851 60.639 90.5672 61.0612 90.9473C61.4835 91.3275 64.7024 92.1353 64.386 92.3727C64.0693 92.6102 64.2805 94.9863 65.0721 94.8439C65.8636 94.7012 64.9665 92.373 65.8107 92.1355C66.6552 91.8978 67.9217 91.7077 67.7635 90.5674C67.605 89.4272 66.1803 87.4315 67.7635 87.099C69.3467 86.7665 75.8905 89.9974 76.2072 91.1377C76.5239 92.278 78.1597 94.2734 78.6349 94.9861C79.1098 95.6988 81.643 97.3619 78.7404 98.6925C75.8379 100.023 71.0354 101.496 70.7187 101.211C70.402 100.926 68.3966 102.969 66.8664 105.915C65.3358 108.86 64.7024 109.431 62.3277 109.431C59.9529 109.431 57.3144 108.908 56.2061 111.046C55.0979 113.184 55.0979 115.56 56.2588 115.655C57.42 115.75 58.7391 114.467 59.9003 114.515C61.0612 114.562 61.589 116.558 61.589 117.033C61.589 117.508 66.3385 121.166 66.1274 121.642C65.9163 122.117 61.0086 119.123 59.6362 118.363C58.2642 117.603 51.9315 116.843 51.7204 116.51C51.5093 116.178 48.4485 114.277 48.4485 113.612C48.4485 112.947 48.7963 104.924 49.6094 100.736C50.5592 95.8415 55.8365 85.1033 60.1114 79.9244C64.386 74.7451 68.344 72.3693 68.344 72.3693Z" fill="white"/>
<path d="M71.2992 153.302C71.2992 153.302 71.6159 149.342 72.3545 149.247C73.0935 149.153 74.2541 148.013 74.9931 147.252C75.732 146.492 77.4211 143.926 79.1098 143.261C80.7985 142.596 81.2202 138.889 82.2758 138.129C83.3312 137.369 87.9757 136.419 88.0813 135.658C88.1868 134.898 90.4028 126.821 88.6085 126.631C86.8142 126.441 84.0704 125.491 82.8039 125.015C81.5372 124.54 72.5657 120.549 70.3494 120.549C68.1329 120.549 66.0219 121.214 65.7052 123.59C65.3885 125.966 66.3386 130.432 67.4995 131.572C68.6604 132.713 71.7215 132.523 71.6159 134.518C71.5103 136.514 69.3993 141.36 69.1882 142.88C68.9771 144.401 67.8162 150.578 67.8162 150.578L71.2992 153.302Z" fill="white"/>
<path d="M118.795 143.451C118.795 143.451 118.857 143.567 118.963 143.755C119.442 144.604 120.809 146.933 121.328 146.777C121.961 146.587 124.706 143.071 125.233 141.17C125.761 139.27 123.65 136.704 126.289 135.754C128.927 134.803 130.511 135.469 130.933 134.138C131.355 132.808 131.777 131.002 130.933 129.957C130.089 128.912 130.511 126.916 131.355 126.251C132.199 125.586 134.521 124.065 135.576 123.115C136.632 122.165 138.11 119.979 137.477 119.314C136.844 118.648 133.044 119.219 133.361 118.648C133.677 118.078 131.461 113.707 131.461 113.707C131.461 113.707 134.099 117.128 135.26 117.128C136.421 117.128 141.91 115.608 141.487 114.752C141.065 113.897 141.276 113.802 139.799 112.377C138.321 110.951 135.26 110.001 134.416 108.956C133.572 107.91 133.572 106.39 133.572 106.39L142.332 111.996L146.132 111.901C146.132 111.901 145.498 113.327 146.976 113.992C148.454 114.657 148.454 113.707 148.876 115.608C149.298 117.508 150.776 122.355 152.042 122.165C153.309 121.974 153.309 120.549 153.309 118.934C153.309 117.318 154.892 115.132 156.158 114.943C157.425 114.752 161.119 116.083 161.436 117.508C161.752 118.934 162.491 120.834 162.491 121.119C162.491 121.404 161.752 123.305 161.752 123.305L162.702 124.92C162.702 124.92 164.708 120.122 164.496 116.938C164.285 113.755 161.541 112.567 161.594 110.999C161.647 109.431 163.072 106.58 164.496 105.725C164.496 105.725 162.997 97.729 161.541 94.2261C159.772 89.9701 153.874 79.4167 150.934 77.7387L146.395 75.1254C146.395 75.1254 144.496 76.6458 143.757 76.5984C143.018 76.5508 139.482 72.6548 139.904 71.3718C140.327 70.0888 138.638 69.2337 138.004 70.0888C137.371 70.9442 138.849 74.983 138.849 74.983L142.068 77.0737L132.622 78.0238L132.833 79.6867C132.833 79.6867 125.233 74.8403 123.492 74.8403C121.75 74.8403 117.739 77.4062 117.476 78.7839C117.212 80.1619 117.37 83.3455 117.37 83.3455L111.353 85.626L110.087 87.1941L111.353 89.3322L113.57 89.6648L109.982 94.8914L106.129 88.0019L103.016 93.6084C103.016 93.6084 109.084 97.4571 108.662 98.4075C108.24 99.3577 108.082 101.924 106.974 101.734C105.866 101.543 103.596 101.686 103.596 101.686L105.073 105.345C105.073 105.345 107.343 106.817 108.082 105.202C108.821 103.586 107.871 102.874 111.037 101.734C114.204 100.593 115.945 101.496 115.945 101.496L117.581 105.392L119.586 103.254C119.586 103.254 120.22 105.772 120.959 105.725C121.698 105.677 121.961 104.062 123.281 104.537C124.6 105.012 125.814 105.012 126.922 105.392C128.03 105.772 128.822 106.77 128.822 106.77C128.822 106.77 128.769 110.476 125.813 109.668C122.858 108.86 119.692 106.532 119.428 107.483C119.164 108.433 117.792 108.576 117.792 108.576C117.792 108.576 114.784 107.673 114.573 106.96C114.362 106.247 113.993 105.345 113.993 105.345C113.993 105.345 111.301 105.25 109.718 106.057C108.134 106.865 105.812 106.912 105.971 106.627C106.129 106.342 105.285 106.105 104.229 107.91C103.174 109.716 102.963 109.858 102.171 110.904C101.38 111.949 100.535 111.331 100.272 113.137C100.007 114.943 101.327 119.836 102.277 120.977C103.227 122.117 106.71 122.117 108.61 122.117C110.51 122.117 112.884 121.167 113.887 122.64C114.89 124.113 114.89 125.253 114.89 126.631C114.89 128.009 115.998 127.581 116.262 129.149C116.526 130.717 115.312 132.048 115.259 133.235C115.206 134.423 118.795 143.451 118.795 143.451Z" fill="white"/>
<path d="M238.223 157.595L219.502 145.869L124.395 195.323C116.732 199.306 113.852 204.354 113.205 209.777L107.617 211.267C112.18 213.266 114.394 216.096 115.544 219.036C115.86 219.842 116.698 220.385 117.646 220.385C133.772 219.644 143.521 218.116 156.272 211.488L250.989 162.237V154.348L238.223 157.595Z" fill="#B0E7FD"/>
<path d="M117.646 216.533L114.387 216.752C114.862 217.5 115.241 218.268 115.546 219.044C115.861 219.847 116.699 220.385 117.644 220.385H117.646C133.771 219.644 143.521 218.116 156.272 211.488L250.99 162.237V158.385L156.272 207.636C143.521 214.264 133.771 215.792 117.646 216.533Z" fill="#4B98E1"/>
<path d="M250.989 154.348L234.596 162.756L233.075 165.718L157.26 205.07C157.26 205.07 152.275 204.521 152.165 204.571C139.677 210.222 124.236 212.336 107.617 211.267L107.616 211.262C105.868 202.877 110.845 194.549 121.243 188.208C121.305 188.17 126.538 188.365 126.538 188.365L202.246 149.008L203.53 146.169L219.502 137.981L250.989 154.348Z" fill="white"/>
<path d="M202.246 149.008L203.53 146.169L234.597 162.756L233.074 165.719L202.246 149.008Z" fill="#B0E7FD"/>
<path d="M152.165 204.571C139.677 210.222 124.236 212.336 107.617 211.267L107.616 211.262C105.868 202.877 110.845 194.549 121.243 188.208L152.165 204.571Z" fill="#D9DFE6"/>
<path d="M121.65 186.764C110.618 193.491 105.338 202.327 107.192 211.223L107.193 211.229C107.325 211.237 107.456 211.24 107.588 211.248C106.658 202.909 111.945 194.732 122.304 188.414L121.65 186.764Z" fill="#4B98E1"/>
<path d="M230.57 125.255V142.368L224.847 139.342V122.197L230.57 125.255Z" fill="#D9DFE6"/>
<path d="M230.57 125.255V142.368L224.847 139.342V122.197L230.57 125.255Z" stroke="#D9DFE6" stroke-linecap="round" stroke-linejoin="round"/>
<path d="M230.568 125.255V142.368L238.422 138.308L236.018 122.395L230.568 125.255Z" fill="#BDC4CB"/>
<path d="M230.568 125.255V142.368L238.422 138.308L236.018 122.395L230.568 125.255Z" stroke="#BDC4CB" stroke-linecap="round" stroke-linejoin="round"/>
<path d="M230.57 125.255V127.896L224.847 124.87V122.197L230.57 125.255Z" fill="#B0E7FD"/>
<path d="M230.57 125.255V127.896L224.847 124.87V122.197L230.57 125.255Z" stroke="#B0E7FD" stroke-linecap="round" stroke-linejoin="round"/>
<path d="M236.018 122.395L230.568 125.255V127.896L236.395 124.885L236.018 122.395Z" fill="#B0E7FD"/>
<path d="M236.018 122.395L230.568 125.255V127.896L236.395 124.885L236.018 122.395Z" stroke="#B0E7FD" stroke-linecap="round" stroke-linejoin="round"/>
<path d="M236.018 122.395L230.568 125.255L224.847 122.197L230.302 119.343L236.018 122.395Z" fill="#4B98E1"/>
<path d="M236.018 122.395L230.568 125.255L224.847 122.197L230.302 119.343L236.018 122.395Z" stroke="#4B98E1" stroke-linecap="round" stroke-linejoin="round"/>
<path d="M227.247 122.207L230.296 120.612L233.619 122.387L230.573 123.985L227.247 122.207Z" fill="#D9DFE6"/>
<path d="M227.247 122.207L230.296 120.612L233.619 122.387L230.573 123.985L227.247 122.207Z" stroke="#D9DFE6" stroke-width="0.25" stroke-miterlimit="10"/>
<path d="M230.296 120.612V123.775L227.247 122.207L230.296 120.612Z" fill="#BDC4CB"/>
<path d="M230.296 120.612V123.775L227.247 122.207L230.296 120.612Z" stroke="#BDC4CB" stroke-width="0.25" stroke-miterlimit="10"/>
<path d="M234.298 150.163V161.182L205.845 146.368V135.272L234.298 150.163Z" fill="#B0E7FD"/>
<path d="M234.292 150.163V161.181L243.584 156.293V145.234L234.292 150.163Z" fill="#1E7DD6"/>
<path d="M243.585 145.234L234.292 150.163L205.845 135.272L215.149 130.357L243.585 145.234Z" fill="#0857A0"/>
<path d="M232.194 142.427V149.07L209.647 137.284V130.594L232.194 142.427Z" fill="#B0E7FD"/>
<path d="M232.19 142.427V149.07L240.291 144.843V138.176L232.19 142.427Z" fill="#1E7DD6"/>
<path d="M228.961 141.944V148.587L210.348 138.823V132.133L228.961 141.944Z" fill="#B0E7FD"/>
<path d="M226.052 141.257V143.098L224.191 142.126V140.278L226.052 141.257Z" fill="#D9DFE6"/>
<path d="M222.573 139.47V141.312L220.713 140.339V138.491L222.573 139.47Z" fill="#D9DFE6"/>
<path d="M219.12 137.64V139.481L217.259 138.509V136.661L219.12 137.64Z" fill="#D9DFE6"/>
<path d="M215.642 135.854V137.695L213.781 136.722V134.875L215.642 135.854Z" fill="#D9DFE6"/>
<path d="M226.052 144.112V145.953L224.191 144.981V143.133L226.052 144.112Z" fill="#D9DFE6"/>
<path d="M222.573 142.326V144.167L220.713 143.195V141.347L222.573 142.326Z" fill="#D9DFE6"/>
<path d="M219.12 140.495V142.337L217.259 141.364V139.516L219.12 140.495Z" fill="#D9DFE6"/>
<path d="M215.642 138.709V140.55L213.781 139.578V137.73L215.642 138.709Z" fill="#D9DFE6"/>
<path d="M228.957 141.944V148.587L229.98 147.994V141.326L228.957 141.944Z" fill="#0857A0"/>
<path d="M229.98 141.326L228.957 141.944L210.348 132.132L211.378 131.523L229.98 141.326Z" fill="#0857A0"/>
<path d="M233.608 143.467V144.575L234.728 143.989V142.877L233.608 143.467Z" fill="#D9DFE6"/>
<path d="M235.702 142.391V143.5L236.822 142.914V141.802L235.702 142.391Z" fill="#D9DFE6"/>
<path d="M237.781 141.289V142.397L238.901 141.812V140.699L237.781 141.289Z" fill="#D9DFE6"/>
<path d="M233.608 145.186V146.294L234.728 145.709V144.597L233.608 145.186Z" fill="#D9DFE6"/>
<path d="M235.702 144.11V145.219L236.822 144.633V143.521L235.702 144.11Z" fill="#D9DFE6"/>
<path d="M237.781 143.008V144.116L238.901 143.531V142.419L237.781 143.008Z" fill="#D9DFE6"/>
<path d="M237.345 141.38V142.333L232.194 142.379L209.647 130.592L204.562 125.373V124.331L237.345 141.38Z" fill="#B0E7FD"/>
<path d="M237.342 141.381V142.333L242.385 139.706V138.68L237.342 141.381Z" fill="#1E7DD6"/>
<path d="M242.385 138.68L237.342 141.38L204.562 124.331L209.612 121.639L242.385 138.68Z" fill="#0857A0"/>
<path d="M230.421 136.78V138.777L210.988 128.612V126.577L230.421 136.78Z" fill="#B0E7FD"/>
<path d="M230.417 136.78V138.776L237.056 135.313V133.296L230.417 136.78Z" fill="#1E7DD6"/>
<path d="M237.057 133.296L230.417 136.78L210.988 126.577L217.633 123.1L237.057 133.296Z" fill="#4B98E1"/>
<path d="M217.692 124.997V123.961L235.34 133.206L234.317 133.722L217.692 124.997Z" fill="#B0E7FD"/>
<path d="M217.695 124.997V123.962L212.679 126.615L213.622 127.145L217.695 124.997Z" fill="#1E7DD6"/>
<path d="M222.114 145.209V149.328L220.472 148.47V144.346L222.114 145.209Z" fill="#D9DFE6"/>
<path d="M219.046 143.634V147.752L217.404 146.894V142.77L219.046 143.634Z" fill="#D9DFE6"/>
<path d="M214.316 141.148V142.772L212.675 141.915V140.285L214.316 141.148Z" fill="#D9DFE6"/>
<path d="M222.114 150.223V154.018L220.472 153.16V149.359L222.114 150.223Z" fill="#D9DFE6"/>
<path d="M219.046 148.647V152.442L217.404 151.584V147.783L219.046 148.647Z" fill="#D9DFE6"/>
<path d="M229.714 149.266V150.89L228.072 150.032V148.403L229.714 149.266Z" fill="#D9DFE6"/>
<path d="M226.667 147.652V149.276L225.025 148.418V146.788L226.667 147.652Z" fill="#D9DFE6"/>
<path d="M229.714 151.785V153.409L228.072 152.552V150.922L229.714 151.785Z" fill="#D9DFE6"/>
<path d="M226.667 150.171V151.795L225.025 150.937V149.307L226.667 150.171Z" fill="#D9DFE6"/>
<path d="M214.316 143.667V145.291L212.675 144.434V142.804L214.316 143.667Z" fill="#D9DFE6"/>
<path d="M211.229 139.583V141.207L209.588 140.35V138.719L211.229 139.583Z" fill="#D9DFE6"/>
<path d="M211.229 142.102V143.726L209.588 142.868V141.238L211.229 142.102Z" fill="#D9DFE6"/>
<path d="M229.714 154.336V155.96L228.072 155.102V153.472L229.714 154.336Z" fill="#D9DFE6"/>
<path d="M211.229 144.652V146.276L209.588 145.419V143.789L211.229 144.652Z" fill="#D9DFE6"/>
<path d="M240.998 147.929V150.74L242.119 150.155V147.34L240.998 147.929Z" fill="#D9DFE6"/>
<path d="M240.998 151.351V153.941L242.119 153.355V150.761L240.998 151.351Z" fill="#D9DFE6"/>
<path d="M235.811 150.698V151.807L236.932 151.221V150.109L235.811 150.698Z" fill="#D9DFE6"/>
<path d="M237.891 149.596V150.704L239.011 150.119V149.006L237.891 149.596Z" fill="#D9DFE6"/>
<path d="M235.811 152.417V153.526L236.932 152.94V151.828L235.811 152.417Z" fill="#D9DFE6"/>
<path d="M237.891 151.315V152.424L239.011 151.838V150.726L237.891 151.315Z" fill="#D9DFE6"/>
<path d="M235.811 154.158V155.266L236.932 154.681V153.569L235.811 154.158Z" fill="#D9DFE6"/>
<path d="M196.407 153.887L208.841 160.351V153.887L196.407 147.424V153.887Z" fill="#5F6871"/>
<path d="M215.058 150.655V157.12L208.841 160.351V153.887L215.058 150.655Z" fill="#4C535B"/>
<path d="M208.842 153.887L215.058 150.655L202.625 144.192L196.408 147.424L208.842 153.887Z" fill="#788795"/>
<path d="M196.407 147.424V148.033L208.841 154.465V153.887L196.407 147.424Z" fill="#788795"/>
<path d="M196.407 153.31V153.919L208.841 160.351V159.774L196.407 153.31Z" fill="#788795"/>
<path d="M196.408 147.424V153.919L197.016 154.234V147.74L196.408 147.424Z" fill="#788795"/>
<path d="M208.231 153.887V159.942L208.84 160.236V154.183L208.231 153.887Z" fill="#788795"/>
<path d="M208.841 153.887V154.465L215.058 151.233V150.655L208.841 153.887Z" fill="#646D76"/>
<path d="M208.841 159.773V160.351L215.058 157.119V156.542L208.841 159.773Z" fill="#656D75"/>
<path d="M208.841 154.465L209.453 154.147V160.033L208.841 160.351V154.465Z" fill="#646D76"/>
<path d="M214.446 151.45L215.058 151.132V157.018L214.446 157.336V151.45Z" fill="#646D76"/>
<path d="M197.82 147.525L202.847 144.929L202.629 144.816L197.635 147.424L197.82 147.525Z" fill="#5F6871"/>
<path d="M213.677 150.77L213.879 150.664L202.629 144.817L202.404 144.934L213.677 150.77Z" fill="#5F6871"/>
<path d="M197.016 148.792L208.225 154.601L208.231 154.149L197.016 148.348V148.648V153.626L197.147 153.694V148.7L197.016 148.792Z" fill="#4B5157"/>
<path d="M209.453 154.602L214.446 152.008V151.551L209.453 154.147V154.602Z" fill="#20262B"/>
<path d="M214.2 151.733V156.988L214.446 156.86V151.551L214.2 151.733Z" fill="#17263A"/>
<path d="M197.263 148.869V153.754L197.016 153.626V148.792L197.263 148.869Z" fill="#494E54"/>
<path d="M197.014 147.108L196.408 147.424L208.842 153.887L209.453 153.569L197.014 147.108Z" fill="#93A1AD"/>
<path d="M202.619 144.18L202.013 144.496L214.447 150.96L215.058 150.655L202.619 144.18Z" fill="#93A1AD"/>
<path d="M208.225 153.579L208.841 153.887L215.058 150.656L214.447 150.338L208.225 153.579Z" fill="#93A1AD"/>
<path d="M196.407 147.434L197.024 147.743L203.241 144.497L202.631 144.18L196.407 147.434Z" fill="#93A1AD"/>
<path d="M209.503 161.002L221.937 167.466V161.002L209.503 154.538V161.002Z" fill="#5F6871"/>
<path d="M228.155 157.771V164.235L221.937 167.466V161.003L228.155 157.771Z" fill="#4C535B"/>
<path d="M221.937 161.002L228.154 157.771L215.72 151.307L209.503 154.539L221.937 161.002Z" fill="#788795"/>
<path d="M209.503 154.539V155.148L221.937 161.58V161.003L209.503 154.539Z" fill="#788795"/>
<path d="M209.503 160.425V161.034L221.937 167.466V166.889L209.503 160.425Z" fill="#788795"/>
<path d="M209.503 154.539V161.034L210.112 161.349V154.855L209.503 154.539Z" fill="#788795"/>
<path d="M221.327 161.002V167.057L221.935 167.351V161.297L221.327 161.002Z" fill="#788795"/>
<path d="M221.938 161.002V161.58L228.154 158.348V157.771L221.938 161.002Z" fill="#646D76"/>
<path d="M221.938 166.888V167.466L228.154 164.234V163.657L221.938 166.888Z" fill="#656D75"/>
<path d="M221.937 161.58L222.549 161.262V167.148L221.937 167.466V161.58Z" fill="#646D76"/>
<path d="M227.543 158.565L228.154 158.247V164.133L227.543 164.451V158.565Z" fill="#646D76"/>
<path d="M210.916 154.64L215.942 152.044L215.725 151.932L210.731 154.539L210.916 154.64Z" fill="#5F6871"/>
<path d="M226.772 157.885L226.974 157.779L215.725 151.932L215.5 152.049L226.772 157.885Z" fill="#5F6871"/>
<path d="M210.112 155.907L221.321 161.717L221.327 161.265L210.112 155.463V155.763V160.741L210.242 160.809V155.815L210.112 155.907Z" fill="#4B5157"/>
<path d="M222.549 161.717L227.542 159.123V158.666L222.549 161.262V161.717Z" fill="#20262B"/>
<path d="M227.297 158.848V164.103L227.543 163.975V158.666L227.297 158.848Z" fill="#17263A"/>
<path d="M210.358 155.984V160.869L210.112 160.741V155.907L210.358 155.984Z" fill="#494E54"/>
<path d="M210.11 154.223L209.503 154.539L221.937 161.002L222.549 160.684L210.11 154.223Z" fill="#93A1AD"/>
<path d="M215.715 151.295L215.109 151.611L227.543 158.075L228.154 157.771L215.715 151.295Z" fill="#93A1AD"/>
<path d="M221.321 160.694L221.937 161.002L228.154 157.77L227.543 157.453L221.321 160.694Z" fill="#93A1AD"/>
<path d="M209.503 154.549L210.12 154.858L216.337 151.612L215.727 151.295L209.503 154.549Z" fill="#93A1AD"/>
<path d="M189.182 157.541L201.616 164.006V157.541L189.182 151.077V157.541Z" fill="#5F6871"/>
<path d="M207.833 154.31V160.774L201.616 164.006V157.542L207.833 154.31Z" fill="#4C535B"/>
<path d="M201.616 157.541L207.833 154.309L195.399 147.846L189.182 151.077L201.616 157.541Z" fill="#788795"/>
<path d="M189.182 151.078V151.687L201.616 158.119V157.542L189.182 151.078Z" fill="#788795"/>
<path d="M189.182 156.964V157.573L201.616 164.006V163.428L189.182 156.964Z" fill="#788795"/>
<path d="M189.182 151.078V157.573L189.791 157.888V151.394L189.182 151.078Z" fill="#788795"/>
<path d="M201.006 157.541V163.596L201.615 163.89V157.836L201.006 157.541Z" fill="#788795"/>
<path d="M201.616 157.542V158.119L207.833 154.887V154.31L201.616 157.542Z" fill="#646D76"/>
<path d="M201.616 163.428V164.005L207.833 160.773V160.196L201.616 163.428Z" fill="#656D75"/>
<path d="M201.616 158.119L202.228 157.801V163.687L201.616 164.005V158.119Z" fill="#646D76"/>
<path d="M207.221 155.104L207.833 154.786V160.672L207.221 160.99V155.104Z" fill="#646D76"/>
<path d="M190.595 151.178L195.621 148.583L195.404 148.47L190.41 151.077L190.595 151.178Z" fill="#5F6871"/>
<path d="M206.452 154.424L206.653 154.319L195.404 148.471L195.178 148.588L206.452 154.424Z" fill="#5F6871"/>
<path d="M189.791 152.446L200.999 158.256L201.006 157.803L189.791 152.002V152.302V157.28L189.921 157.348V152.354L189.791 152.446Z" fill="#4B5157"/>
<path d="M202.228 158.256L207.221 155.663V155.205L202.228 157.802V158.256Z" fill="#20262B"/>
<path d="M206.975 155.387V160.642L207.221 160.514V155.205L206.975 155.387Z" fill="#17263A"/>
<path d="M190.037 152.524V157.409L189.791 157.281V152.446L190.037 152.524Z" fill="#494E54"/>
<path d="M189.789 150.762L189.182 151.078L201.616 157.542L202.228 157.224L189.789 150.762Z" fill="#93A1AD"/>
<path d="M195.394 147.835L194.788 148.15L207.221 154.614L207.833 154.31L195.394 147.835Z" fill="#93A1AD"/>
<path d="M201 157.233L201.616 157.542L207.833 154.31L207.222 153.992L201 157.233Z" fill="#93A1AD"/>
<path d="M189.182 151.089L189.798 151.397L196.015 148.151L195.406 147.835L189.182 151.089Z" fill="#93A1AD"/>
<path d="M202.504 164.657L214.938 171.121V164.657L202.504 158.192V164.657Z" fill="#5F6871"/>
<path d="M221.155 161.424V167.889L214.938 171.121V164.657L221.155 161.424Z" fill="#4C535B"/>
<path d="M214.938 164.657L221.155 161.425L208.721 154.961L202.504 158.192L214.938 164.657Z" fill="#788795"/>
<path d="M202.504 158.192V158.802L214.938 165.234V164.657L202.504 158.192Z" fill="#788795"/>
<path d="M202.504 164.079V164.688L214.938 171.12V170.543L202.504 164.079Z" fill="#788795"/>
<path d="M202.504 158.193V164.688L203.112 165.003V158.509L202.504 158.193Z" fill="#788795"/>
<path d="M214.327 164.657V170.711L214.936 171.005V164.952L214.327 164.657Z" fill="#788795"/>
<path d="M214.938 164.657V165.235L221.154 162.003V161.425L214.938 164.657Z" fill="#646D76"/>
<path d="M214.938 170.543V171.121L221.154 167.889V167.311L214.938 170.543Z" fill="#656D75"/>
<path d="M214.938 165.234L215.549 164.916V170.803L214.938 171.12V165.234Z" fill="#646D76"/>
<path d="M220.543 162.219L221.155 161.901V167.787L220.543 168.105V162.219Z" fill="#646D76"/>
<path d="M203.917 158.294L208.943 155.699L208.726 155.586L203.732 158.193L203.917 158.294Z" fill="#5F6871"/>
<path d="M219.773 161.539L219.975 161.434L208.726 155.586L208.501 155.703L219.773 161.539Z" fill="#5F6871"/>
<path d="M203.112 159.561L214.321 165.371L214.327 164.919L203.112 159.117V159.417V164.395L203.243 164.463V159.47L203.112 159.561Z" fill="#4B5157"/>
<path d="M215.55 165.371L220.543 162.777V162.321L215.55 164.916V165.371Z" fill="#20262B"/>
<path d="M220.297 162.502V167.757L220.543 167.629V162.321L220.297 162.502Z" fill="#17263A"/>
<path d="M203.358 159.639V164.524L203.112 164.396V159.562L203.358 159.639Z" fill="#494E54"/>
<path d="M203.11 157.877L202.504 158.193L214.938 164.657L215.549 164.339L203.11 157.877Z" fill="#93A1AD"/>
<path d="M208.716 154.95L208.109 155.265L220.543 161.729L221.155 161.425L208.716 154.95Z" fill="#93A1AD"/>
<path d="M214.322 164.348L214.938 164.657L221.155 161.425L220.543 161.107L214.322 164.348Z" fill="#93A1AD"/>
<path d="M202.504 158.203L203.12 158.512L209.337 155.266L208.728 154.95L202.504 158.203Z" fill="#93A1AD"/>
<path d="M181.962 161.201L194.396 167.665V161.201L181.962 154.737V161.201Z" fill="#5F6871"/>
<path d="M200.613 157.969V164.433L194.396 167.665V161.201L200.613 157.969Z" fill="#4C535B"/>
<path d="M194.396 161.2L200.613 157.969L188.179 151.505L181.962 154.737L194.396 161.2Z" fill="#788795"/>
<path d="M181.962 154.737V155.346L194.396 161.778V161.201L181.962 154.737Z" fill="#788795"/>
<path d="M181.962 160.623V161.232L194.396 167.664V167.087L181.962 160.623Z" fill="#788795"/>
<path d="M181.963 154.737V161.232L182.571 161.547V155.054L181.963 154.737Z" fill="#788795"/>
<path d="M193.786 161.201V167.255L194.395 167.549V161.496L193.786 161.201Z" fill="#788795"/>
<path d="M194.396 161.201V161.779L200.613 158.547V157.969L194.396 161.201Z" fill="#646D76"/>
<path d="M194.396 167.087V167.665L200.613 164.433V163.855L194.396 167.087Z" fill="#656D75"/>
<path d="M194.397 161.778L195.008 161.46V167.347L194.397 167.664V161.778Z" fill="#646D76"/>
<path d="M200.002 158.763L200.613 158.445V164.331L200.002 164.649V158.763Z" fill="#646D76"/>
<path d="M183.375 154.838L188.402 152.243L188.184 152.13L183.19 154.737L183.375 154.838Z" fill="#5F6871"/>
<path d="M199.232 158.083L199.434 157.978L188.185 152.13L187.959 152.247L199.232 158.083Z" fill="#5F6871"/>
<path d="M182.571 156.105L193.779 161.915L193.786 161.463L182.571 155.661V155.961V160.94L182.701 161.007V156.013L182.571 156.105Z" fill="#4B5157"/>
<path d="M195.008 161.915L200.002 159.321V158.865L195.008 161.461V161.915Z" fill="#20262B"/>
<path d="M199.756 159.046V164.301L200.001 164.173V158.865L199.756 159.046Z" fill="#17263A"/>
<path d="M182.817 156.183V161.068L182.571 160.94V156.105L182.817 156.183Z" fill="#494E54"/>
<path d="M182.569 154.421L181.963 154.737L194.397 161.201L195.008 160.883L182.569 154.421Z" fill="#93A1AD"/>
<path d="M188.174 151.494L187.568 151.81L200.002 158.273L200.613 157.969L188.174 151.494Z" fill="#93A1AD"/>
<path d="M193.78 160.892L194.397 161.201L200.613 157.969L200.002 157.651L193.78 160.892Z" fill="#93A1AD"/>
<path d="M181.962 154.747L182.579 155.056L188.796 151.81L188.186 151.494L181.962 154.747Z" fill="#93A1AD"/>
<path d="M195.284 168.316L207.718 174.78V168.316L195.284 161.852V168.316Z" fill="#5F6871"/>
<path d="M213.935 165.084V171.548L207.718 174.78V168.316L213.935 165.084Z" fill="#4C535B"/>
<path d="M207.718 168.316L213.935 165.084L201.501 158.62L195.284 161.852L207.718 168.316Z" fill="#788795"/>
<path d="M195.284 161.852V162.461L207.718 168.893V168.316L195.284 161.852Z" fill="#788795"/>
<path d="M195.284 167.738V168.347L207.718 174.78V174.202L195.284 167.738Z" fill="#788795"/>
<path d="M195.284 161.852V168.347L195.893 168.662V162.169L195.284 161.852Z" fill="#788795"/>
<path d="M207.108 168.316V174.37L207.716 174.664V168.611L207.108 168.316Z" fill="#788795"/>
<path d="M207.718 168.316V168.894L213.935 165.662V165.084L207.718 168.316Z" fill="#646D76"/>
<path d="M207.718 174.202V174.78L213.935 171.548V170.97L207.718 174.202Z" fill="#656D75"/>
<path d="M207.718 168.894L208.33 168.576V174.462L207.718 174.78V168.894Z" fill="#646D76"/>
<path d="M213.323 165.878L213.935 165.56V171.446L213.323 171.764V165.878Z" fill="#646D76"/>
<path d="M196.696 161.953L201.723 159.358L201.506 159.245L196.512 161.852L196.696 161.953Z" fill="#5F6871"/>
<path d="M212.553 165.198L212.755 165.093L201.506 159.245L201.281 159.362L212.553 165.198Z" fill="#5F6871"/>
<path d="M195.893 163.22L207.102 169.03L207.108 168.578L195.893 162.776V163.076V168.055L196.023 168.122V163.129L195.893 163.22Z" fill="#4B5157"/>
<path d="M208.33 169.03L213.323 166.437V165.98L208.33 168.576V169.03Z" fill="#20262B"/>
<path d="M213.077 166.161V171.416L213.323 171.288V165.98L213.077 166.161Z" fill="#17263A"/>
<path d="M196.139 163.298V168.183L195.893 168.055V163.22L196.139 163.298Z" fill="#494E54"/>
<path d="M195.891 161.537L195.284 161.852L207.718 168.316L208.33 167.998L195.891 161.537Z" fill="#93A1AD"/>
<path d="M201.496 158.609L200.89 158.925L213.323 165.388L213.935 165.084L201.496 158.609Z" fill="#93A1AD"/>
<path d="M207.102 168.007L207.718 168.316L213.935 165.084L213.323 164.766L207.102 168.007Z" fill="#93A1AD"/>
<path d="M195.284 161.863L195.901 162.171L202.117 158.926L201.508 158.609L195.284 161.863Z" fill="#93A1AD"/>
<path d="M175.049 164.989L187.483 171.453V164.989L175.049 158.526V164.989Z" fill="#5F6871"/>
<path d="M193.7 161.757V168.222L187.482 171.453V164.99L193.7 161.757Z" fill="#4C535B"/>
<path d="M187.483 164.989L193.699 161.757L181.266 155.294L175.049 158.526L187.483 164.989Z" fill="#788795"/>
<path d="M175.049 158.526V159.135L187.483 165.567V164.989L175.049 158.526Z" fill="#788795"/>
<path d="M175.049 164.412V165.021L187.483 171.453V170.876L175.049 164.412Z" fill="#788795"/>
<path d="M175.049 158.526V165.021L175.657 165.336V158.842L175.049 158.526Z" fill="#788795"/>
<path d="M186.872 164.989V171.044L187.481 171.338V165.284L186.872 164.989Z" fill="#788795"/>
<path d="M187.483 164.989V165.567L193.699 162.335V161.757L187.483 164.989Z" fill="#646D76"/>
<path d="M187.483 170.875V171.453L193.699 168.221V167.644L187.483 170.875Z" fill="#656D75"/>
<path d="M187.483 165.567L188.094 165.249V171.135L187.483 171.453V165.567Z" fill="#646D76"/>
<path d="M193.088 162.552L193.7 162.234V168.12L193.088 168.438V162.552Z" fill="#646D76"/>
<path d="M176.461 158.626L181.488 156.031L181.27 155.918L176.277 158.525L176.461 158.626Z" fill="#5F6871"/>
<path d="M192.318 161.872L192.52 161.766L181.271 155.918L181.045 156.036L192.318 161.872Z" fill="#5F6871"/>
<path d="M175.657 159.894L186.866 165.704L186.872 165.251L175.657 159.45V159.75V164.728L175.788 164.796V159.802L175.657 159.894Z" fill="#4B5157"/>
<path d="M188.094 165.704L193.088 163.11V162.653L188.094 165.249V165.704Z" fill="#20262B"/>
<path d="M192.842 162.835V168.089L193.088 167.962V162.653L192.842 162.835Z" fill="#17263A"/>
<path d="M175.903 159.971V164.856L175.657 164.728V159.894L175.903 159.971Z" fill="#494E54"/>
<path d="M175.655 158.21L175.049 158.526L187.483 164.99L188.094 164.672L175.655 158.21Z" fill="#93A1AD"/>
<path d="M181.261 155.282L180.654 155.598L193.088 162.062L193.7 161.757L181.261 155.282Z" fill="#93A1AD"/>
<path d="M186.866 164.681L187.482 164.989L193.699 161.758L193.088 161.44L186.866 164.681Z" fill="#93A1AD"/>
<path d="M175.049 158.536L175.665 158.845L181.882 155.599L181.272 155.282L175.049 158.536Z" fill="#93A1AD"/>
<path d="M188.144 172.104L200.578 178.568V172.104L188.144 165.641V172.104Z" fill="#5F6871"/>
<path d="M206.796 168.872V175.336L200.578 178.568V172.104L206.796 168.872Z" fill="#4C535B"/>
<path d="M200.578 172.104L206.795 168.872L194.362 162.409L188.145 165.641L200.578 172.104Z" fill="#788795"/>
<path d="M188.144 165.641V166.25L200.578 172.682V172.104L188.144 165.641Z" fill="#788795"/>
<path d="M188.144 171.527V172.136L200.578 178.568V177.991L188.144 171.527Z" fill="#788795"/>
<path d="M188.144 165.641V172.136L188.753 172.451V165.957L188.144 165.641Z" fill="#788795"/>
<path d="M199.969 172.104V178.159L200.577 178.453V172.4L199.969 172.104Z" fill="#788795"/>
<path d="M200.579 172.104V172.682L206.795 169.451V168.872L200.579 172.104Z" fill="#646D76"/>
<path d="M200.579 177.991V178.569L206.795 175.337V174.759L200.579 177.991Z" fill="#656D75"/>
<path d="M200.578 172.682L201.19 172.364V178.25L200.578 178.568V172.682Z" fill="#646D76"/>
<path d="M206.183 169.667L206.795 169.349V175.235L206.183 175.553V169.667Z" fill="#646D76"/>
<path d="M189.557 165.742L194.584 163.146L194.366 163.033L189.372 165.641L189.557 165.742Z" fill="#5F6871"/>
<path d="M205.414 168.987L205.616 168.882L194.366 163.034L194.141 163.151L205.414 168.987Z" fill="#5F6871"/>
<path d="M188.753 167.009L199.962 172.819L199.968 172.367L188.753 166.565V166.865V171.844L188.884 171.911V166.917L188.753 167.009Z" fill="#4B5157"/>
<path d="M201.19 172.819L206.183 170.225V169.768L201.19 172.364V172.819Z" fill="#20262B"/>
<path d="M205.938 169.95V175.205L206.184 175.077V169.768L205.938 169.95Z" fill="#17263A"/>
<path d="M188.999 167.087V171.972L188.753 171.844V167.009L188.999 167.087Z" fill="#494E54"/>
<path d="M188.751 165.325L188.144 165.641L200.578 172.105L201.19 171.787L188.751 165.325Z" fill="#93A1AD"/>
<path d="M194.356 162.398L193.75 162.713L206.183 169.177L206.795 168.872L194.356 162.398Z" fill="#93A1AD"/>
<path d="M199.962 171.796L200.578 172.105L206.795 168.873L206.183 168.555L199.962 171.796Z" fill="#93A1AD"/>
<path d="M188.145 165.651L188.761 165.96L194.978 162.714L194.368 162.398L188.145 165.651Z" fill="#93A1AD"/>
<path d="M167.823 168.643L180.257 175.108V168.643L167.823 162.179V168.643Z" fill="#5F6871"/>
<path d="M186.474 165.412V171.876L180.257 175.108V168.644L186.474 165.412Z" fill="#4C535B"/>
<path d="M180.257 168.643L186.474 165.411L174.04 158.948L167.823 162.179L180.257 168.643Z" fill="#788795"/>
<path d="M167.823 162.179V162.789L180.257 169.221V168.644L167.823 162.179Z" fill="#788795"/>
<path d="M167.823 168.066V168.675L180.257 175.107V174.53L167.823 168.066Z" fill="#788795"/>
<path d="M167.823 162.18V168.675L168.432 168.99V162.496L167.823 162.18Z" fill="#788795"/>
<path d="M179.647 168.643V174.698L180.256 174.992V168.938L179.647 168.643Z" fill="#788795"/>
<path d="M180.257 168.643V169.221L186.474 165.989V165.412L180.257 168.643Z" fill="#646D76"/>
<path d="M180.257 174.53V175.108L186.474 171.876V171.298L180.257 174.53Z" fill="#656D75"/>
<path d="M180.257 169.221L180.869 168.903V174.789L180.257 175.107V169.221Z" fill="#646D76"/>
<path d="M185.862 166.206L186.474 165.888V171.774L185.862 172.092V166.206Z" fill="#646D76"/>
<path d="M169.236 162.281L174.263 159.686L174.045 159.573L169.051 162.18L169.236 162.281Z" fill="#5F6871"/>
<path d="M185.093 165.526L185.295 165.421L174.046 159.573L173.82 159.69L185.093 165.526Z" fill="#5F6871"/>
<path d="M168.432 163.548L179.641 169.358L179.647 168.906L168.432 163.104V163.404V168.382L168.563 168.45V163.457L168.432 163.548Z" fill="#4B5157"/>
<path d="M180.869 169.358L185.862 166.765V166.307L180.869 168.903V169.358Z" fill="#20262B"/>
<path d="M185.616 166.489V171.744L185.862 171.616V166.307L185.616 166.489Z" fill="#17263A"/>
<path d="M168.678 163.626V168.511L168.432 168.383V163.548L168.678 163.626Z" fill="#494E54"/>
<path d="M168.43 161.865L167.823 162.18L180.257 168.644L180.869 168.326L168.43 161.865Z" fill="#93A1AD"/>
<path d="M174.035 158.936L173.429 159.252L185.862 165.716L186.474 165.412L174.035 158.936Z" fill="#93A1AD"/>
<path d="M179.641 168.335L180.257 168.643L186.474 165.411L185.862 165.094L179.641 168.335Z" fill="#93A1AD"/>
<path d="M167.823 162.19L168.44 162.499L174.657 159.253L174.047 158.936L167.823 162.19Z" fill="#93A1AD"/>
<path d="M181.145 175.759L193.579 182.223V175.759L181.145 169.295V175.759Z" fill="#5F6871"/>
<path d="M199.796 172.527V178.991L193.579 182.223V175.759L199.796 172.527Z" fill="#4C535B"/>
<path d="M193.579 175.759L199.796 172.527L187.362 166.063L181.145 169.295L193.579 175.759Z" fill="#788795"/>
<path d="M181.145 169.295V169.904L193.579 176.336V175.759L181.145 169.295Z" fill="#788795"/>
<path d="M181.145 175.181V175.79L193.579 182.223V181.645L181.145 175.181Z" fill="#788795"/>
<path d="M181.145 169.295V175.79L181.753 176.105V169.611L181.145 169.295Z" fill="#788795"/>
<path d="M192.969 175.759V181.813L193.577 182.107V176.054L192.969 175.759Z" fill="#788795"/>
<path d="M193.579 175.759V176.336L199.796 173.104V172.527L193.579 175.759Z" fill="#646D76"/>
<path d="M193.579 181.645V182.223L199.796 178.991V178.413L193.579 181.645Z" fill="#656D75"/>
<path d="M193.58 176.336L194.191 176.018V181.904L193.58 182.222V176.336Z" fill="#646D76"/>
<path d="M199.185 173.321L199.796 173.003V178.889L199.185 179.207V173.321Z" fill="#646D76"/>
<path d="M182.558 169.396L187.584 166.801L187.367 166.688L182.373 169.295L182.558 169.396Z" fill="#5F6871"/>
<path d="M198.415 172.641L198.616 172.536L187.367 166.688L187.142 166.805L198.415 172.641Z" fill="#5F6871"/>
<path d="M181.753 170.663L192.962 176.473L192.968 176.02L181.753 170.219V170.519V175.497L181.884 175.565V170.571L181.753 170.663Z" fill="#4B5157"/>
<path d="M194.191 176.473L199.184 173.88V173.422L194.191 176.019V176.473Z" fill="#20262B"/>
<path d="M198.938 173.604V178.859L199.184 178.731V173.422L198.938 173.604Z" fill="#17263A"/>
<path d="M182 170.741V175.626L181.753 175.498V170.664L182 170.741Z" fill="#494E54"/>
<path d="M181.752 168.979L181.146 169.295L193.579 175.759L194.191 175.441L181.752 168.979Z" fill="#93A1AD"/>
<path d="M187.357 166.052L186.75 166.367L199.184 172.831L199.796 172.527L187.357 166.052Z" fill="#93A1AD"/>
<path d="M192.962 175.45L193.579 175.759L199.796 172.527L199.184 172.209L192.962 175.45Z" fill="#93A1AD"/>
<path d="M181.145 169.305L181.761 169.614L187.978 166.368L187.369 166.052L181.145 169.305Z" fill="#93A1AD"/>
<path d="M160.604 172.303L173.037 178.766V172.303L160.604 165.839V172.303Z" fill="#5F6871"/>
<path d="M179.254 169.071V175.535L173.037 178.767V172.303L179.254 169.071Z" fill="#4C535B"/>
<path d="M173.038 172.303L179.255 169.071L166.821 162.607L160.604 165.839L173.038 172.303Z" fill="#788795"/>
<path d="M160.604 165.839V166.448L173.037 172.88V172.303L160.604 165.839Z" fill="#788795"/>
<path d="M160.604 171.725V172.334L173.037 178.766V178.189L160.604 171.725Z" fill="#788795"/>
<path d="M160.604 165.839V172.334L161.212 172.649V166.155L160.604 165.839Z" fill="#788795"/>
<path d="M172.427 172.303V178.357L173.036 178.651V172.598L172.427 172.303Z" fill="#788795"/>
<path d="M173.038 172.303V172.881L179.254 169.649V169.071L173.038 172.303Z" fill="#646D76"/>
<path d="M173.038 178.189V178.767L179.254 175.535V174.957L173.038 178.189Z" fill="#656D75"/>
<path d="M173.037 172.88L173.649 172.562V178.449L173.037 178.767V172.88Z" fill="#646D76"/>
<path d="M178.643 169.865L179.254 169.547V175.433L178.643 175.751V169.865Z" fill="#646D76"/>
<path d="M162.016 165.94L167.043 163.345L166.825 163.232L161.832 165.839L162.016 165.94Z" fill="#5F6871"/>
<path d="M177.873 169.185L178.075 169.08L166.826 163.232L166.6 163.349L177.873 169.185Z" fill="#5F6871"/>
<path d="M161.212 167.207L172.421 173.017L172.427 172.565L161.212 166.763V167.063V172.042L161.343 172.109V167.116L161.212 167.207Z" fill="#4B5157"/>
<path d="M173.649 173.017L178.643 170.424V169.967L173.649 172.563V173.017Z" fill="#20262B"/>
<path d="M178.397 170.148V175.403L178.643 175.275V169.966L178.397 170.148Z" fill="#17263A"/>
<path d="M161.458 167.285V172.17L161.212 172.042V167.207L161.458 167.285Z" fill="#494E54"/>
<path d="M161.211 165.523L160.604 165.839L173.038 172.303L173.649 171.985L161.211 165.523Z" fill="#93A1AD"/>
<path d="M166.816 162.596L166.209 162.912L178.643 169.376L179.254 169.071L166.816 162.596Z" fill="#93A1AD"/>
<path d="M172.421 171.994L173.038 172.303L179.255 169.071L178.643 168.753L172.421 171.994Z" fill="#93A1AD"/>
<path d="M160.604 165.85L161.22 166.159L167.437 162.912L166.828 162.596L160.604 165.85Z" fill="#93A1AD"/>
<path d="M173.925 179.418L186.359 185.882V179.418L173.925 172.954V179.418Z" fill="#5F6871"/>
<path d="M192.576 176.186V182.65L186.359 185.882V179.418L192.576 176.186Z" fill="#4C535B"/>
<path d="M186.359 179.418L192.576 176.186L180.142 169.722L173.925 172.954L186.359 179.418Z" fill="#788795"/>
<path d="M173.925 172.954V173.563L186.359 179.995V179.418L173.925 172.954Z" fill="#788795"/>
<path d="M173.925 178.84V179.449L186.359 185.881V185.304L173.925 178.84Z" fill="#788795"/>
<path d="M173.925 172.954V179.449L174.534 179.764V173.271L173.925 172.954Z" fill="#788795"/>
<path d="M185.749 179.418V185.472L186.358 185.766V179.713L185.749 179.418Z" fill="#788795"/>
<path d="M186.359 179.418V179.996L192.576 176.764V176.186L186.359 179.418Z" fill="#646D76"/>
<path d="M186.359 185.304V185.882L192.576 182.65V182.072L186.359 185.304Z" fill="#656D75"/>
<path d="M186.359 179.995L186.971 179.677V185.564L186.359 185.881V179.995Z" fill="#646D76"/>
<path d="M191.965 176.98L192.576 176.662V182.548L191.965 182.866V176.98Z" fill="#646D76"/>
<path d="M175.338 173.055L180.364 170.46L180.147 170.347L175.153 172.954L175.338 173.055Z" fill="#5F6871"/>
<path d="M191.195 176.3L191.397 176.195L180.147 170.347L179.922 170.465L191.195 176.3Z" fill="#5F6871"/>
<path d="M174.534 174.322L185.742 180.132L185.749 179.68L174.534 173.879V174.178V179.157L174.664 179.224V174.231L174.534 174.322Z" fill="#4B5157"/>
<path d="M186.971 180.132L191.964 177.539V177.082L186.971 179.678V180.132Z" fill="#20262B"/>
<path d="M191.718 177.263V182.518L191.964 182.39V177.082L191.718 177.263Z" fill="#17263A"/>
<path d="M174.78 174.4V179.285L174.534 179.157V174.323L174.78 174.4Z" fill="#494E54"/>
<path d="M174.532 172.638L173.925 172.954L186.359 179.418L186.971 179.1L174.532 172.638Z" fill="#93A1AD"/>
<path d="M180.137 169.711L179.531 170.027L191.964 176.49L192.576 176.186L180.137 169.711Z" fill="#93A1AD"/>
<path d="M185.743 179.109L186.359 179.418L192.576 176.186L191.964 175.868L185.743 179.109Z" fill="#93A1AD"/>
<path d="M173.925 172.965L174.542 173.274L180.759 170.027L180.149 169.711L173.925 172.965Z" fill="#93A1AD"/>
<path d="M153.69 176.091L166.124 182.555V176.091L153.69 169.627V176.091Z" fill="#5F6871"/>
<path d="M172.34 172.859V179.323L166.124 182.555V176.091L172.34 172.859Z" fill="#4C535B"/>
<path d="M166.124 176.091L172.34 172.859L159.907 166.396L153.69 169.628L166.124 176.091Z" fill="#788795"/>
<path d="M153.69 169.628V170.237L166.124 176.669V176.092L153.69 169.628Z" fill="#788795"/>
<path d="M153.69 175.514V176.123L166.124 182.555V181.978L153.69 175.514Z" fill="#788795"/>
<path d="M153.69 169.628V176.123L154.298 176.438V169.944L153.69 169.628Z" fill="#788795"/>
<path d="M165.513 176.091V182.146L166.122 182.44V176.386L165.513 176.091Z" fill="#788795"/>
<path d="M166.124 176.091V176.669L172.34 173.437V172.859L166.124 176.091Z" fill="#646D76"/>
<path d="M166.124 181.978V182.555L172.34 179.323V178.745L166.124 181.978Z" fill="#656D75"/>
<path d="M166.124 176.669L166.735 176.351V182.237L166.124 182.555V176.669Z" fill="#646D76"/>
<path d="M171.729 173.654L172.341 173.336V179.222L171.729 179.54V173.654Z" fill="#646D76"/>
<path d="M155.103 169.729L160.129 167.133L159.912 167.02L154.918 169.628L155.103 169.729Z" fill="#5F6871"/>
<path d="M170.959 172.974L171.161 172.868L159.912 167.02L159.687 167.138L170.959 172.974Z" fill="#5F6871"/>
<path d="M154.298 170.996L165.507 176.806L165.513 176.353L154.298 170.552V170.852V175.83L154.429 175.898V170.904L154.298 170.996Z" fill="#4B5157"/>
<path d="M166.735 176.806L171.729 174.212V173.755L166.735 176.351V176.806Z" fill="#20262B"/>
<path d="M171.483 173.937V179.192L171.729 179.064V173.755L171.483 173.937Z" fill="#17263A"/>
<path d="M154.545 171.073V175.958L154.298 175.83V170.996L154.545 171.073Z" fill="#494E54"/>
<path d="M154.296 169.312L153.69 169.628L166.124 176.091L166.735 175.773L154.296 169.312Z" fill="#93A1AD"/>
<path d="M159.902 166.384L159.295 166.7L171.729 173.164L172.34 172.859L159.902 166.384Z" fill="#93A1AD"/>
<path d="M165.507 175.783L166.124 176.091L172.341 172.859L171.729 172.542L165.507 175.783Z" fill="#93A1AD"/>
<path d="M153.69 169.638L154.306 169.947L160.523 166.701L159.914 166.384L153.69 169.638Z" fill="#93A1AD"/>
<path d="M166.785 183.206L179.219 189.67V183.206L166.785 176.743V183.206Z" fill="#5F6871"/>
<path d="M185.437 179.974V186.439L179.22 189.671V183.207L185.437 179.974Z" fill="#4C535B"/>
<path d="M179.22 183.207L185.437 179.974L173.003 173.511L166.786 176.743L179.22 183.207Z" fill="#788795"/>
<path d="M166.785 176.743V177.352L179.219 183.784V183.206L166.785 176.743Z" fill="#788795"/>
<path d="M166.785 182.629V183.238L179.219 189.67V189.093L166.785 182.629Z" fill="#788795"/>
<path d="M166.785 176.743V183.238L167.394 183.553V177.059L166.785 176.743Z" fill="#788795"/>
<path d="M178.609 183.206V189.261L179.218 189.555V183.502L178.609 183.206Z" fill="#788795"/>
<path d="M179.22 183.206V183.784L185.437 180.552V179.974L179.22 183.206Z" fill="#646D76"/>
<path d="M179.22 189.092V189.67L185.437 186.438V185.861L179.22 189.092Z" fill="#656D75"/>
<path d="M179.22 183.784L179.832 183.466V189.352L179.22 189.67V183.784Z" fill="#646D76"/>
<path d="M184.825 180.769L185.437 180.451V186.337L184.825 186.655V180.769Z" fill="#646D76"/>
<path d="M168.198 176.844L173.225 174.248L173.008 174.135L168.014 176.743L168.198 176.844Z" fill="#5F6871"/>
<path d="M184.055 180.089L184.257 179.983L173.008 174.135L172.782 174.253L184.055 180.089Z" fill="#5F6871"/>
<path d="M167.395 178.111L178.603 183.921L178.609 183.468L167.395 177.667V177.967V182.945L167.525 183.013V178.019L167.395 178.111Z" fill="#4B5157"/>
<path d="M179.832 183.921L184.824 181.327V180.87L179.832 183.467V183.921Z" fill="#20262B"/>
<path d="M184.579 181.052V186.307L184.825 186.179V180.87L184.579 181.052Z" fill="#17263A"/>
<path d="M167.641 178.188V183.073L167.395 182.946V178.111L167.641 178.188Z" fill="#494E54"/>
<path d="M167.393 176.427L166.786 176.743L179.22 183.207L179.832 182.889L167.393 176.427Z" fill="#93A1AD"/>
<path d="M172.998 173.5L172.391 173.815L184.824 180.279L185.436 179.974L172.998 173.5Z" fill="#93A1AD"/>
<path d="M178.603 182.898L179.219 183.206L185.436 179.975L184.825 179.657L178.603 182.898Z" fill="#93A1AD"/>
<path d="M166.786 176.753L167.402 177.062L173.619 173.816L173.009 173.5L166.786 176.753Z" fill="#93A1AD"/>
<path d="M146.464 179.745L158.898 186.21V179.745L146.464 173.281V179.745Z" fill="#5F6871"/>
<path d="M165.116 176.514V182.978L158.898 186.21V179.746L165.116 176.514Z" fill="#4C535B"/>
<path d="M158.899 179.745L165.115 176.514L152.682 170.05L146.465 173.282L158.899 179.745Z" fill="#788795"/>
<path d="M146.464 173.282V173.891L158.898 180.323V179.745L146.464 173.282Z" fill="#788795"/>
<path d="M146.464 179.168V179.777L158.898 186.21V185.632L146.464 179.168Z" fill="#788795"/>
<path d="M146.464 173.282V179.777L147.073 180.092V173.598L146.464 173.282Z" fill="#788795"/>
<path d="M158.288 179.745V185.8L158.897 186.094V180.041L158.288 179.745Z" fill="#788795"/>
<path d="M158.899 179.745V180.323L165.115 177.091V176.514L158.899 179.745Z" fill="#646D76"/>
<path d="M158.899 185.632V186.21L165.115 182.978V182.4L158.899 185.632Z" fill="#656D75"/>
<path d="M158.899 180.323L159.51 180.005V185.891L158.899 186.209V180.323Z" fill="#646D76"/>
<path d="M164.504 177.308L165.116 176.99V182.876L164.504 183.194V177.308Z" fill="#646D76"/>
<path d="M147.877 173.383L152.903 170.787L152.686 170.675L147.692 173.282L147.877 173.383Z" fill="#5F6871"/>
<path d="M163.734 176.628L163.936 176.523L152.686 170.675L152.461 170.792L163.734 176.628Z" fill="#5F6871"/>
<path d="M147.073 174.65L158.282 180.46L158.288 180.008L147.073 174.206V174.506V179.484L147.204 179.552V174.558L147.073 174.65Z" fill="#4B5157"/>
<path d="M159.51 180.46L164.504 177.866V177.409L159.51 180.005V180.46Z" fill="#20262B"/>
<path d="M164.258 177.591V182.846L164.503 182.718V177.409L164.258 177.591Z" fill="#17263A"/>
<path d="M147.319 174.728V179.613L147.073 179.485V174.65L147.319 174.728Z" fill="#494E54"/>
<path d="M147.071 172.966L146.464 173.282L158.898 179.745L159.51 179.427L147.071 172.966Z" fill="#93A1AD"/>
<path d="M152.677 170.039L152.07 170.354L164.504 176.818L165.116 176.514L152.677 170.039Z" fill="#93A1AD"/>
<path d="M158.282 179.437L158.898 179.745L165.115 176.514L164.504 176.196L158.282 179.437Z" fill="#93A1AD"/>
<path d="M146.464 173.292L147.081 173.601L153.298 170.355L152.688 170.038L146.464 173.292Z" fill="#93A1AD"/>
<path d="M159.786 186.86L172.22 193.325V186.86L159.786 180.396V186.86Z" fill="#5F6871"/>
<path d="M178.437 183.629V190.093L172.22 193.325V186.861L178.437 183.629Z" fill="#4C535B"/>
<path d="M172.22 186.861L178.437 183.629L166.003 177.165L159.786 180.397L172.22 186.861Z" fill="#788795"/>
<path d="M159.786 180.396V181.006L172.22 187.438V186.861L159.786 180.396Z" fill="#788795"/>
<path d="M159.786 186.283V186.892L172.22 193.325V192.747L159.786 186.283Z" fill="#788795"/>
<path d="M159.787 180.397V186.892L160.395 187.207V180.713L159.787 180.397Z" fill="#788795"/>
<path d="M171.61 186.861V192.916L172.218 193.209V187.156L171.61 186.861Z" fill="#788795"/>
<path d="M172.22 186.86V187.439L178.437 184.206V183.629L172.22 186.86Z" fill="#646D76"/>
<path d="M172.22 192.747V193.325L178.437 190.093V189.515L172.22 192.747Z" fill="#656D75"/>
<path d="M172.22 187.438L172.832 187.12V193.007L172.22 193.325V187.438Z" fill="#646D76"/>
<path d="M177.825 184.423L178.437 184.105V189.991L177.825 190.309V184.423Z" fill="#646D76"/>
<path d="M161.199 180.498L166.226 177.903L166.008 177.79L161.014 180.397L161.199 180.498Z" fill="#5F6871"/>
<path d="M177.056 183.743L177.258 183.638L166.008 177.79L165.783 177.907L177.056 183.743Z" fill="#5F6871"/>
<path d="M160.395 181.765L171.603 187.575L171.61 187.123L160.395 181.321V181.621V186.599L160.525 186.667V181.673L160.395 181.765Z" fill="#4B5157"/>
<path d="M172.832 187.575L177.825 184.982V184.524L172.832 187.121V187.575Z" fill="#20262B"/>
<path d="M177.58 184.706V189.961L177.825 189.833V184.524L177.58 184.706Z" fill="#17263A"/>
<path d="M160.641 181.843V186.728L160.395 186.6V181.765L160.641 181.843Z" fill="#494E54"/>
<path d="M160.393 180.082L159.787 180.397L172.221 186.861L172.832 186.543L160.393 180.082Z" fill="#93A1AD"/>
<path d="M165.998 177.153L165.392 177.469L177.826 183.933L178.437 183.629L165.998 177.153Z" fill="#93A1AD"/>
<path d="M171.604 186.552L172.221 186.861L178.437 183.629L177.826 183.311L171.604 186.552Z" fill="#93A1AD"/>
<path d="M159.786 180.407L160.403 180.716L166.62 177.47L166.01 177.153L159.786 180.407Z" fill="#93A1AD"/>
<path d="M152.566 190.52L165 196.984V190.52L152.566 184.056V190.52Z" fill="#5F6871"/>
<path d="M171.218 187.288V193.752L165 196.984V190.52L171.218 187.288Z" fill="#4C535B"/>
<path d="M165 190.52L171.217 187.288L158.783 180.824L152.566 184.056L165 190.52Z" fill="#788795"/>
<path d="M152.566 184.056V184.665L165 191.098V190.52L152.566 184.056Z" fill="#788795"/>
<path d="M152.566 189.942V190.552L165 196.984V196.406L152.566 189.942Z" fill="#788795"/>
<path d="M152.566 184.056V190.552L153.175 190.867V184.373L152.566 184.056Z" fill="#788795"/>
<path d="M164.39 190.52V196.574L164.999 196.868V190.815L164.39 190.52Z" fill="#788795"/>
<path d="M165 190.52V191.098L171.217 187.866V187.288L165 190.52Z" fill="#646D76"/>
<path d="M165 196.406V196.984L171.217 193.752V193.174L165 196.406Z" fill="#656D75"/>
<path d="M165 191.098L165.612 190.78V196.666L165 196.984V191.098Z" fill="#646D76"/>
<path d="M170.606 188.082L171.218 187.764V193.65L170.606 193.968V188.082Z" fill="#646D76"/>
<path d="M153.979 184.157L159.006 181.562L158.788 181.449L153.794 184.056L153.979 184.157Z" fill="#5F6871"/>
<path d="M169.836 187.402L170.038 187.297L158.789 181.449L158.563 181.566L169.836 187.402Z" fill="#5F6871"/>
<path d="M153.176 185.424L164.384 191.234L164.39 190.782L153.176 184.98V185.28V190.259L153.306 190.326V185.333L153.176 185.424Z" fill="#4B5157"/>
<path d="M165.612 191.234L170.605 188.641V188.184L165.612 190.78V191.234Z" fill="#20262B"/>
<path d="M170.36 188.365V193.62L170.605 193.492V188.183L170.36 188.365Z" fill="#17263A"/>
<path d="M153.421 185.502V190.387L153.176 190.259V185.424L153.421 185.502Z" fill="#494E54"/>
<path d="M153.173 183.74L152.566 184.056L165 190.52L165.612 190.202L153.173 183.74Z" fill="#93A1AD"/>
<path d="M158.778 180.813L158.172 181.129L170.605 187.593L171.217 187.288L158.778 180.813Z" fill="#93A1AD"/>
<path d="M164.384 190.211L165 190.52L171.217 187.288L170.606 186.97L164.384 190.211Z" fill="#93A1AD"/>
<path d="M152.566 184.067L153.183 184.376L159.4 181.13L158.79 180.813L152.566 184.067Z" fill="#93A1AD"/>
<path d="M196.407 146.75L208.841 153.214V146.75L196.407 140.286V146.75Z" fill="#5F6871"/>
<path d="M215.058 143.518V149.982L208.841 153.214V146.75L215.058 143.518Z" fill="#4C535B"/>
<path d="M208.842 146.75L215.058 143.518L202.625 137.055L196.408 140.287L208.842 146.75Z" fill="#788795"/>
<path d="M196.407 140.286V140.896L208.841 147.328V146.75L196.407 140.286Z" fill="#788795"/>
<path d="M196.407 146.173V146.782L208.841 153.214V152.637L196.407 146.173Z" fill="#788795"/>
<path d="M196.408 140.286V146.782L197.016 147.097V140.603L196.408 140.286Z" fill="#788795"/>
<path d="M208.231 146.75V152.805L208.84 153.098V147.045L208.231 146.75Z" fill="#788795"/>
<path d="M208.841 146.75V147.328L215.058 144.096V143.518L208.841 146.75Z" fill="#646D76"/>
<path d="M208.841 152.636V153.214L215.058 149.982V149.404L208.841 152.636Z" fill="#656D75"/>
<path d="M208.841 147.328L209.453 147.01V152.896L208.841 153.214V147.328Z" fill="#646D76"/>
<path d="M214.446 144.313L215.058 143.995V149.881L214.446 150.199V144.313Z" fill="#646D76"/>
<path d="M197.82 140.388L202.847 137.792L202.629 137.679L197.635 140.287L197.82 140.388Z" fill="#5F6871"/>
<path d="M213.677 143.633L213.879 143.528L202.629 137.679L202.404 137.797L213.677 143.633Z" fill="#5F6871"/>
<path d="M197.016 141.655L208.225 147.465L208.231 147.012L197.016 141.211V141.511V146.489L197.147 146.557V141.563L197.016 141.655Z" fill="#4B5157"/>
<path d="M209.453 147.465L214.446 144.871V144.414L209.453 147.01V147.465Z" fill="#20262B"/>
<path d="M214.2 144.596V149.851L214.446 149.723V144.414L214.2 144.596Z" fill="#17263A"/>
<path d="M197.263 141.732V146.617L197.016 146.49V141.655L197.263 141.732Z" fill="#494E54"/>
<path d="M197.014 139.971L196.408 140.287L208.842 146.751L209.453 146.432L197.014 139.971Z" fill="#93A1AD"/>
<path d="M202.619 137.043L202.013 137.359L214.447 143.823L215.058 143.518L202.619 137.043Z" fill="#93A1AD"/>
<path d="M208.225 146.442L208.841 146.75L215.058 143.519L214.447 143.201L208.225 146.442Z" fill="#93A1AD"/>
<path d="M196.407 140.297L197.024 140.606L203.241 137.36L202.631 137.043L196.407 140.297Z" fill="#93A1AD"/>
<path d="M209.503 153.866L221.937 160.329V153.866L209.503 147.402V153.866Z" fill="#5F6871"/>
<path d="M228.155 150.633V157.098L221.937 160.329V153.866L228.155 150.633Z" fill="#4C535B"/>
<path d="M221.937 153.865L228.154 150.633L215.72 144.17L209.503 147.402L221.937 153.865Z" fill="#788795"/>
<path d="M209.503 147.402V148.011L221.937 154.443V153.866L209.503 147.402Z" fill="#788795"/>
<path d="M209.503 153.288V153.897L221.937 160.329V159.752L209.503 153.288Z" fill="#788795"/>
<path d="M209.503 147.402V153.897L210.112 154.212V147.718L209.503 147.402Z" fill="#788795"/>
<path d="M221.327 153.865V159.92L221.935 160.214V154.16L221.327 153.865Z" fill="#788795"/>
<path d="M221.938 153.866V154.443L228.154 151.211V150.634L221.938 153.866Z" fill="#646D76"/>
<path d="M221.938 159.752V160.329L228.154 157.098V156.52L221.938 159.752Z" fill="#656D75"/>
<path d="M221.937 154.443L222.549 154.125V160.011L221.937 160.329V154.443Z" fill="#646D76"/>
<path d="M227.543 151.428L228.154 151.11V156.996L227.543 157.314V151.428Z" fill="#646D76"/>
<path d="M210.916 147.503L215.942 144.907L215.725 144.794L210.731 147.402L210.916 147.503Z" fill="#5F6871"/>
<path d="M226.772 150.748L226.974 150.643L215.725 144.795L215.5 144.912L226.772 150.748Z" fill="#5F6871"/>
<path d="M210.112 148.77L221.321 154.58L221.327 154.127L210.112 148.326V148.626V153.604L210.242 153.672V148.679L210.112 148.77Z" fill="#4B5157"/>
<path d="M222.549 154.58L227.542 151.986V151.529L222.549 154.126V154.58Z" fill="#20262B"/>
<path d="M227.297 151.711V156.966L227.543 156.838V151.529L227.297 151.711Z" fill="#17263A"/>
<path d="M210.358 148.847V153.732L210.112 153.605V148.77L210.358 148.847Z" fill="#494E54"/>
<path d="M210.11 147.086L209.503 147.402L221.937 153.866L222.549 153.548L210.11 147.086Z" fill="#93A1AD"/>
<path d="M215.715 144.158L215.109 144.474L227.543 150.938L228.154 150.633L215.715 144.158Z" fill="#93A1AD"/>
<path d="M221.321 153.557L221.937 153.866L228.154 150.634L227.543 150.316L221.321 153.557Z" fill="#93A1AD"/>
<path d="M209.503 147.412L210.12 147.721L216.337 144.475L215.727 144.158L209.503 147.412Z" fill="#93A1AD"/>
<path d="M189.182 150.404L201.616 156.869V150.404L189.182 143.941V150.404Z" fill="#5F6871"/>
<path d="M207.833 147.173V153.637L201.616 156.869V150.405L207.833 147.173Z" fill="#4C535B"/>
<path d="M201.616 150.404L207.833 147.173L195.399 140.709L189.182 143.941L201.616 150.404Z" fill="#788795"/>
<path d="M189.182 143.941V144.55L201.616 150.982V150.404L189.182 143.941Z" fill="#788795"/>
<path d="M189.182 149.827V150.436L201.616 156.868V156.291L189.182 149.827Z" fill="#788795"/>
<path d="M189.182 143.941V150.436L189.791 150.751V144.257L189.182 143.941Z" fill="#788795"/>
<path d="M201.006 150.404V156.459L201.615 156.753V150.7L201.006 150.404Z" fill="#788795"/>
<path d="M201.616 150.404V150.982L207.833 147.75V147.173L201.616 150.404Z" fill="#646D76"/>
<path d="M201.616 156.29V156.868L207.833 153.636V153.059L201.616 156.29Z" fill="#656D75"/>
<path d="M201.616 150.982L202.228 150.664V156.55L201.616 156.868V150.982Z" fill="#646D76"/>
<path d="M207.221 147.967L207.833 147.649V153.535L207.221 153.853V147.967Z" fill="#646D76"/>
<path d="M190.595 144.041L195.621 141.446L195.404 141.333L190.41 143.941L190.595 144.041Z" fill="#5F6871"/>
<path d="M206.452 147.287L206.653 147.182L195.404 141.334L195.178 141.451L206.452 147.287Z" fill="#5F6871"/>
<path d="M189.791 145.309L200.999 151.119L201.006 150.667L189.791 144.865V145.165V150.143L189.921 150.211V145.217L189.791 145.309Z" fill="#4B5157"/>
<path d="M202.228 151.119L207.221 148.525V148.068L202.228 150.664V151.119Z" fill="#20262B"/>
<path d="M206.975 148.25V153.505L207.221 153.377V148.068L206.975 148.25Z" fill="#17263A"/>
<path d="M190.037 145.386V150.271L189.791 150.144V145.309L190.037 145.386Z" fill="#494E54"/>
<path d="M189.789 143.625L189.182 143.941L201.616 150.404L202.228 150.086L189.789 143.625Z" fill="#93A1AD"/>
<path d="M195.394 140.698L194.788 141.013L207.221 147.477L207.833 147.173L195.394 140.698Z" fill="#93A1AD"/>
<path d="M201 150.096L201.616 150.404L207.833 147.173L207.222 146.855L201 150.096Z" fill="#93A1AD"/>
<path d="M189.182 143.951L189.798 144.26L196.015 141.014L195.406 140.698L189.182 143.951Z" fill="#93A1AD"/>
<path d="M202.504 157.519L214.938 163.984V157.519L202.504 151.055V157.519Z" fill="#5F6871"/>
<path d="M221.155 154.287V160.752L214.938 163.984V157.52L221.155 154.287Z" fill="#4C535B"/>
<path d="M214.938 157.52L221.155 154.288L208.721 147.824L202.504 151.056L214.938 157.52Z" fill="#788795"/>
<path d="M202.504 151.056V151.665L214.938 158.097V157.52L202.504 151.056Z" fill="#788795"/>
<path d="M202.504 156.942V157.551L214.938 163.984V163.406L202.504 156.942Z" fill="#788795"/>
<path d="M202.504 151.056V157.551L203.112 157.866V151.372L202.504 151.056Z" fill="#788795"/>
<path d="M214.327 157.52V163.574L214.936 163.868V157.815L214.327 157.52Z" fill="#788795"/>
<path d="M214.938 157.519V158.097L221.154 154.865V154.287L214.938 157.519Z" fill="#646D76"/>
<path d="M214.938 163.406V163.984L221.154 160.752V160.174L214.938 163.406Z" fill="#656D75"/>
<path d="M214.938 158.097L215.549 157.779V163.665L214.938 163.983V158.097Z" fill="#646D76"/>
<path d="M220.543 155.082L221.155 154.764V160.65L220.543 160.968V155.082Z" fill="#646D76"/>
<path d="M203.917 151.157L208.943 148.561L208.726 148.449L203.732 151.056L203.917 151.157Z" fill="#5F6871"/>
<path d="M219.773 154.402L219.975 154.297L208.726 148.449L208.501 148.566L219.773 154.402Z" fill="#5F6871"/>
<path d="M203.112 152.424L214.321 158.234L214.327 157.781L203.112 151.98V152.28V157.258L203.243 157.326V152.332L203.112 152.424Z" fill="#4B5157"/>
<path d="M215.55 158.234L220.543 155.641V155.184L215.55 157.78V158.234Z" fill="#20262B"/>
<path d="M220.297 155.365V160.62L220.543 160.492V155.183L220.297 155.365Z" fill="#17263A"/>
<path d="M203.358 152.502V157.387L203.112 157.259V152.424L203.358 152.502Z" fill="#494E54"/>
<path d="M203.11 150.74L202.504 151.056L214.938 157.52L215.549 157.202L203.11 150.74Z" fill="#93A1AD"/>
<path d="M208.716 147.813L208.109 148.128L220.543 154.592L221.155 154.288L208.716 147.813Z" fill="#93A1AD"/>
<path d="M214.322 157.211L214.938 157.52L221.155 154.288L220.543 153.97L214.322 157.211Z" fill="#93A1AD"/>
<path d="M202.504 151.066L203.12 151.375L209.337 148.13L208.728 147.813L202.504 151.066Z" fill="#93A1AD"/>
<path d="M181.962 154.064L194.396 160.528V154.064L181.962 147.6V154.064Z" fill="#5F6871"/>
<path d="M200.613 150.832V157.296L194.396 160.528V154.064L200.613 150.832Z" fill="#4C535B"/>
<path d="M194.396 154.063L200.613 150.831L188.179 144.368L181.962 147.6L194.396 154.063Z" fill="#788795"/>
<path d="M181.962 147.6V148.209L194.396 154.641V154.064L181.962 147.6Z" fill="#788795"/>
<path d="M181.962 153.486V154.095L194.396 160.527V159.95L181.962 153.486Z" fill="#788795"/>
<path d="M181.963 147.6V154.095L182.571 154.41V147.916L181.963 147.6Z" fill="#788795"/>
<path d="M193.786 154.063V160.118L194.395 160.412V154.359L193.786 154.063Z" fill="#788795"/>
<path d="M194.396 154.064V154.642L200.613 151.409V150.832L194.396 154.064Z" fill="#646D76"/>
<path d="M194.396 159.95V160.528L200.613 157.296V156.718L194.396 159.95Z" fill="#656D75"/>
<path d="M194.397 154.641L195.008 154.323V160.21L194.397 160.527V154.641Z" fill="#646D76"/>
<path d="M200.002 151.626L200.613 151.308V157.194L200.002 157.512V151.626Z" fill="#646D76"/>
<path d="M183.375 147.701L188.402 145.106L188.184 144.993L183.19 147.6L183.375 147.701Z" fill="#5F6871"/>
<path d="M199.232 150.946L199.434 150.841L188.185 144.993L187.959 145.11L199.232 150.946Z" fill="#5F6871"/>
<path d="M182.571 148.968L193.779 154.778L193.786 154.325L182.571 148.524V148.824V153.802L182.701 153.87V148.877L182.571 148.968Z" fill="#4B5157"/>
<path d="M195.008 154.778L200.002 152.184V151.727L195.008 154.324V154.778Z" fill="#20262B"/>
<path d="M199.756 151.909V157.164L200.001 157.036V151.728L199.756 151.909Z" fill="#17263A"/>
<path d="M182.817 149.046V153.931L182.571 153.803V148.969L182.817 149.046Z" fill="#494E54"/>
<path d="M182.569 147.284L181.963 147.6L194.397 154.064L195.008 153.746L182.569 147.284Z" fill="#93A1AD"/>
<path d="M188.174 144.357L187.568 144.672L200.002 151.136L200.613 150.832L188.174 144.357Z" fill="#93A1AD"/>
<path d="M193.78 153.755L194.397 154.064L200.613 150.832L200.002 150.514L193.78 153.755Z" fill="#93A1AD"/>
<path d="M181.962 147.611L182.579 147.92L188.796 144.673L188.186 144.357L181.962 147.611Z" fill="#93A1AD"/>
<path d="M195.284 161.179L207.718 167.643V161.179L195.284 154.715V161.179Z" fill="#5F6871"/>
<path d="M213.935 157.947V164.411L207.718 167.643V161.179L213.935 157.947Z" fill="#4C535B"/>
<path d="M207.718 161.179L213.935 157.947L201.501 151.483L195.284 154.715L207.718 161.179Z" fill="#788795"/>
<path d="M195.284 154.715V155.324L207.718 161.756V161.179L195.284 154.715Z" fill="#788795"/>
<path d="M195.284 160.601V161.211L207.718 167.643V167.065L195.284 160.601Z" fill="#788795"/>
<path d="M195.284 154.715V161.21L195.893 161.525V155.031L195.284 154.715Z" fill="#788795"/>
<path d="M207.108 161.179V167.234L207.716 167.527V161.474L207.108 161.179Z" fill="#788795"/>
<path d="M207.718 161.179V161.757L213.935 158.525V157.947L207.718 161.179Z" fill="#646D76"/>
<path d="M207.718 167.065V167.643L213.935 164.411V163.833L207.718 167.065Z" fill="#656D75"/>
<path d="M207.718 161.756L208.33 161.438V167.325L207.718 167.643V161.756Z" fill="#646D76"/>
<path d="M213.323 158.741L213.935 158.423V164.309L213.323 164.627V158.741Z" fill="#646D76"/>
<path d="M196.696 154.816L201.723 152.221L201.506 152.108L196.512 154.715L196.696 154.816Z" fill="#5F6871"/>
<path d="M212.553 158.061L212.755 157.956L201.506 152.108L201.281 152.226L212.553 158.061Z" fill="#5F6871"/>
<path d="M195.893 156.083L207.102 161.893L207.108 161.44L195.893 155.639V155.939V160.918L196.023 160.985V155.992L195.893 156.083Z" fill="#4B5157"/>
<path d="M208.33 161.893L213.323 159.3V158.843L208.33 161.439V161.893Z" fill="#20262B"/>
<path d="M213.077 159.024V164.279L213.323 164.151V158.843L213.077 159.024Z" fill="#17263A"/>
<path d="M196.139 156.161V161.046L195.893 160.918V156.084L196.139 156.161Z" fill="#494E54"/>
<path d="M195.891 154.4L195.284 154.715L207.718 161.179L208.33 160.861L195.891 154.4Z" fill="#93A1AD"/>
<path d="M201.496 151.472L200.89 151.788L213.323 158.251L213.935 157.947L201.496 151.472Z" fill="#93A1AD"/>
<path d="M207.102 160.87L207.718 161.179L213.935 157.947L213.323 157.629L207.102 160.87Z" fill="#93A1AD"/>
<path d="M195.284 154.726L195.901 155.034L202.117 151.788L201.508 151.472L195.284 154.726Z" fill="#93A1AD"/>
<path d="M175.049 157.852L187.483 164.317V157.852L175.049 151.388V157.852Z" fill="#5F6871"/>
<path d="M193.7 154.62V161.084L187.482 164.317V157.853L193.7 154.62Z" fill="#4C535B"/>
<path d="M187.483 157.852L193.699 154.62L181.266 148.157L175.049 151.388L187.483 157.852Z" fill="#788795"/>
<path d="M175.049 151.388V151.997L187.483 158.43V157.853L175.049 151.388Z" fill="#788795"/>
<path d="M175.049 157.275V157.884L187.483 164.316V163.739L175.049 157.275Z" fill="#788795"/>
<path d="M175.049 151.388V157.884L175.657 158.199V151.705L175.049 151.388Z" fill="#788795"/>
<path d="M186.872 157.852V163.907L187.481 164.201V158.148L186.872 157.852Z" fill="#788795"/>
<path d="M187.483 157.852V158.43L193.699 155.198V154.62L187.483 157.852Z" fill="#646D76"/>
<path d="M187.483 163.739V164.316L193.699 161.084V160.507L187.483 163.739Z" fill="#656D75"/>
<path d="M187.483 158.43L188.094 158.112V163.998L187.483 164.316V158.43Z" fill="#646D76"/>
<path d="M193.088 155.415L193.7 155.097V160.983L193.088 161.301V155.415Z" fill="#646D76"/>
<path d="M176.461 151.49L181.488 148.894L181.27 148.781L176.277 151.388L176.461 151.49Z" fill="#5F6871"/>
<path d="M192.318 154.735L192.52 154.63L181.271 148.782L181.045 148.899L192.318 154.735Z" fill="#5F6871"/>
<path d="M175.657 152.757L186.866 158.567L186.872 158.114L175.657 152.313V152.613V157.591L175.788 157.659V152.665L175.657 152.757Z" fill="#4B5157"/>
<path d="M188.094 158.567L193.088 155.973V155.516L188.094 158.112V158.567Z" fill="#20262B"/>
<path d="M192.842 155.698V160.953L193.088 160.825V155.516L192.842 155.698Z" fill="#17263A"/>
<path d="M175.903 152.834V157.719L175.657 157.591V152.757L175.903 152.834Z" fill="#494E54"/>
<path d="M175.655 151.073L175.049 151.388L187.483 157.853L188.094 157.534L175.655 151.073Z" fill="#93A1AD"/>
<path d="M181.261 148.145L180.654 148.461L193.088 154.925L193.7 154.62L181.261 148.145Z" fill="#93A1AD"/>
<path d="M186.866 157.544L187.482 157.852L193.699 154.621L193.088 154.303L186.866 157.544Z" fill="#93A1AD"/>
<path d="M175.049 151.399L175.665 151.708L181.882 148.462L181.272 148.145L175.049 151.399Z" fill="#93A1AD"/>
<path d="M188.144 164.968L200.578 171.431V164.968L188.144 158.504V164.968Z" fill="#5F6871"/>
<path d="M206.796 161.735V168.2L200.578 171.432V164.968L206.796 161.735Z" fill="#4C535B"/>
<path d="M200.578 164.967L206.795 161.735L194.362 155.272L188.145 158.504L200.578 164.967Z" fill="#788795"/>
<path d="M188.144 158.504V159.113L200.578 165.545V164.968L188.144 158.504Z" fill="#788795"/>
<path d="M188.144 164.39V164.999L200.578 171.431V170.854L188.144 164.39Z" fill="#788795"/>
<path d="M188.144 158.504V164.999L188.753 165.314V158.82L188.144 158.504Z" fill="#788795"/>
<path d="M199.969 164.968V171.022L200.577 171.316V165.263L199.969 164.968Z" fill="#788795"/>
<path d="M200.579 164.968V165.545L206.795 162.313V161.735L200.579 164.968Z" fill="#646D76"/>
<path d="M200.579 170.854V171.431L206.795 168.199V167.621L200.579 170.854Z" fill="#656D75"/>
<path d="M200.578 165.545L201.19 165.227V171.113L200.578 171.431V165.545Z" fill="#646D76"/>
<path d="M206.183 162.53L206.795 162.212V168.098L206.183 168.416V162.53Z" fill="#646D76"/>
<path d="M189.557 158.605L194.584 156.009L194.366 155.896L189.372 158.504L189.557 158.605Z" fill="#5F6871"/>
<path d="M205.414 161.85L205.616 161.745L194.366 155.896L194.141 156.014L205.414 161.85Z" fill="#5F6871"/>
<path d="M188.753 159.872L199.962 165.682L199.968 165.229L188.753 159.428V159.728V164.706L188.884 164.774V159.78L188.753 159.872Z" fill="#4B5157"/>
<path d="M201.19 165.682L206.183 163.088V162.631L201.19 165.227V165.682Z" fill="#20262B"/>
<path d="M205.938 162.813V168.068L206.184 167.94V162.631L205.938 162.813Z" fill="#17263A"/>
<path d="M188.999 159.949V164.834L188.753 164.707V159.872L188.999 159.949Z" fill="#494E54"/>
<path d="M188.751 158.188L188.144 158.504L200.578 164.968L201.19 164.65L188.751 158.188Z" fill="#93A1AD"/>
<path d="M194.356 155.26L193.75 155.576L206.183 162.04L206.795 161.735L194.356 155.26Z" fill="#93A1AD"/>
<path d="M199.962 164.659L200.578 164.967L206.795 161.736L206.183 161.418L199.962 164.659Z" fill="#93A1AD"/>
<path d="M188.145 158.514L188.761 158.823L194.978 155.577L194.368 155.26L188.145 158.514Z" fill="#93A1AD"/>
<path d="M167.823 161.507L180.257 167.97V161.507L167.823 155.043V161.507Z" fill="#5F6871"/>
<path d="M186.474 158.275V164.739L180.257 167.971V161.507L186.474 158.275Z" fill="#4C535B"/>
<path d="M180.257 161.506L186.474 158.275L174.04 151.811L167.823 155.043L180.257 161.506Z" fill="#788795"/>
<path d="M167.823 155.043V155.652L180.257 162.084V161.507L167.823 155.043Z" fill="#788795"/>
<path d="M167.823 160.929V161.538L180.257 167.97V167.393L167.823 160.929Z" fill="#788795"/>
<path d="M167.823 155.043V161.538L168.432 161.853V155.359L167.823 155.043Z" fill="#788795"/>
<path d="M179.647 161.507V167.561L180.256 167.855V161.802L179.647 161.507Z" fill="#788795"/>
<path d="M180.257 161.506V162.084L186.474 158.852V158.275L180.257 161.506Z" fill="#646D76"/>
<path d="M180.257 167.392V167.97L186.474 164.738V164.161L180.257 167.392Z" fill="#656D75"/>
<path d="M180.257 162.084L180.869 161.766V167.653L180.257 167.97V162.084Z" fill="#646D76"/>
<path d="M185.862 159.069L186.474 158.751V164.637L185.862 164.955V159.069Z" fill="#646D76"/>
<path d="M169.236 155.144L174.263 152.548L174.045 152.436L169.051 155.043L169.236 155.144Z" fill="#5F6871"/>
<path d="M185.093 158.389L185.295 158.283L174.046 152.436L173.82 152.553L185.093 158.389Z" fill="#5F6871"/>
<path d="M168.432 156.411L179.641 162.221L179.647 161.769L168.432 155.967V156.267V161.245L168.563 161.313V156.319L168.432 156.411Z" fill="#4B5157"/>
<path d="M180.869 162.221L185.862 159.627V159.17L180.869 161.767V162.221Z" fill="#20262B"/>
<path d="M185.616 159.352V164.607L185.862 164.479V159.17L185.616 159.352Z" fill="#17263A"/>
<path d="M168.678 156.488V161.373L168.432 161.245V156.411L168.678 156.488Z" fill="#494E54"/>
<path d="M168.43 154.727L167.823 155.043L180.257 161.507L180.869 161.189L168.43 154.727Z" fill="#93A1AD"/>
<path d="M174.035 151.799L173.429 152.115L185.862 158.579L186.474 158.275L174.035 151.799Z" fill="#93A1AD"/>
<path d="M179.641 161.198L180.257 161.507L186.474 158.275L185.862 157.957L179.641 161.198Z" fill="#93A1AD"/>
<path d="M167.823 155.053L168.44 155.362L174.657 152.116L174.047 151.799L167.823 155.053Z" fill="#93A1AD"/>
<path d="M181.145 168.621L193.579 175.086V168.621L181.145 162.158V168.621Z" fill="#5F6871"/>
<path d="M199.796 165.39V171.854L193.579 175.086V168.622L199.796 165.39Z" fill="#4C535B"/>
<path d="M193.579 168.622L199.796 165.39L187.362 158.926L181.145 162.158L193.579 168.622Z" fill="#788795"/>
<path d="M181.145 162.158V162.767L193.579 169.199V168.622L181.145 162.158Z" fill="#788795"/>
<path d="M181.145 168.044V168.653L193.579 175.086V174.508L181.145 168.044Z" fill="#788795"/>
<path d="M181.145 162.158V168.653L181.753 168.968V162.474L181.145 162.158Z" fill="#788795"/>
<path d="M192.969 168.621V174.676L193.577 174.97V168.917L192.969 168.621Z" fill="#788795"/>
<path d="M193.579 168.622V169.2L199.796 165.968V165.39L193.579 168.622Z" fill="#646D76"/>
<path d="M193.579 174.508V175.086L199.796 171.854V171.276L193.579 174.508Z" fill="#656D75"/>
<path d="M193.58 169.199L194.191 168.881V174.767L193.58 175.085V169.199Z" fill="#646D76"/>
<path d="M199.185 166.184L199.796 165.866V171.752L199.185 172.07V166.184Z" fill="#646D76"/>
<path d="M182.558 162.259L187.584 159.663L187.367 159.551L182.373 162.158L182.558 162.259Z" fill="#5F6871"/>
<path d="M198.415 165.504L198.616 165.399L187.367 159.551L187.142 159.668L198.415 165.504Z" fill="#5F6871"/>
<path d="M181.753 163.526L192.962 169.336L192.968 168.884L181.753 163.082V163.382V168.361L181.884 168.428V163.434L181.753 163.526Z" fill="#4B5157"/>
<path d="M194.191 169.336L199.184 166.742V166.286L194.191 168.882V169.336Z" fill="#20262B"/>
<path d="M198.938 166.467V171.722L199.184 171.594V166.285L198.938 166.467Z" fill="#17263A"/>
<path d="M182 163.604V168.488L181.753 168.361V163.526L182 163.604Z" fill="#494E54"/>
<path d="M181.752 161.843L181.146 162.158L193.579 168.622L194.191 168.304L181.752 161.843Z" fill="#93A1AD"/>
<path d="M187.357 158.915L186.75 159.23L199.184 165.694L199.796 165.39L187.357 158.915Z" fill="#93A1AD"/>
<path d="M192.962 168.313L193.579 168.622L199.796 165.39L199.184 165.072L192.962 168.313Z" fill="#93A1AD"/>
<path d="M181.145 162.168L181.761 162.477L187.978 159.231L187.369 158.915L181.145 162.168Z" fill="#93A1AD"/>
<path d="M160.604 165.166L173.037 171.63V165.166L160.604 158.702V165.166Z" fill="#5F6871"/>
<path d="M179.254 161.934V168.398L173.037 171.63V165.166L179.254 161.934Z" fill="#4C535B"/>
<path d="M173.038 165.166L179.255 161.934L166.821 155.47L160.604 158.702L173.038 165.166Z" fill="#788795"/>
<path d="M160.604 158.702V159.311L173.037 165.744V165.166L160.604 158.702Z" fill="#788795"/>
<path d="M160.604 164.588V165.197L173.037 171.63V171.052L160.604 164.588Z" fill="#788795"/>
<path d="M160.604 158.702V165.198L161.212 165.512V159.019L160.604 158.702Z" fill="#788795"/>
<path d="M172.427 165.166V171.22L173.036 171.514V165.461L172.427 165.166Z" fill="#788795"/>
<path d="M173.038 165.166V165.743L179.254 162.511V161.934L173.038 165.166Z" fill="#646D76"/>
<path d="M173.038 171.052V171.63L179.254 168.398V167.82L173.038 171.052Z" fill="#656D75"/>
<path d="M173.037 165.743L173.649 165.425V171.311L173.037 171.629V165.743Z" fill="#646D76"/>
<path d="M178.643 162.728L179.254 162.41V168.296L178.643 168.614V162.728Z" fill="#646D76"/>
<path d="M162.016 158.803L167.043 156.207L166.825 156.094L161.832 158.702L162.016 158.803Z" fill="#5F6871"/>
<path d="M177.873 162.048L178.075 161.943L166.826 156.095L166.6 156.212L177.873 162.048Z" fill="#5F6871"/>
<path d="M161.212 160.07L172.421 165.88L172.427 165.428L161.212 159.626V159.926V164.905L161.343 164.972V159.979L161.212 160.07Z" fill="#4B5157"/>
<path d="M173.649 165.88L178.643 163.287V162.83L173.649 165.426V165.88Z" fill="#20262B"/>
<path d="M178.397 163.011V168.266L178.643 168.138V162.829L178.397 163.011Z" fill="#17263A"/>
<path d="M161.458 160.148V165.033L161.212 164.905V160.07L161.458 160.148Z" fill="#494E54"/>
<path d="M161.211 158.386L160.604 158.702L173.038 165.166L173.649 164.848L161.211 158.386Z" fill="#93A1AD"/>
<path d="M166.816 155.459L166.209 155.774L178.643 162.238L179.254 161.934L166.816 155.459Z" fill="#93A1AD"/>
<path d="M172.421 164.857L173.038 165.166L179.255 161.934L178.643 161.616L172.421 164.857Z" fill="#93A1AD"/>
<path d="M160.604 158.713L161.22 159.021L167.437 155.775L166.828 155.459L160.604 158.713Z" fill="#93A1AD"/>
<path d="M173.925 172.281L186.359 178.745V172.281L173.925 165.817V172.281Z" fill="#5F6871"/>
<path d="M192.576 169.049V175.513L186.359 178.745V172.281L192.576 169.049Z" fill="#4C535B"/>
<path d="M186.359 172.281L192.576 169.049L180.142 162.585L173.925 165.817L186.359 172.281Z" fill="#788795"/>
<path d="M173.925 165.817V166.426L186.359 172.858V172.281L173.925 165.817Z" fill="#788795"/>
<path d="M173.925 171.703V172.313L186.359 178.745V178.167L173.925 171.703Z" fill="#788795"/>
<path d="M173.925 165.817V172.312L174.534 172.627V166.133L173.925 165.817Z" fill="#788795"/>
<path d="M185.749 172.281V178.335L186.358 178.629V172.576L185.749 172.281Z" fill="#788795"/>
<path d="M186.359 172.281V172.859L192.576 169.627V169.049L186.359 172.281Z" fill="#646D76"/>
<path d="M186.359 178.167V178.745L192.576 175.513V174.935L186.359 178.167Z" fill="#656D75"/>
<path d="M186.359 172.859L186.971 172.541V178.427L186.359 178.745V172.859Z" fill="#646D76"/>
<path d="M191.965 169.843L192.576 169.525V175.411L191.965 175.729V169.843Z" fill="#646D76"/>
<path d="M175.338 165.918L180.364 163.323L180.147 163.21L175.153 165.817L175.338 165.918Z" fill="#5F6871"/>
<path d="M191.195 169.163L191.397 169.058L180.147 163.21L179.922 163.328L191.195 169.163Z" fill="#5F6871"/>
<path d="M174.534 167.185L185.742 172.995L185.749 172.543L174.534 166.741V167.041V172.019L174.664 172.087V167.094L174.534 167.185Z" fill="#4B5157"/>
<path d="M186.971 172.995L191.964 170.401V169.945L186.971 172.541V172.995Z" fill="#20262B"/>
<path d="M191.718 170.126V175.381L191.964 175.253V169.945L191.718 170.126Z" fill="#17263A"/>
<path d="M174.78 167.263V172.148L174.534 172.02V167.186L174.78 167.263Z" fill="#494E54"/>
<path d="M174.532 165.501L173.925 165.817L186.359 172.281L186.971 171.963L174.532 165.501Z" fill="#93A1AD"/>
<path d="M180.137 162.574L179.531 162.89L191.964 169.354L192.576 169.049L180.137 162.574Z" fill="#93A1AD"/>
<path d="M185.743 171.972L186.359 172.281L192.576 169.049L191.964 168.731L185.743 171.972Z" fill="#93A1AD"/>
<path d="M173.925 165.828L174.542 166.137L180.759 162.891L180.149 162.574L173.925 165.828Z" fill="#93A1AD"/>
<path d="M153.69 168.954L166.124 175.418V168.954L153.69 162.49V168.954Z" fill="#5F6871"/>
<path d="M172.34 165.722V172.186L166.124 175.418V168.954L172.34 165.722Z" fill="#4C535B"/>
<path d="M166.124 168.954L172.34 165.722L159.907 159.259L153.69 162.49L166.124 168.954Z" fill="#788795"/>
<path d="M153.69 162.49V163.099L166.124 169.532V168.955L153.69 162.49Z" fill="#788795"/>
<path d="M153.69 168.377V168.986L166.124 175.418V174.841L153.69 168.377Z" fill="#788795"/>
<path d="M153.69 162.49V168.986L154.298 169.301V162.807L153.69 162.49Z" fill="#788795"/>
<path d="M165.513 168.954V175.009L166.122 175.303V169.249L165.513 168.954Z" fill="#788795"/>
<path d="M166.124 168.955V169.532L172.34 166.3V165.723L166.124 168.955Z" fill="#646D76"/>
<path d="M166.124 174.841V175.418L172.34 172.186V171.609L166.124 174.841Z" fill="#656D75"/>
<path d="M166.124 169.532L166.735 169.214V175.1L166.124 175.418V169.532Z" fill="#646D76"/>
<path d="M171.729 166.516L172.341 166.198V172.085L171.729 172.403V166.516Z" fill="#646D76"/>
<path d="M155.103 162.591L160.129 159.996L159.912 159.883L154.918 162.49L155.103 162.591Z" fill="#5F6871"/>
<path d="M170.959 165.836L171.161 165.731L159.912 159.883L159.687 160.001L170.959 165.836Z" fill="#5F6871"/>
<path d="M154.298 163.859L165.507 169.669L165.513 169.216L154.298 163.415V163.715V168.693L154.429 168.761V163.767L154.298 163.859Z" fill="#4B5157"/>
<path d="M166.735 169.669L171.729 167.075V166.618L166.735 169.214V169.669Z" fill="#20262B"/>
<path d="M171.483 166.8V172.055L171.729 171.927V166.618L171.483 166.8Z" fill="#17263A"/>
<path d="M154.545 163.936V168.821L154.298 168.693V163.859L154.545 163.936Z" fill="#494E54"/>
<path d="M154.296 162.175L153.69 162.49L166.124 168.954L166.735 168.636L154.296 162.175Z" fill="#93A1AD"/>
<path d="M159.902 159.248L159.295 159.563L171.729 166.027L172.34 165.722L159.902 159.248Z" fill="#93A1AD"/>
<path d="M165.507 168.646L166.124 168.955L172.341 165.723L171.729 165.405L165.507 168.646Z" fill="#93A1AD"/>
<path d="M153.69 162.501L154.306 162.81L160.523 159.564L159.914 159.247L153.69 162.501Z" fill="#93A1AD"/>
<path d="M166.785 176.069L179.219 182.534V176.069L166.785 169.605V176.069Z" fill="#5F6871"/>
<path d="M185.437 172.837V179.302L179.22 182.534V176.07L185.437 172.837Z" fill="#4C535B"/>
<path d="M179.22 176.069L185.437 172.837L173.003 166.374L166.786 169.605L179.22 176.069Z" fill="#788795"/>
<path d="M166.785 169.605V170.215L179.219 176.647V176.07L166.785 169.605Z" fill="#788795"/>
<path d="M166.785 175.492V176.101L179.219 182.533V181.956L166.785 175.492Z" fill="#788795"/>
<path d="M166.785 169.606V176.101L167.394 176.416V169.922L166.785 169.606Z" fill="#788795"/>
<path d="M178.609 176.069V182.124L179.218 182.418V176.365L178.609 176.069Z" fill="#788795"/>
<path d="M179.22 176.069V176.647L185.437 173.415V172.837L179.22 176.069Z" fill="#646D76"/>
<path d="M179.22 181.956V182.534L185.437 179.301V178.724L179.22 181.956Z" fill="#656D75"/>
<path d="M179.22 176.647L179.832 176.329V182.215L179.22 182.533V176.647Z" fill="#646D76"/>
<path d="M184.825 173.632L185.437 173.314V179.2L184.825 179.518V173.632Z" fill="#646D76"/>
<path d="M168.198 169.707L173.225 167.111L173.008 166.998L168.014 169.606L168.198 169.707Z" fill="#5F6871"/>
<path d="M184.055 172.952L184.257 172.846L173.008 166.998L172.782 167.116L184.055 172.952Z" fill="#5F6871"/>
<path d="M167.395 170.974L178.603 176.784L178.609 176.332L167.395 170.53V170.83V175.808L167.525 175.876V170.882L167.395 170.974Z" fill="#4B5157"/>
<path d="M179.832 176.784L184.824 174.19V173.734L179.832 176.329V176.784Z" fill="#20262B"/>
<path d="M184.579 173.915V179.17L184.825 179.042V173.733L184.579 173.915Z" fill="#17263A"/>
<path d="M167.641 171.051V175.936L167.395 175.808V170.974L167.641 171.051Z" fill="#494E54"/>
<path d="M167.393 169.29L166.786 169.606L179.22 176.07L179.832 175.751L167.393 169.29Z" fill="#93A1AD"/>
<path d="M172.998 166.363L172.391 166.678L184.824 173.142L185.436 172.838L172.998 166.363Z" fill="#93A1AD"/>
<path d="M178.603 175.761L179.219 176.069L185.436 172.838L184.825 172.52L178.603 175.761Z" fill="#93A1AD"/>
<path d="M166.786 169.616L167.402 169.925L173.619 166.679L173.009 166.363L166.786 169.616Z" fill="#93A1AD"/>
<path d="M146.464 172.609L158.898 179.072V172.609L146.464 166.145V172.609Z" fill="#5F6871"/>
<path d="M165.116 169.376V175.841L158.898 179.073V172.609L165.116 169.376Z" fill="#4C535B"/>
<path d="M158.899 172.608L165.115 169.376L152.682 162.913L146.465 166.145L158.899 172.608Z" fill="#788795"/>
<path d="M146.464 166.145V166.754L158.898 173.186V172.609L146.464 166.145Z" fill="#788795"/>
<path d="M146.464 172.031V172.64L158.898 179.072V178.495L146.464 172.031Z" fill="#788795"/>
<path d="M146.464 166.145V172.64L147.073 172.955V166.461L146.464 166.145Z" fill="#788795"/>
<path d="M158.288 172.609V178.663L158.897 178.957V172.904L158.288 172.609Z" fill="#788795"/>
<path d="M158.899 172.609V173.186L165.115 169.955V169.376L158.899 172.609Z" fill="#646D76"/>
<path d="M158.899 178.495V179.073L165.115 175.841V175.263L158.899 178.495Z" fill="#656D75"/>
<path d="M158.899 173.186L159.51 172.868V178.754L158.899 179.072V173.186Z" fill="#646D76"/>
<path d="M164.504 170.171L165.116 169.853V175.739L164.504 176.057V170.171Z" fill="#646D76"/>
<path d="M147.877 166.246L152.903 163.65L152.686 163.538L147.692 166.145L147.877 166.246Z" fill="#5F6871"/>
<path d="M163.734 169.491L163.936 169.386L152.686 163.538L152.461 163.655L163.734 169.491Z" fill="#5F6871"/>
<path d="M147.073 167.513L158.282 173.323L158.288 172.87L147.073 167.069V167.369V172.348L147.204 172.415V167.421L147.073 167.513Z" fill="#4B5157"/>
<path d="M159.51 173.323L164.504 170.729V170.272L159.51 172.868V173.323Z" fill="#20262B"/>
<path d="M164.258 170.454V175.709L164.503 175.581V170.272L164.258 170.454Z" fill="#17263A"/>
<path d="M147.319 167.591V172.476L147.073 172.348V167.513L147.319 167.591Z" fill="#494E54"/>
<path d="M147.071 165.829L146.464 166.145L158.898 172.609L159.51 172.291L147.071 165.829Z" fill="#93A1AD"/>
<path d="M152.677 162.902L152.07 163.217L164.504 169.681L165.116 169.377L152.677 162.902Z" fill="#93A1AD"/>
<path d="M158.282 172.3L158.898 172.608L165.115 169.377L164.504 169.059L158.282 172.3Z" fill="#93A1AD"/>
<path d="M146.464 166.155L147.081 166.464L153.298 163.218L152.688 162.902L146.464 166.155Z" fill="#93A1AD"/>
<path d="M159.786 179.724L172.22 186.188V179.724L159.786 173.26V179.724Z" fill="#5F6871"/>
<path d="M178.437 176.492V182.956L172.22 186.188V179.724L178.437 176.492Z" fill="#4C535B"/>
<path d="M172.22 179.723L178.437 176.492L166.003 170.028L159.786 173.26L172.22 179.723Z" fill="#788795"/>
<path d="M159.786 173.26V173.869L172.22 180.301V179.724L159.786 173.26Z" fill="#788795"/>
<path d="M159.786 179.146V179.755L172.22 186.187V185.61L159.786 179.146Z" fill="#788795"/>
<path d="M159.787 173.26V179.755L160.395 180.07V173.577L159.787 173.26Z" fill="#788795"/>
<path d="M171.61 179.724V185.778L172.218 186.072V180.019L171.61 179.724Z" fill="#788795"/>
<path d="M172.22 179.723V180.302L178.437 177.07V176.492L172.22 179.723Z" fill="#646D76"/>
<path d="M172.22 185.61V186.188L178.437 182.956V182.378L172.22 185.61Z" fill="#656D75"/>
<path d="M172.22 180.301L172.832 179.983V185.87L172.22 186.187V180.301Z" fill="#646D76"/>
<path d="M177.825 177.286L178.437 176.968V182.854L177.825 183.172V177.286Z" fill="#646D76"/>
<path d="M161.199 173.361L166.226 170.766L166.008 170.653L161.014 173.26L161.199 173.361Z" fill="#5F6871"/>
<path d="M177.056 176.606L177.258 176.501L166.008 170.653L165.783 170.77L177.056 176.606Z" fill="#5F6871"/>
<path d="M160.395 174.628L171.603 180.438L171.61 179.986L160.395 174.184V174.484V179.463L160.525 179.53V174.536L160.395 174.628Z" fill="#4B5157"/>
<path d="M172.832 180.438L177.825 177.844V177.387L172.832 179.984V180.438Z" fill="#20262B"/>
<path d="M177.58 177.569V182.824L177.825 182.696V177.387L177.58 177.569Z" fill="#17263A"/>
<path d="M160.641 174.705V179.59L160.395 179.463V174.628L160.641 174.705Z" fill="#494E54"/>
<path d="M160.393 172.944L159.787 173.26L172.221 179.724L172.832 179.406L160.393 172.944Z" fill="#93A1AD"/>
<path d="M165.998 170.016L165.392 170.332L177.826 176.796L178.437 176.492L165.998 170.016Z" fill="#93A1AD"/>
<path d="M171.604 179.415L172.221 179.724L178.437 176.492L177.826 176.174L171.604 179.415Z" fill="#93A1AD"/>
<path d="M159.786 173.27L160.403 173.579L166.62 170.333L166.01 170.016L159.786 173.27Z" fill="#93A1AD"/>
</g>
</svg>
