<svg width="146" height="103" viewBox="0 0 146 103" fill="none" xmlns="http://www.w3.org/2000/svg">
<path d="M132.381 39.595L113.66 27.8693L18.5523 77.3227C10.89 81.306 8.00922 86.3541 7.36267 91.7768L1.7749 93.2668C6.33723 95.2657 8.5514 98.096 9.70215 101.036C10.0173 101.842 10.8553 102.385 11.8039 102.385C27.9293 101.644 37.679 100.116 50.4296 93.4878L145.147 44.2369V36.3479L132.381 39.595Z" fill="#B0E7FD"/>
<path d="M11.8036 98.5331L8.54517 98.7517C9.02006 99.4997 9.39896 100.268 9.70369 101.044C10.0186 101.847 10.8565 102.385 11.8021 102.385H11.8036C27.9291 101.644 37.6787 100.116 50.4294 93.4882L145.147 44.2372V40.3854L50.4294 89.6361C37.6787 96.2642 27.9291 97.7924 11.8036 98.5331Z" fill="#4B98E1"/>
<path d="M145.147 36.3482L128.754 44.7558L127.232 47.7183L51.4174 87.0703C51.4174 87.0703 46.4326 86.5213 46.3225 86.5712C33.8347 92.2221 18.3935 94.3363 1.77469 93.2668L1.77349 93.2617C0.0258363 84.8773 5.00294 76.5495 15.4003 70.2084C15.4628 70.1701 20.6959 70.3648 20.6959 70.3648L96.4037 31.0082L97.6875 28.169L113.66 19.9806L145.147 36.3482Z" fill="white"/>
<path d="M96.4036 31.0082L97.6874 28.1689L128.754 44.7557L127.232 47.7185L96.4036 31.0082Z" fill="#B0E7FD"/>
<path d="M46.3225 86.5711C33.8347 92.2219 18.3935 94.3363 1.77468 93.2668L1.77349 93.2617C0.0258352 84.8773 5.00294 76.5492 15.4003 70.2084L46.3225 86.5711Z" fill="#D9DFE6"/>
<path d="M15.8073 68.7635C4.77591 75.4913 -0.504736 84.3275 1.34968 93.2232L1.35087 93.2286C1.48246 93.2372 1.61344 93.2404 1.74532 93.2485C0.815574 84.9088 6.1028 76.732 16.4619 70.414L15.8073 68.7635Z" fill="#4B98E1"/>
<path d="M124.728 7.25485V24.3678L119.005 21.3419V4.19727L124.728 7.25485Z" fill="#D9DFE6"/>
<path d="M124.728 7.25485V24.3678L119.005 21.3419V4.19727L124.728 7.25485Z" stroke="#D9DFE6" stroke-linecap="round" stroke-linejoin="round"/>
<path d="M124.726 7.25461V24.3675L132.58 20.3083L130.176 4.39465L124.726 7.25461Z" fill="#BDC4CB"/>
<path d="M124.726 7.25461V24.3675L132.58 20.3083L130.176 4.39465L124.726 7.25461Z" stroke="#BDC4CB" stroke-linecap="round" stroke-linejoin="round"/>
<path d="M124.728 7.25458V9.89564L119.005 6.86956V4.19727L124.728 7.25458Z" fill="#B0E7FD"/>
<path d="M124.728 7.25458V9.89564L119.005 6.86956V4.19727L124.728 7.25458Z" stroke="#B0E7FD" stroke-linecap="round" stroke-linejoin="round"/>
<path d="M130.176 4.3949L124.726 7.25513V9.89565L130.552 6.88464L130.176 4.3949Z" fill="#B0E7FD"/>
<path d="M130.176 4.3949L124.726 7.25513V9.89565L130.552 6.88464L130.176 4.3949Z" stroke="#B0E7FD" stroke-linecap="round" stroke-linejoin="round"/>
<path d="M130.176 4.39456L124.725 7.25506L119.005 4.1972L124.46 1.3429L130.176 4.39456Z" fill="#4B98E1"/>
<path d="M130.176 4.39456L124.725 7.25506L119.005 4.1972L124.46 1.3429L130.176 4.39456Z" stroke="#4B98E1" stroke-linecap="round" stroke-linejoin="round"/>
<path d="M121.405 4.20692L124.453 2.61243L127.777 4.38678L124.731 5.98504L121.405 4.20692Z" fill="#D9DFE6"/>
<path d="M121.405 4.20692L124.453 2.61243L127.777 4.38678L124.731 5.98504L121.405 4.20692Z" stroke="#D9DFE6" stroke-width="0.25" stroke-miterlimit="10"/>
<path d="M124.454 2.61218V5.77532L121.405 4.20694L124.454 2.61218Z" fill="#BDC4CB"/>
<path d="M124.454 2.61218V5.77532L121.405 4.20694L124.454 2.61218Z" stroke="#BDC4CB" stroke-width="0.25" stroke-miterlimit="10"/>
<path d="M128.456 32.1628V43.1815L100.003 28.368V17.2717L128.456 32.1628Z" fill="#B0E7FD"/>
<path d="M128.449 32.1628V43.1812L137.742 38.2928V27.2336L128.449 32.1628Z" fill="#1E7DD6"/>
<path d="M137.743 27.2337L128.45 32.1631L100.003 17.272L109.307 12.3572L137.743 27.2337Z" fill="#0857A0"/>
<path d="M126.352 24.4269V31.0704L103.804 19.284V12.594L126.352 24.4269Z" fill="#B0E7FD"/>
<path d="M126.348 24.427V31.0704L134.449 26.8435V20.1755L126.348 24.427Z" fill="#1E7DD6"/>
<path d="M123.119 23.9437V30.5874L104.506 20.8231V14.1326L123.119 23.9437Z" fill="#B0E7FD"/>
<path d="M120.21 23.2566V25.0982L118.349 24.1257V22.2776L120.21 23.2566Z" fill="#D9DFE6"/>
<path d="M116.731 21.4701V23.3117L114.87 22.3392V20.4911L116.731 21.4701Z" fill="#D9DFE6"/>
<path d="M113.278 19.64V21.4811L111.417 20.5089V18.661L113.278 19.64Z" fill="#D9DFE6"/>
<path d="M109.8 17.8536V19.6947L107.938 18.7225V16.8746L109.8 17.8536Z" fill="#D9DFE6"/>
<path d="M120.21 26.1123V27.9534L118.349 26.9812V25.1333L120.21 26.1123Z" fill="#D9DFE6"/>
<path d="M116.731 24.3258V26.1669L114.87 25.1947V23.3468L116.731 24.3258Z" fill="#D9DFE6"/>
<path d="M113.278 22.4951V24.3368L111.417 23.3642V21.5161L113.278 22.4951Z" fill="#D9DFE6"/>
<path d="M109.8 20.7087V22.5504L107.938 21.5779V19.7297L109.8 20.7087Z" fill="#D9DFE6"/>
<path d="M123.115 23.944V30.5874L124.137 29.994V23.3258L123.115 23.944Z" fill="#0857A0"/>
<path d="M124.138 23.3257L123.115 23.9439L104.506 14.1325L105.535 13.5234L124.138 23.3257Z" fill="#0857A0"/>
<path d="M127.766 25.4666V26.5751L128.886 25.9895V24.8772L127.766 25.4666Z" fill="#D9DFE6"/>
<path d="M129.86 24.3909V25.4996L130.98 24.914V23.8018L129.86 24.3909Z" fill="#D9DFE6"/>
<path d="M131.939 23.2888V24.3973L133.059 23.8117V22.6995L131.939 23.2888Z" fill="#D9DFE6"/>
<path d="M127.766 27.1857V28.2944L128.886 27.7088V26.5966L127.766 27.1857Z" fill="#D9DFE6"/>
<path d="M129.86 26.11V27.2185L130.98 26.6329V25.5206L129.86 26.11Z" fill="#D9DFE6"/>
<path d="M131.939 25.0077V26.1162L133.059 25.5311V24.4188L131.939 25.0077Z" fill="#D9DFE6"/>
<path d="M131.503 23.3804V24.3328L126.352 24.3785L103.804 12.5925L98.72 7.37307V6.33081L131.503 23.3804Z" fill="#B0E7FD"/>
<path d="M131.499 23.3806V24.333L136.542 21.7065V20.6798L131.499 23.3806Z" fill="#1E7DD6"/>
<path d="M136.542 20.6796L131.499 23.3804L98.7197 6.33077L103.77 3.63855L136.542 20.6796Z" fill="#0857A0"/>
<path d="M124.579 18.7803V20.7768L105.146 10.6124V8.57715L124.579 18.7803Z" fill="#B0E7FD"/>
<path d="M124.575 18.78V20.7764L131.214 17.3125V15.2961L124.575 18.78Z" fill="#1E7DD6"/>
<path d="M131.215 15.296L124.575 18.7801L105.145 8.57691L111.79 5.1001L131.215 15.296Z" fill="#4B98E1"/>
<path d="M111.849 6.99749V5.96143L129.498 15.2063L128.475 15.7222L111.849 6.99749Z" fill="#B0E7FD"/>
<path d="M111.853 6.99747V5.96167L106.836 8.61485L107.78 9.14473L111.853 6.99747Z" fill="#1E7DD6"/>
<path d="M116.272 27.2094V31.3281L114.63 30.47V26.3459L116.272 27.2094Z" fill="#D9DFE6"/>
<path d="M113.203 25.6336V29.7521L111.562 28.8942V24.7699L113.203 25.6336Z" fill="#D9DFE6"/>
<path d="M108.474 23.1484V24.7725L106.833 23.9149V22.2852L108.474 23.1484Z" fill="#D9DFE6"/>
<path d="M116.272 32.2229V36.0179L114.63 35.1598V31.3594L116.272 32.2229Z" fill="#D9DFE6"/>
<path d="M113.203 30.647V34.4417L111.562 33.5839V29.7832L113.203 30.647Z" fill="#D9DFE6"/>
<path d="M123.871 31.2662V32.8903L122.229 32.0324V30.403L123.871 31.2662Z" fill="#D9DFE6"/>
<path d="M120.824 29.6518V31.2759L119.183 30.4181V28.7881L120.824 29.6518Z" fill="#D9DFE6"/>
<path d="M123.871 33.7853V35.4094L122.229 34.5515V32.9215L123.871 33.7853Z" fill="#D9DFE6"/>
<path d="M120.824 32.1706V33.7947L119.183 32.9369V31.3069L120.824 32.1706Z" fill="#D9DFE6"/>
<path d="M108.474 25.6672V27.2913L106.833 26.4337V24.804L108.474 25.6672Z" fill="#D9DFE6"/>
<path d="M105.387 21.5832V23.2073L103.745 22.3495V20.7195L105.387 21.5832Z" fill="#D9DFE6"/>
<path d="M105.387 24.102V25.7261L103.745 24.8683V23.2383L105.387 24.102Z" fill="#D9DFE6"/>
<path d="M123.871 36.3359V37.96L122.229 37.1022V35.4722L123.871 36.3359Z" fill="#D9DFE6"/>
<path d="M105.387 26.6523V28.2764L103.745 27.4188V25.7891L105.387 26.6523Z" fill="#D9DFE6"/>
<path d="M135.156 29.9291V32.74L136.276 32.155V29.34L135.156 29.9291Z" fill="#D9DFE6"/>
<path d="M135.156 33.3506V35.9405L136.276 35.3552V32.7612L135.156 33.3506Z" fill="#D9DFE6"/>
<path d="M129.969 32.698V33.8065L131.089 33.2209V32.1086L129.969 32.698Z" fill="#D9DFE6"/>
<path d="M132.048 31.5957V32.7042L133.169 32.1186V31.0063L132.048 31.5957Z" fill="#D9DFE6"/>
<path d="M129.969 34.4171V35.5256L131.089 34.94V33.8278L129.969 34.4171Z" fill="#D9DFE6"/>
<path d="M132.048 33.3151V34.4236L133.169 33.838V32.7257L132.048 33.3151Z" fill="#D9DFE6"/>
<path d="M129.969 36.1577V37.2662L131.089 36.6811V35.5688L129.969 36.1577Z" fill="#D9DFE6"/>
</svg>
