<svg width="27" height="27" viewBox="0 0 27 27" fill="none" xmlns="http://www.w3.org/2000/svg">
<path d="M13.4999 19.0557C14.9733 19.0557 16.3864 18.4704 17.4283 17.4285C18.4701 16.3866 19.0554 14.9736 19.0554 13.5001C19.0554 12.0267 18.4701 10.6136 17.4283 9.57176C16.3864 8.5299 14.9733 7.94458 13.4999 7.94458C12.0265 7.94458 10.6134 8.5299 9.57152 9.57176C8.52965 10.6136 7.94434 12.0267 7.94434 13.5001C7.94434 14.9736 8.52965 16.3866 9.57152 17.4285C10.6134 18.4704 12.0265 19.0557 13.4999 19.0557Z" stroke="white" stroke-width="1.5" stroke-linecap="round" stroke-linejoin="round"/>
<path d="M0.999939 19.0556V7.94444C0.999939 6.10266 1.73158 4.33632 3.03392 3.03398C4.33626 1.73164 6.1026 1 7.94438 1H19.0555C20.8973 1 22.6636 1.73164 23.966 3.03398C25.2683 4.33632 25.9999 6.10266 25.9999 7.94444V19.0556C25.9999 20.8973 25.2683 22.6637 23.966 23.966C22.6636 25.2684 20.8973 26 19.0555 26H7.94438C6.1026 26 4.33626 25.2684 3.03392 23.966C1.73158 22.6637 0.999939 20.8973 0.999939 19.0556Z" stroke="white" stroke-width="1.5"/>
<path d="M21.1388 5.8749L21.1527 5.85962" stroke="white" stroke-width="1.5" stroke-linecap="round" stroke-linejoin="round"/>
</svg>
