<svg width="29" height="28" viewBox="0 0 29 28" fill="none" xmlns="http://www.w3.org/2000/svg">
<path d="M26.7397 8.53069C28.0532 5.3323 28.1397 2.66724 26.5651 1.06883C24.8144 -0.706828 20.6129 -0.173502 16.1549 1.95509H15.6279C12.4803 1.95509 9.41608 3.11273 7.14148 5.15348C5.21921 6.93071 3.81922 9.2397 3.20576 11.8138C3.64306 11.2852 6.09381 8.35187 8.89224 6.75346C8.98186 6.75346 9.68031 6.30954 9.68031 6.30954C9.59223 6.30954 8.28187 7.64286 8.02072 7.90952C1.89385 14.3032 -1.6911 23.9846 1.10887 26.8253C2.94462 28.6904 6.26997 28.2465 10.1192 26.1163C11.7803 26.9163 13.6191 27.2692 15.6279 27.2692C18.2533 27.2692 20.704 26.5587 22.8025 25.1375C24.9905 23.7164 26.5667 21.4999 27.5294 18.9227H20.7056C19.831 20.6089 17.8175 21.765 15.7191 21.765C12.743 21.765 10.2922 19.2772 10.2057 16.4365V16.1714H28.0547V15.9047C28.0547 15.4608 28.1428 14.9275 28.1428 14.5745C28.1413 12.4381 27.6159 10.3958 26.7397 8.53069ZM3.03115 26.2936C1.63116 24.8724 2.07156 22.1179 3.73114 18.8333C4.51921 21.0544 5.83112 23.0089 7.4938 24.4285C8.02072 24.8708 8.62955 25.3148 9.24455 25.6708C6.44149 27.1814 4.16844 27.4481 3.03115 26.2936ZM20.9652 12.7942H10.2922V12.7047C10.4668 9.95028 13.0026 7.55188 15.9802 7.55188C18.7802 7.55188 21.0548 9.77302 21.2294 12.7047V12.7942H20.9652ZM26.3024 7.82011C25.7552 6.89547 25.0768 6.05772 24.289 5.33387C23.0682 4.18317 21.6429 3.27874 20.089 2.66881C22.8906 1.33706 25.2517 1.16138 26.4771 2.40372C27.4397 3.55821 27.3532 5.51112 26.3024 7.82011Z" fill="white"/>
</svg>
