<svg width="27" height="27" viewBox="0 0 27 27" fill="none" xmlns="http://www.w3.org/2000/svg">
<g id="instagram">
<path id="Vector" d="M13.5 19.1605C15.0012 19.1605 16.4409 18.5642 17.5025 17.5026C18.564 16.4411 19.1604 15.0014 19.1604 13.5001C19.1604 11.9989 18.564 10.5592 17.5025 9.49765C16.4409 8.43612 15.0012 7.83976 13.5 7.83976C11.9988 7.83976 10.559 8.43612 9.49749 9.49765C8.43596 10.5592 7.83961 11.9989 7.83961 13.5001C7.83961 15.0014 8.43596 16.4411 9.49749 17.5026C10.559 18.5642 11.9988 19.1605 13.5 19.1605Z" stroke="white" stroke-width="1.5" stroke-linecap="round" stroke-linejoin="round"/>
<path id="Vector_2" d="M0.764151 19.1604V7.83962C0.764151 5.96309 1.5096 4.16342 2.83651 2.83651C4.16342 1.5096 5.96309 0.764151 7.83962 0.764151H19.1604C21.0369 0.764151 22.8366 1.5096 24.1635 2.83651C25.4904 4.16342 26.2358 5.96309 26.2358 7.83962V19.1604C26.2358 21.0369 25.4904 22.8366 24.1635 24.1635C22.8366 25.4904 21.0369 26.2358 19.1604 26.2358H7.83962C5.96309 26.2358 4.16342 25.4904 2.83651 24.1635C1.5096 22.8366 0.764151 21.0369 0.764151 19.1604Z" stroke="white" stroke-width="1.5"/>
<path id="Vector_3" d="M21.283 5.73103L21.2971 5.71546" stroke="white" stroke-width="1.5" stroke-linecap="round" stroke-linejoin="round"/>
</g>
</svg>
