<svg width="40" height="41" viewBox="0 0 40 41" fill="none" xmlns="http://www.w3.org/2000/svg">
<path id="Vector" d="M20.0311 0C18.3857 0 15.9729 0.68631 15.9729 1.28889V4.87013C17.3191 4.5909 18.6882 4.4359 20.0628 4.4071C21.4383 4.43932 22.8085 4.58743 24.1591 4.84984V1.30792C24.1591 0.687578 21.6689 0 20.0311 0ZM20.0641 6.4026C16.6084 6.4026 11.4947 7.82342 11.4947 8.42347V12.8115C14.0995 11.0011 16.9612 9.5916 19.9842 8.63025C20.0045 8.60995 24.7224 9.89884 28.7984 12.8521L28.8047 12.8585V8.42347C28.8047 7.79551 23.5185 6.4026 20.0628 6.4026H20.0641ZM20.111 10.7767C18.8158 11.1065 17.5472 11.7155 16.3649 12.2775C13.7886 13.4871 11.4006 15.0624 9.2747 16.9548C11.562 19.2877 12.9282 22.2156 13.7693 24.9368L13.829 25.1283L13.8949 25.1956L13.8087 25.1283C13.7884 25.1093 11.0672 22.3209 7.08891 22.3209C4.98811 22.3209 2.55749 23.0935 0 25.4201C0.24357 26.2992 0.54169 27.1251 0.891822 27.9573V27.9839L0.932417 28.0638C4.3221 35.801 12.2698 40.8424 20.7136 40.5912C28.9937 40.3413 36.5254 34.9891 39.5383 27.2976C39.7045 26.8815 39.8491 26.4451 40.0001 26.029C37.147 23.9079 32.6727 21.2642 30.9486 21.6029V21.5966C29.6331 21.8465 28.093 23.7367 26.1178 25.6256C26.9107 22.8182 28.3315 19.6873 30.908 16.9776C30.2376 16.3676 29.5364 15.7921 28.8072 15.2536V15.2333C26.2307 13.3164 23.2305 11.6711 20.1136 10.7729L20.111 10.7767ZM20.0907 12.2901L21.1272 17.4495L20.8773 21.9695L20.1301 28.6626V28.6969L20.0438 28.6829C20.0324 28.6829 20.0184 28.669 20.0045 28.669V28.6233L19.1723 21.9441L18.968 17.4571L20.0907 12.2901ZM21.6092 28.9138L21.6498 28.9201C21.5672 28.9478 21.4855 28.9782 21.405 29.0115C21.471 28.9722 21.5433 28.9519 21.6092 28.9138Z" fill="#0F1035"/>
</svg>
