<svg width="16" height="16" viewBox="0 0 16 16" fill="none" xmlns="http://www.w3.org/2000/svg">
<path id="Vector" d="M8 0C5.87827 0 3.84344 0.842876 2.34315 2.34321C0.842855 3.84354 0 5.87842 0 8.00021C5.46953e-05 9.05081 0.207035 10.0911 0.609123 11.0617C1.01121 12.0323 1.60053 12.9142 2.34344 13.6571C3.08635 14.3999 3.96829 14.9892 4.93892 15.3912C5.90954 15.7932 6.94984 16.0001 8.00042 16C9.05099 15.9999 10.0913 15.793 11.0619 15.3909C12.0324 14.9888 12.9143 14.3994 13.6571 13.6565C14.4 12.9136 14.9892 12.0316 15.3912 11.061C15.7932 10.0903 16.0001 9.04998 16 7.99937C16 3.58176 12.4175 0 8 0ZM8 14.3329C7.16224 14.3425 6.33089 14.1858 5.55412 13.8718C4.77735 13.5579 4.07058 13.0929 3.47477 12.5039C2.87895 11.9148 2.40593 11.2134 2.08309 10.4403C1.76025 9.66715 1.59402 8.83763 1.59402 7.99979C1.59402 7.16195 1.76025 6.33244 2.08309 5.5593C2.40593 4.78616 2.87895 4.08475 3.47477 3.49572C4.07058 2.90668 4.77735 2.44172 5.55412 2.12777C6.33089 1.81381 7.16224 1.6571 8 1.66671C8.83776 1.6571 9.66911 1.81381 10.4459 2.12777C11.2227 2.44172 11.9294 2.90668 12.5252 3.49572C13.121 4.08475 13.5941 4.78616 13.9169 5.5593C14.2397 6.33244 14.406 7.16195 14.406 7.99979C14.406 8.83763 14.2397 9.66715 13.9169 10.4403C13.5941 11.2134 13.121 11.9148 12.5252 12.5039C11.9294 13.0929 11.2227 13.5579 10.4459 13.8718C9.66911 14.1858 8.83776 14.3425 8 14.3329Z" fill="#0F1035"/>
</svg>
