<svg width="28" height="28" viewBox="0 0 28 28" fill="none" xmlns="http://www.w3.org/2000/svg">
<g id="search_icon">
<path id="search_icon/default" d="M11.4349 22.6537C13.8198 22.6506 16.144 21.9087 18.0821 20.5321L25.1303 27.5141C25.2887 27.67 25.4766 27.7931 25.6833 27.8765C25.89 27.9599 26.1114 28.0019 26.3345 27.9999C27.3015 27.9999 28 27.2634 28 26.3207C28 25.8789 27.8515 25.4667 27.5242 25.143L20.5203 18.1905C21.9923 16.2756 22.8698 13.9044 22.8698 11.3265C22.8698 5.0961 17.7249 0 11.4349 0C5.13025 0 0 5.0961 0 11.3265C0 17.557 5.13025 22.6537 11.4349 22.6537ZM11.4349 20.2084C6.51273 20.2084 2.46805 16.1876 2.46805 11.3265C2.46805 6.46549 6.51337 2.44467 11.4349 2.44467C16.3418 2.44467 20.4017 6.46612 20.4017 11.3265C20.4017 16.1876 16.3418 20.2084 11.4349 20.2084Z" fill="black"/>
</g>
</svg>
