<svg width="14" height="14" viewBox="0 0 14 14" fill="none" xmlns="http://www.w3.org/2000/svg">
<path fill-rule="evenodd" clip-rule="evenodd" d="M13.6551 1.33517C13.7863 1.20389 13.8601 1.02583 13.8601 0.840172C13.8601 0.654511 13.7863 0.476455 13.6551 0.345172C13.5238 0.21389 13.3457 0.140137 13.1601 0.140137C12.9744 0.140137 12.7963 0.21389 12.6651 0.345172L7.00005 6.01017L1.33505 0.345172C1.20377 0.21389 1.02571 0.140137 0.84005 0.140137C0.654389 0.140137 0.476333 0.21389 0.34505 0.345172C0.213768 0.476455 0.140015 0.654511 0.140015 0.840172C0.140015 1.02583 0.213768 1.20389 0.34505 1.33517L6.01005 7.00017L0.34505 12.6652C0.213768 12.7965 0.140015 12.9745 0.140015 13.1602C0.140015 13.3458 0.213768 13.5239 0.34505 13.6552C0.476333 13.7865 0.654389 13.8602 0.84005 13.8602C1.02571 13.8602 1.20377 13.7865 1.33505 13.6552L7.00005 7.99017L12.6651 13.6552C12.7963 13.7865 12.9744 13.8602 13.1601 13.8602C13.3457 13.8602 13.5238 13.7865 13.6551 13.6552C13.7863 13.5239 13.8601 13.3458 13.8601 13.1602C13.8601 12.9745 13.7863 12.7965 13.6551 12.6652L7.99005 7.00017L13.6551 1.33517Z" fill="black"/>
</svg>
